<?xml version="1.0" encoding="UTF-8"?>
<svg id="Layer_2" data-name="Layer 2" xmlns="http://www.w3.org/2000/svg" xmlns:xlink="http://www.w3.org/1999/xlink" viewBox="0 0 249.42 284.25">
  <defs>
    <style>
      .cls-1 {
        fill: #325433;
      }

      .cls-2 {
        stroke-width: 5px;
      }

      .cls-2, .cls-3, .cls-4, .cls-5, .cls-6, .cls-7 {
        stroke: #000;
      }

      .cls-2, .cls-3, .cls-4, .cls-5, .cls-8, .cls-9 {
        stroke-miterlimit: 10;
      }

      .cls-2, .cls-3, .cls-10, .cls-5, .cls-6, .cls-9, .cls-7 {
        fill: none;
      }

      .cls-2, .cls-3, .cls-6, .cls-9, .cls-7 {
        stroke-linecap: round;
      }

      .cls-3 {
        stroke-width: 4.05px;
      }

      .cls-11 {
        fill: #961914;
      }

      .cls-4, .cls-12 {
        fill: #fff;
      }

      .cls-4, .cls-5, .cls-8, .cls-7 {
        stroke-width: 2.7px;
      }

      .cls-13 {
        fill: #ebab44;
      }

      .cls-14 {
        clip-path: url(#clippath-1);
      }

      .cls-15, .cls-8 {
        fill: #ca8c50;
      }

      .cls-16 {
        fill: #79bd75;
      }

      .cls-17 {
        clip-path: url(#clippath-3);
      }

      .cls-18 {
        fill: #f8b781;
      }

      .cls-19 {
        fill: #67ac6b;
      }

      .cls-6 {
        stroke-width: 2.95px;
      }

      .cls-6, .cls-7 {
        stroke-linejoin: round;
      }

      .cls-20 {
        clip-path: url(#clippath-2);
      }

      .cls-8 {
        isolation: isolate;
        opacity: .28;
        stroke: #1d1d1b;
      }

      .cls-21 {
        fill: #6a7b91;
      }

      .cls-9 {
        stroke: #a36d40;
        stroke-width: 5.4px;
      }

      .cls-22 {
        fill: #a36d40;
      }

      .cls-23 {
        fill: #8ea6c6;
      }

      .cls-24 {
        clip-path: url(#clippath);
      }
    </style>
    <clipPath id="clippath">
      <path class="cls-10" d="M173.13,123.24c11.18,29.2-5.48,55.35-32.9,64.41-27.42,9.06-54.46,5.07-66.8-23.49-12.34-28.56,3.58-54.55,31.43-66.59,27.85-12.04,57.1-3.53,68.27,25.66h0Z"/>
    </clipPath>
    <clipPath id="clippath-1">
      <path class="cls-10" d="M97.72,95.91c-.96-1.76-3.1-5.11-4.12-7.27-12.85,6.13-26.12,7.89-37.76,16.55,3.1-25.47,11.62-40.25,38.12-25.85,18.05-18.71,22.41-19.67,45.23-6.93-15.58,5.36-22.71,13.39-40.12,15.5,1.77,2.71,3.74,5.27,5.51,7.98-1.83,1.14-3.76,2.07-5.5,3.36-.72-1.45-.41-1.58-1.37-3.34h0Z"/>
    </clipPath>
    <clipPath id="clippath-2">
      <path class="cls-10" d="M160.59,156.58c5.85,17.06-5.34,26.32-19.98,31.28-14.64,4.96-30.17,6.78-36.72-9.28-6.55-16.07,4.83-28.98,19.78-35.36s31.07-3.7,36.92,13.37h0Z"/>
    </clipPath>
    <clipPath id="clippath-3">
      <path class="cls-10" d="M100.89,174.22c-1.78,1.72-3.48,8.04-1.52,11.32,4.69,7.87,6.03,10.5,6.15,11.47,1.34,10.63.52,18.57,2.45,27.99.6,2.93.85,2.84,2.84,4.47.03.03,2.05.12,2.09.11,3.08-.73,5.08-1.99,6.69-4.78.68-1.17.37-2.9,1.15-4.02,1.72-2.47,3.38-2.98,6.44-2.96,1.32,0,3.5.42,4.88.77,3.75.95,5.64,2.93,7.14,6.35.76,1.73-.23.44,0,0,1.5,3.42,3.34,5.76,7.34,5.66.1,0,.34.07.42,0,2.2-1.54,4.42-2.56,4.61-5.58.43-6.93-1.38-14.64-1.65-21.37-.12-2.99.85-2.56,2.56-.81s2.7,5.68,4.88,7.19c2.98,2.06,5.01.99,7.62-1.07.59-.46,1.51-1.32,1.65-2.16.73-4.38,1.23-6.47-2.8-9.61-3.62-2.82-8.86-5.8-13.17-8-.64-.33-3-1.47-3.61-1.78-19.25,4.57-18.35,4.06-28.54,3.15-1.31-.12-2.54-.7-3.45-1.65-2.43-2.53-4.25-3.61-2.3-7.3,3.15-5.95-8.97-10.22-11.88-7.38v-.02Z"/>
    </clipPath>
  </defs>
  <g id="Layer_1-2" data-name="Layer 1">
    <rect class="cls-13" y="0" width="249.42" height="284.25" rx="20.65" ry="20.65"/>
    <g>
      <g>
        <path class="cls-15" d="M173.13,123.24c11.18,29.2-5.48,55.35-32.9,64.41-27.42,9.06-54.46,5.07-66.8-23.49-12.34-28.56,3.58-54.55,31.43-66.59,27.85-12.04,57.1-3.53,68.27,25.66h0Z"/>
        <g class="cls-24">
          <g>
            <path class="cls-22" d="M67.12,116.96c-2.6,8.1-4.79,16.3-5.55,24.81-.69,7.7.23,15.67,2.72,23s6.05,13.11,10.55,18.9c2.03,2.61,4.14,5.24,6.71,7.36,2.86,2.36,5.92,4.33,9.31,5.84,4.42,1.97,8.78,3.49,13.58,4.13s9.14.54,13.73.57c3.53.02,6.91-3.12,6.75-6.75s-2.97-6.73-6.75-6.75-7.35.07-11.02-.25c-.11,0-1.34-.06-1.36-.14l.89.12c-.3-.04-.6-.09-.9-.14-.9-.15-1.8-.34-2.69-.57-1.65-.43-3.26-1.03-4.85-1.65-.37-.14-.73-.32-1.1-.45,1.88.66.6.25.17.05-.59-.27-1.18-.55-1.75-.84-1.49-.76-2.93-1.62-4.29-2.59-.15-.11-1.22-.86-.25-.17s-.08-.08-.23-.21c-.61-.51-1.19-1.06-1.75-1.62-1.13-1.15-2.17-2.4-3.19-3.64-.35-.43-1.88-2.61-.65-.78-.43-.64-.93-1.23-1.37-1.86-.88-1.23-1.72-2.49-2.5-3.78-.74-1.22-1.44-2.47-2.08-3.75-.31-.61-.6-1.23-.88-1.85-.2-.43-.61-1.69.08.24-.17-.47-.38-.93-.56-1.4-1.12-2.93-1.94-5.98-2.5-9.06-.12-.66-.38-1.46-.34-2.12l.12.84c-.04-.32-.07-.63-.1-.95-.05-.48-.08-.95-.12-1.43-.13-1.9-.14-3.8-.05-5.7.05-1.11.13-2.21.24-3.31.05-.47.11-.94.16-1.42.1-.76.08-.63-.05.38.05-.31.09-.63.14-.94.32-2.04.73-4.07,1.2-6.09.98-4.2,2.23-8.34,3.55-12.45,1.08-3.36-1.26-7.52-4.72-8.3-3.69-.84-7.15,1.11-8.3,4.72h0Z"/>
            <path class="cls-22" d="M101.07,153.81c-2.86,7.89-5.03,16.4-2.11,24.65,1.35,3.81,3.38,7.1,6.12,10.07,2.18,2.37,4.75,4.33,7.27,6.31,1.47,1.15,2.82,1.98,4.77,1.98,1.66,0,3.63-.74,4.77-1.98,2.23-2.43,2.97-7.22,0-9.55-2.29-1.79-4.61-3.58-6.65-5.66-.5-.51-.98-1.04-1.44-1.59-.7-.84-.01.09.28.39-.24-.24-.43-.59-.62-.88-.4-.6-.78-1.23-1.11-1.87-.17-.33-.31-.68-.48-1.01.9,1.67.3.71.11.19-.28-.8-.51-1.61-.69-2.44-.08-.38-.14-.76-.22-1.14-.08-.52-.05-.3.09.67-.02-.22-.04-.45-.06-.67-.06-.8-.08-1.61-.05-2.42.02-.43.04-.87.08-1.3.03-.29.06-.57.09-.86l-.12.94c.17-.16.18-1,.23-1.28.09-.43.18-.85.28-1.28.21-.86.45-1.71.7-2.55.53-1.73,1.14-3.44,1.76-5.15,1.21-3.33-1.35-7.54-4.72-8.3-3.8-.87-7.01,1.15-8.3,4.72h.02Z"/>
          </g>
        </g>
        <path class="cls-5" d="M173.13,123.24c11.18,29.2-5.48,55.35-32.9,64.41-27.42,9.06-54.46,5.07-66.8-23.49-12.34-28.56,3.58-54.55,31.43-66.59,27.85-12.04,57.1-3.53,68.27,25.66h0Z"/>
      </g>
      <path class="cls-9" d="M101.93,162.53c14.37-22.59,18.69-26.14,45.57-21.11"/>
      <g>
        <path class="cls-19" d="M97.72,95.91c-.96-1.76-3.1-5.11-4.12-7.27-12.85,6.13-26.12,7.89-37.76,16.55,3.1-25.47,11.62-40.25,38.12-25.85,18.05-18.71,22.41-19.67,45.23-6.93-15.58,5.36-22.71,13.39-40.12,15.5,1.77,2.71,3.74,5.27,5.51,7.98-1.83,1.14-3.76,2.07-5.5,3.36-.72-1.45-.41-1.58-1.37-3.34h0Z"/>
        <g class="cls-14">
          <g>
            <path class="cls-16" d="M73.66,78.75c.72-.16,1.45-.29,2.18-.39l-1.79.24c1.9-.25,3.8-.28,5.7-.03l-1.79-.24c1.88.26,3.7.78,5.47,1.47,1.54.59,3.83.12,5.2-.68s2.74-2.43,3.1-4.03c.39-1.73.31-3.67-.68-5.2l-1.06-1.37c-.84-.84-1.84-1.42-2.98-1.74-2.7-1.04-5.5-1.6-8.38-1.83s-5.77.19-8.55.79c-1.6.35-3.22,1.72-4.03,3.1s-1.21,3.58-.68,5.2,1.54,3.21,3.1,4.03c1.66.88,3.36,1.08,5.2.68h0Z"/>
            <path class="cls-16" d="M113.07,69.23c.35-.06.71-.11,1.06-.16.9-.14-1.44.16-.54.08.61-.06,1.22-.14,1.83-.18,1.17-.09,2.34-.14,3.51-.14s2.24.06,3.35.18c.2.02,1.46.18.19.01s-.03.01.18.05c.53.09,1.06.2,1.59.32,1.06.25,2.11.55,3.13.91.51.18,1.08.33,1.55.58-.18-.1-1.42-.63-.58-.24.29.13.57.26.86.4,2.26,1.08,4.39,2.4,6.44,3.83,2.9,2.03,7.63.62,9.24-2.42,1.83-3.46.68-7.07-2.42-9.24-4.5-3.15-9.59-5.74-14.98-6.92-6.03-1.32-11.94-1.04-17.99-.08-1.56.25-3.27,1.8-4.03,3.1-.85,1.45-1.21,3.58-.68,5.2s1.54,3.21,3.1,4.03c1.7.9,3.31.98,5.2.68h-.01Z"/>
            <path class="cls-1" d="M64.69,109.87c.41-.37.83-.74,1.25-1.09.21-.18.42-.35.63-.52.56-.44.42-.34-.4.31.44-.15.92-.67,1.32-.93.45-.29.9-.58,1.36-.84s.95-.49,1.42-.74c.65-.3.49-.23-.5.19.25-.1.51-.2.77-.29.54-.19,1.09-.37,1.65-.51.2-.05,2.09-.5.94-.22s.69-.05.94-.07c.61-.05,1.23-.09,1.84-.14,1.66-.14,3.31-.35,4.95-.66,2.7-.51,5.27-1.5,7.73-2.71,3.18-1.56,4.3-6.32,2.42-9.24-2.1-3.25-5.84-4.1-9.24-2.42-.23.11-.6.21-.8.38.23-.19,1.28-.49.41-.18-.54.19-1.07.39-1.62.55-1.07.32-2.34.35-3.37.75.33-.13,1.38-.15.43-.06-.31.03-.62.06-.92.09-.61.05-1.23.09-1.84.14-1.75.14-3.53.32-5.24.72-5.24,1.22-9.75,4.42-13.68,7.96-2.63,2.37-2.59,7.17,0,9.55,2.81,2.58,6.74,2.53,9.55,0h0v-.02Z"/>
          </g>
        </g>
        <path class="cls-7" d="M97.72,95.91c-.96-1.76-3.1-5.11-4.12-7.27-12.85,6.13-26.12,7.89-37.76,16.55,3.1-25.47,11.62-40.25,38.12-25.85,18.05-18.71,22.41-19.67,45.23-6.93-15.58,5.36-22.71,13.39-40.12,15.5,1.77,2.71,3.74,5.27,5.51,7.98-1.83,1.14-3.76,2.07-5.5,3.36-.72-1.45-.41-1.58-1.37-3.34h0Z"/>
      </g>
      <path class="cls-4" d="M158.33,123.3c-16.7-24.89-49.97-28.64-34.96,9.06.62,1.55,1.83,1.92,2.57,2.29,6.91,3.38,12.14,3.99,18-.87,2.89-2.4,4.69-4.62,8.21-5.76,1.18-.38,2.8-.69,3.81-.83,1.91-.27,3.16-2.7,2.37-3.88h0Z"/>
      <g>
        <path class="cls-15" d="M160.59,156.58c5.85,17.06-5.34,26.32-19.98,31.28s-30.17,6.78-36.72-9.28c-6.55-16.07,4.83-28.98,19.78-35.36s31.07-3.7,36.92,13.37h0Z"/>
        <g class="cls-20">
          <g>
            <path class="cls-18" d="M127.53,152.07c1.55-.48,2.78-1.31,4.22-1.96l-1.61.68c.73-.29,1.52-.42,2.29-.52l-1.79.24c1.5-.18,2.99-.15,4.49.03l-1.79-.24c1.7.23,3.37.64,5.02,1.11s3.7.2,5.2-.68c1.4-.82,2.74-2.43,3.1-4.03.39-1.73.31-3.67-.68-5.2s-2.3-2.62-4.03-3.1c-3.01-.84-6.17-1.52-9.31-1.51-1.8,0-3.69.21-5.44.68-1.63.44-2.92,1.38-4.44,2.04l1.61-.68c-.14.06-.28.11-.43.15-1.66.51-3.15,1.59-4.03,3.1s-1.21,3.58-.68,5.2,1.54,3.21,3.1,4.03,3.45,1.22,5.2.68h0v-.02Z"/>
            <path class="cls-8" d="M37.78,157.28c1,2.3,1.09,5.21-1.6,6.21-2.69,1-4.78-1.14-5.77-3.49-1-2.35-.76-4.83,1.82-5.82,2.58-.98,4.56.8,5.56,3.1h0Z"/>
          </g>
        </g>
        <path class="cls-7" d="M160.59,156.58c5.85,17.06-5.34,26.32-19.98,31.28s-30.17,6.78-36.72-9.28c-6.55-16.07,4.83-28.98,19.78-35.36s31.07-3.7,36.92,13.37h0Z"/>
      </g>
      <path class="cls-3" d="M88.61,119.48c2.8-7.06,6.43-9.45,15.34-6.71"/>
      <path class="cls-2" d="M116.18,105.19c4.7-6.11,9.31-9.03,17.06-9.62"/>
      <path d="M148.65,119.93c2.52,6.71-.39,13.21-7.09,15.66s-12.93-.67-15.58-7.23c-2.64-6.56-.05-13.34,6.75-15.76,6.8-2.43,13.39.63,15.91,7.34h0Z"/>
      <path class="cls-12" d="M132.62,120.17c.05,1.73.33,4.15-1.96,4.27s-3.5-2.03-3.58-4.15,1.09-4.33,3.38-4.25,2.11,2.41,2.16,4.14h0Z"/>
      <path class="cls-7" d="M57.21,103.49c6.06-13.4,14.24-18.73,28.73-20.46"/>
      <path class="cls-7" d="M137.97,71.53c-14.32-1.05-25.59-.93-36.65,9.13"/>
      <path class="cls-4" d="M86.55,154.1c-4.4-27.09,14.67-57.26,30.25-18.85.64,1.58-.02,2.7-.28,3.48-2.49,7.23-5.7,11.45-13.16,12.36-3.68.45-6.31.18-9.5,1.86-1.07.56-2.4,1.46-3.16,2.08-1.45,1.18-3.94.35-4.15-.94h0Z"/>
      <path d="M91.07,145.01c2.7,6.43,8.88,8.67,15.13,5.62,6.25-3.04,8.69-9.86,6.03-16.32s-8.93-9.15-15.26-5.93c-6.33,3.22-8.6,10.19-5.9,16.62h0Z"/>
      <path class="cls-12" d="M102.14,133.66c1.15,1.25,2.6,3.02,4.19,1.44,1.59-1.58,1.06-3.98-.36-5.54s-3.66-2.01-5.14-.37.16,3.22,1.31,4.46h0Z"/>
      <path class="cls-11" d="M93.75,160.64c.28.67-.07,1.31-.71,1.59-.65.28-1.34.09-1.61-.58-.28-.67.09-1.3.73-1.57s1.32-.1,1.6.57h0Z"/>
      <path class="cls-11" d="M88.62,166.39c.28.67-.07,1.32-.72,1.6s-1.34.08-1.62-.6.07-1.31.72-1.59,1.34-.08,1.62.59Z"/>
      <path class="cls-11" d="M94.93,165.68c.27.67-.07,1.31-.72,1.59s-1.33.06-1.6-.61c-.27-.67.07-1.31.72-1.58s1.33-.07,1.6.6Z"/>
      <path class="cls-11" d="M152.93,135.01c.27.71.95,1.05,1.67.79s1.01-.95.74-1.65c-.27-.71-.96-1.04-1.67-.79-.72.26-1.01.94-.74,1.65Z"/>
      <path class="cls-11" d="M160.8,136.1c.26.71.94,1.08,1.66.83.73-.25,1.02-.95.76-1.66-.26-.71-.94-1.08-1.67-.83-.73.25-1.02.95-.76,1.66h0Z"/>
      <path class="cls-11" d="M155.67,140.04c.26.71.94,1.07,1.66.82s1.02-.95.76-1.67c-.26-.71-.94-1.07-1.66-.81-.72.26-1.02.95-.76,1.66h0Z"/>
      <g>
        <path class="cls-23" d="M100.89,174.22c-1.78,1.72-3.48,8.04-1.52,11.32,4.69,7.87,6.03,10.5,6.15,11.47,1.34,10.63.52,18.57,2.45,27.99.6,2.93.85,2.84,2.84,4.47.03.03,2.05.12,2.09.11,3.08-.73,5.08-1.99,6.69-4.78.68-1.17.37-2.9,1.15-4.02,1.72-2.47,3.38-2.98,6.44-2.96,1.32,0,3.5.42,4.88.77,3.75.95,5.64,2.93,7.14,6.35.76,1.73-.23.44,0,0,1.5,3.42,3.34,5.76,7.34,5.66.1,0,.34.07.42,0,2.2-1.54,4.42-2.56,4.61-5.58.43-6.93-1.38-14.64-1.65-21.37-.12-2.99.85-2.56,2.56-.81s2.7,5.68,4.88,7.19c2.98,2.06,5.01.99,7.62-1.07.59-.46,1.51-1.32,1.65-2.16.73-4.38,1.23-6.47-2.8-9.61-3.62-2.82-8.86-5.8-13.17-8-.64-.33-3-1.47-3.61-1.78-19.25,4.57-18.35,4.06-28.54,3.15-1.31-.12-2.54-.7-3.45-1.65-2.43-2.53-4.25-3.61-2.3-7.3,3.15-5.95-8.97-10.22-11.88-7.38v-.02Z"/>
        <g class="cls-17">
          <path class="cls-21" d="M113.29,197.02c6.32,3.75,13.28,5.8,20.59,4.09,3.63-.85,7.07-2.46,9.89-4.9,1.04-.9,1.96-1.92,2.9-2.91.49-.52,1-1.04,1.52-1.53.22-.21.47-.39.68-.61.27-.23.18-.16-.27.19.2-.15.41-.3.62-.43,2.12-1.44,3.27-4.39,1.77-6.73-1.36-2.12-4.46-3.31-6.73-1.77-2.4,1.63-4.24,3.69-6.27,5.72-.47.47-.96.89-1.45,1.34-.43.39.75-.48-.03,0-.32.2-.63.41-.97.59-.3.16-.61.3-.91.45-.49.26.53-.18-.3.13-.74.28-1.49.54-2.26.75-.66.18-1.33.29-2,.44-.61.14.9-.06-.06,0-.39.03-.77.06-1.16.07-.64.02-1.28,0-1.91-.05-.19,0-.38-.03-.57-.06-.37-.04-.25-.03.36.05-.28.04-.68-.12-.95-.18-.7-.15-1.4-.34-2.08-.56-.26-.08-.51-.17-.76-.26-.13-.05-1.39-.56-.36-.11-1.49-.64-2.92-1.42-4.32-2.25-2.22-1.31-5.5-.57-6.73,1.77s-.6,5.33,1.77,6.73h0v.03Z"/>
        </g>
        <path class="cls-6" d="M100.89,174.22c-1.78,1.72-3.48,8.04-1.52,11.32,4.69,7.87,6.03,10.5,6.15,11.47,1.34,10.63.52,18.57,2.45,27.99.6,2.93.85,2.84,2.84,4.47.03.03,2.05.12,2.09.11,3.08-.73,5.08-1.99,6.69-4.78.68-1.17.37-2.9,1.15-4.02,1.72-2.47,3.38-2.98,6.44-2.96,1.32,0,3.5.42,4.88.77,3.75.95,5.64,2.93,7.14,6.35.76,1.73-.23.44,0,0,1.5,3.42,3.34,5.76,7.34,5.66.1,0,.34.07.42,0,2.2-1.54,4.42-2.56,4.61-5.58.43-6.93-1.38-14.64-1.65-21.37-.12-2.99.85-2.56,2.56-.81s2.7,5.68,4.88,7.19c2.98,2.06,5.01.99,7.62-1.07.59-.46,1.51-1.32,1.65-2.16.73-4.38,1.23-6.47-2.8-9.61-3.62-2.82-8.86-5.8-13.17-8-.64-.33-3-1.47-3.61-1.78-19.25,4.57-18.35,4.06-28.54,3.15-1.31-.12-2.54-.7-3.45-1.65-2.43-2.53-4.25-3.61-2.3-7.3,3.15-5.95-8.97-10.22-11.88-7.38v-.02Z"/>
      </g>
      <path d="M167.77,90.36c-.53,2.49-3.29,3.75-5.47,2.99-2.19-.76-3.28-3.33-2.44-5.74s3.98-4.76,5.47-2.99c1.36,1.62,2.87,3.76,2.44,5.74Z"/>
      <path d="M164.23,80.04l2.32.57c1.36.33,2.74-.45,3.15-1.78l1.68-5.38c.2-.65.66-1.18,1.25-1.52,22.93-13.21-9.48-37.8-18.54-13.01-.49,1.34.13,2.84,1.46,3.39h0c1.16.48,2.47.07,3.2-.96,6.11-8.64,20.63-3.3,7.86,6.25-1.56,1.17-2.7,2.82-3.17,4.72l-1.13,4.51c-.35,1.42.51,2.86,1.93,3.21h0Z"/>
    </g>
  </g>
</svg>