<?xml version="1.0" encoding="UTF-8"?>
<svg id="Layer_2" data-name="Layer 2" xmlns="http://www.w3.org/2000/svg" viewBox="0 0 91.95 89.15">
  <defs>
    <style>
      .cls-1 {
        fill: #212121;
      }
    </style>
  </defs>
  <g id="Layer_1-2" data-name="Layer 1">
    <g>
      <path class="cls-1" d="M62.44,39.24c.57,1.28.86,2.89.86,4.84v11.97c22.87-14.79,22.71-15.08,21.76-16.72-.2-.35-.6-.64-.99-.74-1.19-.3-3.42.71-20.22,10.93,3.7-2.35,7.15-4.57,10.09-6.5,10.99-7.22,11.22-7.91,10.37-9.39-.2-.35-.59-.64-.99-.74-.99-.25-2.77.45-13.78,7.06,2.73-1.72,5.27-3.34,7.55-4.82,3.52-2.28,6.09-4,7.84-5.25,2.41-1.72,3.99-2.86,3.13-4.35-.2-.35-.62-.66-1.01-.76-1.42-.36-5.06,1.4-25.12,13.52.19.29.37.61.52.94Z"/>
      <path class="cls-1" d="M91.64,48.05c-.2-.35-.59-.64-.99-.74-1.21-.31-3.72.85-21.79,11.76,4.58-2.96,8.79-5.69,12.3-8.03,3.02-2.01,5.21-3.52,6.72-4.62,2.14-1.57,3.55-2.61,2.73-4.04-.2-.35-.59-.64-.98-.74-1.28-.33-4.37,1.16-26.33,14.41v.09c0,.6-.16,1.07-.47,1.4-.32.33-.76.5-1.33.5-.6,0-1.06-.17-1.37-.5-.31-.33-.47-.79-.47-1.4v-11.83c0-2.04-.4-3.53-1.19-4.48-.79-.94-2.06-1.42-3.8-1.42-2.01,0-3.61.62-4.79,1.87-1.19,1.25-1.78,2.9-1.78,4.97v10.89c0,1.26-.62,1.89-1.84,1.89-.6,0-1.05-.17-1.35-.5-.3-.33-.45-.79-.45-1.4v-18.76c0-.6.15-1.06.45-1.37s.74-.47,1.3-.47,1.01.16,1.33.47c.31.31.47.77.47,1.37v2.22c.63-1.2,1.48-2.14,2.59-2.83,1.42-.88,3.07-1.33,4.93-1.33.38,0,.75.02,1.1.05,26.37-16.62,26.18-16.97,25.21-18.65-.2-.35-.61-.65-1-.75-.97-.25-2.81.42-11.39,5.46,1.7-1.12,3.05-2.04,4.1-2.79,2.22-1.59,3.83-2.74,2.97-4.23-.2-.35-.61-.65-1-.75-.78-.2-2.31.3-7.46,3.19,2.03-1.36,3.67-2.48,4.93-3.4,2.85-2.06,4.41-3.3,3.55-4.81-.2-.35-.59-.64-.99-.74-1.23-.31-3.66.84-23.36,12.86,3.92-2.49,7.51-4.79,10.52-6.76,2.85-1.86,4.93-3.26,6.35-4.28,2.07-1.48,3.44-2.45,2.63-3.85-.2-.35-.58-.64-.98-.74-1.38-.36-4.54,1.31-34.79,19.67-1.2.73-2.42,1.47-3.65,2.22.62-.4,1.22-.79,1.82-1.18Q62.07,7.75,61.02,5.93c-.2-.35-.6-.65-1-.75-1.4-.35-4.17,1.07-27.96,15.72,0,0,.02-.01.03-.02,6.07-4.02,11.81-7.81,16.09-10.74,7.51-5.14,8.13-5.75,7.29-7.19-.2-.35-.59-.64-.98-.74-.95-.24-2.15.09-14.53,7.47.75-.51,1.46-.99,2.14-1.46,7.92-5.43,8.49-5.99,7.65-7.45-.2-.35-.58-.63-.97-.73-1.12-.29-2.11.08-21.17,11.75-.54.33-1.08.66-1.63,1,10.09-7.91,10.03-8.02,9.28-9.31-.2-.35-.55-.61-.94-.71q-.83-.21-8.29,4.31c-2.72,1.65-6.4,3.89-7.33,4.32-.17.03-.33.09-.49.18-.72.41-.96,1.33-.55,2.05.2.35.55.61.94.71.16.04.29.08.44.07-10.74,8.42-10.69,8.5-9.93,9.82.2.35.57.63.96.73.51.13.82.21,3.28-1.14-1.8,1.21-3.48,2.34-4.96,3.36C.73,32.44.26,32.9,1.09,34.35c.2.35.56.62.96.72.94.25,1.22.32,18.75-10.3-3.47,2.31-6.74,4.51-9.53,6.43-9.65,6.65-9.83,7.24-9.01,8.65.2.35.61.65,1,.75,1,.25,2.79-.44,12.12-6.01C-.79,45.3-.53,45.75.3,47.19c.2.35.59.64.98.74,1,.26,3.02-.57,14.84-7.58-2.8,1.85-4.92,3.3-6.44,4.41-2.43,1.77-4.04,2.93-3.18,4.42.2.35.62.66,1.01.76.9.23,2.67-.39,9.09-4.06-1.09.69-2.13,1.36-3.11,1.99-3.14,2.03-5.43,3.55-6.99,4.65-2.21,1.57-3.67,2.6-2.84,4.05.2.35.6.64.99.74.78.2,2.13-.22,7.85-3.49-1.44.96-2.62,1.77-3.57,2.46-2.38,1.71-4.09,2.95-3.2,4.49.2.35.62.66,1.01.76,1.1.27,3.51-.73,14.27-7.12-15.79,10.14-15.5,10.65-14.67,12.08.2.35.62.66,1.01.75,1.01.26,3.18-.59,11.94-5.67-13.78,8.96-13.41,9.58-12.62,10.96.2.35.6.65.99.75,1.2.3,3.96-.94,21.44-11.5-1.33.85-2.61,1.67-3.81,2.45-3.83,2.48-6.62,4.36-8.53,5.73-2.57,1.85-4.26,3.07-3.37,4.61.22.38.58.65,1.02.76,1.12.29,3.63-.75,14.09-6.94-.7.45-1.37.89-2.02,1.32-11.11,7.3-11.34,7.99-10.48,9.48.2.35.62.66,1.01.76,1.32.33,4.46-1.14,21.41-11.4-2.6,1.69-5.03,3.3-7.19,4.74-10.76,7.19-10.96,7.75-10.12,9.21.2.35.58.63.97.73,1.17.3,2.64-.29,28.98-16.26-26.06,16.81-25.86,17.16-24.87,18.87.2.35.58.64.98.74,1.21.31,3.62-.87,23.72-13.06-3.28,2.12-6.29,4.1-8.88,5.83-8.99,6-9.42,6.54-8.56,8.02.2.35.58.63.97.73,1.13.29,2.26-.15,23.96-13.37-3.28,2.22-6.37,4.34-8.94,6.15-7.8,5.47-8.23,6.1-7.42,7.5.2.35.57.62.96.72.13.03.25.06.41.06,1.04,0,3.65-1.4,22.18-12.65,1.22-.74,2.49-1.51,3.77-2.29-2.9,2.18-5.6,4.21-7.71,5.84-4.09,3.18-5.07,3.93-4.27,5.31.2.35.56.62.95.72.85.21.94.24,8.92-4.71,2.98-1.85,7.01-4.34,8.09-4.82.22-.02.43-.08.64-.2.72-.41.96-1.33.55-2.05-.2-.35-.57-.62-.96-.72-.1-.02-.19-.05-.28-.06,2.65-1.99,5.22-3.93,7.25-5.51,4.62-3.59,5.57-4.4,4.77-5.78-.2-.35-.57-.62-.96-.72-.88-.23-1.2-.3-14.02,7.41,3.44-2.33,6.6-4.49,9.21-6.31,6.73-4.71,7.54-5.4,6.69-6.87-.2-.35-.59-.64-.98-.74-.72-.19-1.53-.06-7.01,3.08.75-.49,1.46-.97,2.15-1.43,9.93-6.64,10.1-7.17,9.28-8.6ZM37.65,55.96c0,.63-.16,1.12-.47,1.46-.31.34-.77.52-1.37.52s-1.05-.17-1.35-.52c-.3-.34-.45-.83-.45-1.46v-18.41c0-.63.15-1.11.45-1.44.3-.33.75-.5,1.35-.5.57,0,1.02.17,1.35.5.33.33.5.81.5,1.44v18.41ZM37.58,29.97c-.41.41-1,.61-1.78.61s-1.33-.2-1.75-.61c-.42-.4-.63-.95-.63-1.64s.21-1.27.63-1.64c.42-.38,1-.56,1.75-.56s1.37.19,1.78.56c.41.38.61.92.61,1.64s-.2,1.24-.61,1.64Z"/>
      <path class="cls-1" d="M59.86,36.38c.83.45,1.51,1.08,2.04,1.87,23.85-14.98,23.67-15.31,22.72-16.96-.2-.35-.59-.64-.98-.74-1.27-.33-4.02,1.03-26.91,14.93,1.21.12,2.26.41,3.14.89Z"/>
    </g>
  </g>
</svg>