<?xml version="1.0" encoding="UTF-8"?>
<svg id="Layer_2" data-name="Layer 2" xmlns="http://www.w3.org/2000/svg" viewBox="0 0 93.35 88.61">
  <defs>
    <style>
      .cls-1 {
        fill: #212121;
      }
    </style>
  </defs>
  <g id="Layer_1-2" data-name="Layer 1">
    <path class="cls-1" d="M91.33,48.32c-1.12-.29-2.31.18-24.61,13.77,26.65-17.36,26.52-17.59,25.52-19.32-.2-.35-.6-.64-.99-.74-.58-.15-1.45.04-4.13,1.44,1.07-.72,1.98-1.35,2.75-1.9,2.4-1.73,4.14-2.97,3.25-4.5-.2-.35-.58-.64-.98-.74-.76-.2-2.05.22-8.09,3.69,1.94-1.28,3.49-2.34,4.71-3.21,2.77-1.99,4.29-3.19,3.44-4.67-.22-.38-.58-.65-1.02-.76-.87-.22-2.59.36-8.2,3.51,8.91-5.86,8.64-6.33,7.96-7.51-.2-.35-.6-.65-1-.75-.76-.19-2.26.29-7.21,3.04,5.59-3.79,5.59-4.48,4.9-5.66-.2-.35-.58-.64-.98-.74-1.03-.26-2.89.51-16.11,8.46,15.56-9.92,15.29-10.4,14.47-11.82-.2-.35-.59-.64-.99-.74-1.21-.31-3.84.92-22.65,12.31,1.96.37,3.69,1.39,4.96,2.83l-16,9.81c-1.55.95-3.61.92-5.12-.06l-15-9.72c1.6-1.84,3.95-3.02,6.57-3.02h23.01c.44,0,.87.04,1.29.11,2.68-1.72,5.18-3.33,7.39-4.78,10.86-7.14,11.08-7.83,10.22-9.31-.2-.35-.61-.65-1-.75-.88-.22-2.48.33-9.55,4.44,2.57-1.69,4.55-3.04,6.02-4.09,2.59-1.86,4.29-3.09,3.41-4.62-.2-.35-.6-.65-.99-.75-.82-.21-2.21.23-8.29,3.73,2.48-1.6,4.35-2.84,5.69-3.77,2.29-1.6,3.67-2.57,2.84-4.01-.2-.35-.6-.65-.99-.75-1.32-.34-4.4,1.15-26.29,14.42,18.38-11.9,18.21-12.19,17.32-13.74-.2-.35-.57-.63-.96-.73-1.04-.27-2.29.16-20.68,11.23,2.4-1.54,4.62-2.98,6.57-4.27,8.72-5.75,9.12-6.28,8.27-7.75-.2-.35-.57-.63-.96-.73-.81-.21-1.66-.03-10.33,5.08.82-.53,1.6-1.04,2.35-1.53,8.95-5.89,9.41-6.49,8.56-7.97-.2-.35-.58-.63-.97-.73-1.09-.28-2.22.13-21.68,11.91,1.68-1.14,3.26-2.21,4.65-3.17,6.87-4.75,7.72-5.41,6.87-6.88-.2-.35-.56-.62-.95-.72-.99-.25-1.2-.31-20.61,11.45-1.5.91-3.07,1.86-4.63,2.8,2.32-1.81,4.56-3.58,6.33-5,3.92-3.17,4.85-3.92,4.07-5.27-.2-.35-.55-.61-.94-.71-.84-.21-.89-.22-8.69,4.54-2.58,1.58-6.07,3.71-6.96,4.13-.17.03-.34.09-.5.18-.72.41-.96,1.33-.55,2.05.2.35.55.61.94.71.19.05.34.09.55.06-2.38,1.86-4.71,3.69-6.5,5.13-3.77,3.05-4.67,3.77-3.9,5.1.2.35.56.62.95.72.62.16.94.24,5.86-2.6-.92.63-1.8,1.23-2.62,1.8-7.29,5.04-7.82,5.56-6.99,6.98.2.35.58.63.97.73.57.15,1.19.1,4.43-1.67C-.35,38.41-.5,39.02.31,40.42c.2.35.58.63.97.73.75.19,1.59.04,8.55-4.01C.59,43.31.44,43.92,1.25,45.33c.2.35.58.63.97.73,1.02.26,2.33-.15,18.19-9.64-16.3,10.61-16.09,10.97-15.24,12.45.2.35.59.64.99.74.6.15,1.5-.06,4.41-1.59-6.86,4.66-6.51,5.26-5.88,6.35.2.35.62.66,1.01.76.96.25,2.91-.49,10.55-4.92-12.26,7.86-12,8.32-11.23,9.65.2.35.62.66,1.01.76,1.29.32,4.36-1.09,20.36-10.76-1.89,1.22-3.67,2.37-5.3,3.45-11.17,7.36-11.42,8.11-10.56,9.6.2.35.61.65,1,.75.87.22,2.65-.42,9.24-4.19-11.71,7.54-11.43,8.02-10.68,9.3.22.38.58.65,1.01.76.81.21,2.42-.31,7.42-3.07-4.15,2.96-4.11,3.66-3.49,4.73.2.35.58.63.97.73,1.01.26,2.23-.12,17.76-9.44-14.96,9.58-14.71,10.02-13.9,11.41.2.35.59.64.98.74.85.22,2.32-.3,10.14-4.91-13.37,8.48-13.1,8.96-12.3,10.33.2.35.6.65.99.75.91.23,2.84-.51,10.41-4.88-6.86,4.55-6.57,5.05-5.93,6.16.2.35.59.64.99.74,1.34.34,4.43-1.21,30.4-17.03-5.75,3.74-11.36,7.41-15.69,10.32-2.96,1.99-5.11,3.48-6.59,4.57-2.11,1.56-3.51,2.59-2.69,4,.2.35.6.65,1,.75,1.32.34,4.26-1.06,25.14-13.73-3.26,2.18-6.33,4.25-8.91,6.04-8.7,6.01-9.2,6.68-8.36,8.14.2.35.59.64.99.74,1.17.3,3.14-.64,19.79-10.89-2.59,1.81-5.03,3.54-7.09,5.03-7,5.05-7.57,5.64-6.76,7.05.2.35.57.63.96.73.14.04.26.07.42.07.96,0,3.16-1.17,17.29-9.82,5.79-3.54,12.95-7.92,14.47-8.56.22-.01.45-.08.66-.2.72-.41.96-1.33.55-2.05-.2-.35-.56-.62-.96-.72-.69-.18-.98-.25-6.44,3,15.04-10.48,14.97-10.6,14.11-12.08-.2-.35-.6-.65-.99-.75-.98-.25-2.48.31-11.75,5.91,3.62-2.42,7.04-4.71,9.81-6.63,8.2-5.65,8.62-6.23,7.79-7.66-.2-.35-.57-.63-.97-.73ZM59.78,58.22h-23.01c-4.79,0-8.7-3.92-8.7-8.7v-9.49c0-1.1.21-2.14.59-3.11l14.92,9.67c1.26.82,2.75,1.23,4.24,1.23s2.85-.38,4.08-1.13l15.99-9.8c.38.98.6,2.04.6,3.15v9.49c0,4.79-3.92,8.7-8.7,8.7Z"/>
  </g>
</svg>