<?xml version="1.0" encoding="UTF-8"?>
<svg id="Layer_2" data-name="Layer 2" xmlns="http://www.w3.org/2000/svg" xmlns:xlink="http://www.w3.org/1999/xlink" viewBox="0 0 842.69 1089.14">
  <defs>
    <style>
      .cls-1 {
        fill: #282122;
      }

      .cls-2 {
        fill: #bc695b;
      }

      .cls-3 {
        fill: #c1897c;
      }

      .cls-4 {
        fill: none;
      }

      .cls-5 {
        clip-path: url(#clippath-1);
      }

      .cls-6 {
        fill: #d89180;
      }

      .cls-7 {
        fill: #db9d8a;
      }

      .cls-8 {
        fill: #96524a;
      }

      .cls-9 {
        fill: #af7669;
      }

      .cls-10 {
        clip-path: url(#clippath-2);
      }

      .cls-11 {
        clip-path: url(#clippath);
      }

      .cls-12 {
        fill: #413536;
      }
    </style>
    <clipPath id="clippath">
      <rect class="cls-4" width="842.69" height="1089.14"/>
    </clipPath>
    <clipPath id="clippath-1">
      <path class="cls-7" d="M236.28,555.03c6.88,16.1,4.74,51-2.41,95.92-7.65,48.07-33.46,80.37-45.5,93.72,12.38,11.57,61.67,54.91,141.37,61.08,88,6.81,148.87-51.81,161.13-60.96-11.59-13.26-34.94-24.92-44.69-89.53-4.95-32.79-6-63.92-3.86-92.62-23.82-49.49-52.05-77.21-108.34-74.33-73.19,3.75-95.49,63.06-97.69,66.72Z"/>
    </clipPath>
    <clipPath id="clippath-2">
      <path class="cls-7" d="M628.04,1004.24l72.23-227.39c-97.6-22.44-197.34-54.29-244.7-82.38l-230.49,1.45c-26.11,4.59-149.71,49.52-245.24,55.63l59.76,319.24,6.4,334.49,633.49,11.91-51.46-412.94Z"/>
    </clipPath>
  </defs>
  <g id="_1_500xA0_1_500_px_Logo_1" data-name="1 500xA0 1 500 px Logo 1">
    <g class="cls-11">
      <g>
        <g>
          <g>
            <path class="cls-12" d="M115.2,495.19c-43.97,66.83-92.81,129.57,2.54,313.69,103.03,46.41,137.85,1.63,189.78-213.43,17.02-70.48-37.43-152.96-109.78-148.19l-31.31,9.56c-21.03,6.42-39.14,20-51.22,38.37Z"/>
            <path class="cls-1" d="M95.22,593.3c-.14,0-.29-.01-.44-.03-1.64-.24-2.78-1.76-2.54-3.4,4.13-28.43,18.93-55.55,40.6-74.41,1.25-1.09,3.14-.96,4.23.29,1.09,1.25.96,3.15-.29,4.23-20.6,17.93-34.67,43.72-38.6,70.74-.22,1.49-1.5,2.57-2.96,2.57Z"/>
            <path class="cls-1" d="M117.69,669.04c-1.4,0-2.65-.98-2.94-2.4-5.23-25.69-4.31-52.62,2.67-77.89.44-1.6,2.1-2.54,3.69-2.09,1.6.44,2.54,2.09,2.09,3.69-6.72,24.36-7.61,50.33-2.57,75.1.33,1.62-.72,3.21-2.34,3.54-.2.04-.4.06-.6.06Z"/>
          </g>
          <g>
            <path class="cls-7" d="M236.28,555.03c6.88,16.1,4.74,51-2.41,95.92-7.65,48.07-33.46,80.37-45.5,93.72,12.38,11.57,61.67,54.91,141.37,61.08,88,6.81,148.87-51.81,161.13-60.96-11.59-13.26-34.94-24.92-44.69-89.53-4.95-32.79-6-63.92-3.86-92.62-23.82-49.49-52.05-77.21-108.34-74.33-73.19,3.75-95.49,63.06-97.69,66.72Z"/>
            <g class="cls-5">
              <path class="cls-3" d="M470.16,592.29c-35.73,76.36-136.39,74.16-241.16,48.83,3.63-27.94-5.81-59.86-20.96-91.01l263.41,21.62"/>
            </g>
          </g>
          <path class="cls-7" d="M151.44,337.46c0,160.67,88.27,290.92,197.17,290.92,108.89,0,197.17-130.25,197.17-290.92,0-160.67-86.37-251.98-195.26-251.98-108.89,0-199.07,91.31-199.07,251.98Z"/>
          <ellipse cx="432.27" cy="386.99" rx="16.66" ry="22.96"/>
          <ellipse cx="272.04" cy="382.1" rx="16.66" ry="22.96"/>
          <g>
            <polyline class="cls-7" points="338.36 364.39 384.61 466.55 333.62 466.55"/>
            <polygon class="cls-9" points="387.71 468.55 333.62 468.55 333.62 464.55 381.51 464.55 336.54 365.22 340.18 363.57 387.71 468.55"/>
          </g>
          <path class="cls-12" d="M298.4,326.97c-.36-.96-.76-1.98-1.8-2.63-.96-.6-2.27-.77-3.51-.91-22.18-2.58-44.49-4.59-66.87-6.02-2.71,5.38-5.43,10.76-8.14,16.14,21.62,2.14,43.24,4.28,64.86,6.42,3.41.34,17.63,3.67,20.04,1.73,2.29-1.85-3.66-12.29-4.57-14.73Z"/>
          <path class="cls-12" d="M397.81,328.32c.36-.88.76-1.81,1.8-2.4.96-.54,2.27-.7,3.51-.83,22.18-2.36,44.49-4.19,66.87-5.49,2.71,4.91,5.43,9.82,8.14,14.73-21.62,1.95-43.24,3.91-64.86,5.86-3.41.31-17.63,3.35-20.04,1.58s3.66-11.22,4.57-13.44Z"/>
          <ellipse class="cls-6" cx="455.96" cy="458.54" rx="34.9" ry="29.59"/>
          <ellipse class="cls-6" cx="233.33" cy="458.54" rx="34.9" ry="29.59"/>
          <path class="cls-7" d="M186.76,390.51c0,34.25-5.2,68.02-30.3,68.02-25.11,0-45.19-19.84-56.11-67.92-7.59-33.4,15.85-62.12,40.96-62.12,25.11,0,45.46,27.76,45.46,62.01Z"/>
          <g>
            <path class="cls-7" d="M153.75,405.51c2.16,3.01-2.98-24.69-6.45-31.64-2.09-3.75-11.04-19.05-21.74-16.69-8.95,1.97-13.82,15.15-15.35,19.76"/>
            <path class="cls-9" d="M154.02,407.73c-.65,0-1.35-.3-1.9-1.06l3.25-2.33c-.25-.35-.97-.75-1.79-.55-.89.21-1.28.95-1.33,1.27.37-2.41-3.75-24.31-6.74-30.29-2.29-4.1-10.61-17.6-19.52-15.63-5.33,1.17-10.39,7.9-13.88,18.44l-3.8-1.26c2.32-7,7.59-19.05,16.81-21.09,11.28-2.49,20.49,11.53,23.91,17.67,2.29,4.58,4.61,15.45,5.26,18.67,2.96,14.56,1.96,15.17.81,15.87-.31.19-.69.3-1.09.3Z"/>
          </g>
          <g>
            <path class="cls-7" d="M130.22,384.72c2.41-9.89,7.57-14.41,15.49-13.55"/>
            <path class="cls-9" d="M132.16,385.2l-3.89-.95c3.33-13.67,11.43-15.74,17.65-15.07l-.43,3.98c-4.35-.47-10.46.26-13.33,12.04Z"/>
          </g>
          <path class="cls-7" d="M515.6,398.53c0,34.25,5.2,68.02,30.3,68.02,25.11,0,45.19-19.84,56.11-67.92,7.59-33.4-15.85-62.12-40.96-62.12-25.11,0-45.46,27.76-45.46,62.01Z"/>
          <g>
            <path class="cls-7" d="M548.61,413.52c-2.16,3.01,2.98-24.69,6.45-31.64,2.09-3.75,11.04-19.05,21.74-16.69,8.95,1.97,13.82,15.15,15.35,19.76"/>
            <path class="cls-9" d="M548.34,415.75c-.4,0-.78-.11-1.09-.3-1.16-.7-2.15-1.3.81-15.87.66-3.22,2.97-14.09,5.22-18.59,3.47-6.22,12.65-20.24,23.96-17.75,9.23,2.03,14.5,14.08,16.81,21.09l-3.8,1.26c-3.49-10.54-8.55-17.26-13.88-18.44-8.92-1.96-17.23,11.53-19.56,15.71-2.95,5.9-7.07,27.8-6.7,30.21-.05-.32-.44-1.06-1.33-1.27-.82-.2-1.54.2-1.79.55l3.25,2.33c-.55.76-1.25,1.06-1.9,1.06Z"/>
          </g>
          <g>
            <path class="cls-7" d="M572.14,392.74c-2.41-9.89-7.57-14.41-15.49-13.55"/>
            <path class="cls-9" d="M570.2,393.22c-2.87-11.77-8.98-12.51-13.33-12.04l-.43-3.98c6.21-.67,14.31,1.4,17.65,15.07l-3.89.95Z"/>
          </g>
          <path class="cls-12" d="M353.16,224.35c146.65-52.35,137.61,27.4,181.53,143.99,1.59,4.22,6.85.55,7.71-3.39,36.84-168.38-9.04-317.45-185.06-302.02-185.73-28.91-234.41,152.66-205.9,276.93.8,3.5,4.42,10.53,6.08,6.1,44.81-119.36,39.46-166.74,195.63-121.61Z"/>
          <path class="cls-1" d="M347.63,199.57c-1.33,0-2.55-.89-2.9-2.24-13.93-53.08-10.38-90.39,12.25-128.77.84-1.43,2.68-1.9,4.11-1.06,1.43.84,1.9,2.68,1.06,4.11-21.73,36.85-25.1,72.83-11.62,124.2.42,1.6-.54,3.24-2.14,3.66-.26.07-.51.1-.76.1Z"/>
          <path class="cls-1" d="M483.85,185.42c-.83,0-1.65-.34-2.25-1.01-6.58-7.42-14.04-15.82-23.39-19.6-10.76-4.35-23.15-2.33-34.07-.54-1.63.27-3.18-.84-3.44-2.48-.27-1.64.84-3.18,2.48-3.44,11.12-1.82,24.97-4.07,37.28.9,10.65,4.3,18.61,13.27,25.63,21.18,1.1,1.24.99,3.14-.25,4.24-.57.51-1.28.76-1.99.76Z"/>
          <path class="cls-1" d="M273.89,177.09c-.58,0-1.17-.17-1.69-.52-12.33-8.44-29.01-8.64-41.52-.51-1.39.9-3.25.51-4.15-.88-.9-1.39-.51-3.25.88-4.15,14.52-9.43,33.88-9.2,48.18.59,1.37.94,1.72,2.8.78,4.17-.58.85-1.52,1.31-2.48,1.31Z"/>
          <path class="cls-1" d="M163.68,284.27c-.21,0-.42-.02-.63-.07-1.62-.35-2.65-1.94-2.31-3.56,3.33-15.54,8.75-30.46,16.13-44.35.78-1.46,2.6-2.02,4.06-1.24,1.46.78,2.02,2.59,1.24,4.06-7.12,13.4-12.36,27.8-15.57,42.79-.3,1.41-1.55,2.37-2.93,2.37Z"/>
          <path class="cls-1" d="M204.21,223.05c-.4,0-.8-.08-1.19-.25-1.52-.66-2.22-2.42-1.56-3.94,5.74-13.26,15.39-24.78,27.17-32.43,1.39-.9,3.25-.51,4.15.88.9,1.39.51,3.25-.88,4.15-10.8,7.01-19.65,17.59-24.93,29.78-.49,1.13-1.59,1.81-2.75,1.81Z"/>
          <path class="cls-1" d="M185.31,214.87c-.35,0-.7-.06-1.04-.19-1.55-.57-2.35-2.3-1.78-3.85,7.09-19.21,17.86-37.35,31.14-52.46,1.09-1.24,2.99-1.37,4.23-.27,1.24,1.09,1.37,2.99.27,4.23-12.8,14.57-23.18,32.06-30.02,50.58-.45,1.21-1.59,1.96-2.81,1.96Z"/>
          <path class="cls-1" d="M396.54,192.68c-1.01,0-2-.51-2.56-1.43-.87-1.41-.42-3.26.99-4.13,14.53-8.9,33.19-10.2,48.71-3.4,1.52.67,2.21,2.43,1.54,3.95-.66,1.52-2.43,2.21-3.95,1.54-13.75-6.03-30.29-4.87-43.17,3.02-.49.3-1.03.44-1.56.44Z"/>
          <path class="cls-1" d="M548.38,319.06c-1.37,0-2.6-.94-2.92-2.33-7.02-30.43-20.14-59.75-37.93-84.81-.96-1.35-.64-3.22.71-4.18,1.35-.96,3.22-.64,4.18.71,18.24,25.69,31.68,55.75,38.88,86.94.37,1.61-.63,3.23-2.25,3.6-.23.05-.45.08-.68.08Z"/>
          <g>
            <path class="cls-7" d="M399.52,540.87c-5.51,2.57-30.19,13.39-60.6,5.54-32.52-8.39-47.48-31.9-50.21-36.4"/>
            <path class="cls-9" d="M361.13,551.32c-7.06,0-14.7-.81-22.73-2.88-31.65-8.17-47.4-30.64-51.48-37.33l3.57-2.18c3.87,6.35,18.83,27.69,48.95,35.46,27.67,7.14,50.62-1.4,59.2-5.41l1.77,3.79c-6.5,3.03-20.87,8.55-39.28,8.55Z"/>
          </g>
        </g>
        <g>
          <path class="cls-7" d="M628.04,1004.24l72.23-227.39c-97.6-22.44-197.34-54.29-244.7-82.38l-230.49,1.45c-26.11,4.59-149.71,49.52-245.24,55.63l59.76,319.24,6.4,334.49,633.49,11.91-51.46-412.94Z"/>
          <g class="cls-10">
            <path class="cls-2" d="M584.43,741.07c-142.04,196.4-253.28,206.37-474.24-13.74-46.76-6.67-137.14.93-171.82,57.15-67.62,109.59-47.88,390.22,13,643.76h838.01s-24.45-586.85-24.45-586.85c-.79-58.99-70.37-82.81-164.77-91.28"/>
          </g>
        </g>
        <path class="cls-2" d="M-44.85,760.19c-30.07,12.55-51.84,110.94-54.07,153.3-.68,12.84-22.85,416.42-22.85,416.42-2.47,44.88,24.6,82.64,57.93,80.82l106.33-5.8c31.88-1.74,56.2-39.12,53.34-81.99l-25-375.34,39.9-219.71c-63.51,20.74-108.68,12.72-155.59,32.3Z"/>
        <path class="cls-2" d="M739.25,773.06c30.07,12.55,51.84,110.94,54.07,153.3.68,12.84,22.85,416.42,22.85,416.42,2.47,44.88-24.6,82.64-57.93,80.82l-106.33-5.8c-31.88-1.74-56.2-39.12-53.34-81.99l25-375.34-42.84-214.3c63.51,20.74,111.62,7.31,158.54,26.9Z"/>
        <path class="cls-8" d="M370.85,934.22c-88.21,0-184.24-64.78-292.88-198.31l2.71-.63c112.24,137.96,210.18,201.02,300.24,195.83,79.85-4.6,153.15-61.43,227.54-178.04l3.11.9c-74.91,117.43-149.67,175.3-230.48,179.95-3.4.2-6.81.29-10.24.29Z"/>
        <path class="cls-8" d="M65.66,1186.5l-3-.1c1.35-42.22-2.84-89.06-12.8-143.19l2.95-.54c10,54.35,14.2,101.39,12.84,143.83Z"/>
        <path class="cls-8" d="M31.26,847.24c-7-30.91-26.96-58.15-52.09-71.09l1.37-2.67c26.29,13.54,46.35,40.86,53.65,73.09l-2.93.66Z"/>
        <path class="cls-8" d="M629,1212.62c-1.36-42.43,2.84-89.48,12.84-143.83l2.95.54c-9.96,54.14-14.14,100.98-12.79,143.19l-3,.1Z"/>
      </g>
    </g>
  </g>
</svg>