<?xml version="1.0" encoding="UTF-8"?>
<svg id="Layer_2" data-name="Layer 2" xmlns="http://www.w3.org/2000/svg" viewBox="0 0 729.32 106.89">
  <defs>
    <style>
      .cls-1 {
        fill: #232222;
      }
    </style>
  </defs>
  <g id="Layer_1-2" data-name="Layer 1">
    <g>
      <path class="cls-1" d="M61.42,15.96l-.74.94.21.84-.42.73-.74-.63h-.52l-.42-.31-.42.1.31.94-.21.42-.63.1-.21-.31.11-.52-.74-.52-.84.31-.32.94h-.52l-.63.63-.53-.94-2.42,1.36-2.31-1.05h-.42l-.11-.21-.73-.31-.84.31-.84-.1-.21.31-.1.84-.42-.21-.32-.84-.31-.31-1.37.1-.1.84-.42.31-.74-.94h-.63l-.95.63-.42-.21.63-.63v-.52l.63-.52.84-.31.21-1.47-.21-.42-.84-.52-.1-.52h-1.05l-.21.73.94.52.21.31-.31.73-.42.21-.53-.1-.1-.42.21-.42-.21-.31-1.26-.31v.84l-.63.42-1.68-.42-.63.52-.84.21-.11,1.16-.94-.1-.42.21-.42-1.68-.74.42-.42,1.58h-.53l-.63-.31-.42-.52-.21.31.21.63,1.16.52h1.26l.63.63.11.42.84.42.31.73-.31.73-.53.21.21.31,1.16-.42.52.42-.1.73.42,1.16-.32.84.11.73h.84l.32.42-.53.63,1.47.21v.52l-.94,1.26.21.63.94.1.74.42-.21,1.26.1.73-1.05.42-.42-.1-.52.63,1.05.31,1.15-.42-.21.73-.63.42v.63l.53-.1.73.21.32.52-1.47.63-.21.31.84.42-.63.52-1.16.32.21.84,1.47-.52.32.1-.11.52-1.36.63.42.84v.42l-.32.42.11.52-.32.63v.73l.21.42v.73l-.31-.21-1.58-.21-.11-.31-1.15-.73-.42-.73-.42.21.73.94v.42l-.21.21v.42l.32.21,1.26.1.21.31.21,1.26.53.42-.74.73.1.42.42.42,1.26-.21.31.21-.42,1.15h1.26l.21.31-1.36.84-1.05-.52-1.68.42.63,1.16-.1.84-.42-.42-.95.1-.31-.31-.63.52-1.37-.52v-.63l-.32-.31-.73-.1-1.05-.63-.21.31.42.95.52.42-.63.1-.84.84.1.73-.21.31-1.47-.73-2,.52-.31.31.73.42.74-.52.74.21.52.63-.1.42-1.05.21.1.52.42.21h1.47l.21-.31v-.52l1.05-.95,1.15,1.37.32-.21.63-1.16h.52l.32-.42v-.94l.32-.21h.73l.63.52.95-.63.84.42-.42,1.05.1.42-1.05.63-.73-.21v-.42l.52-1.05-.73.31-.11.84-.63.52.53,1.26-.42.84.31.84,1.26-.53.32.31-.11.42-.73.52.1.42.63.52v1.58l-.73.84-.42.1-.11-.42.21-.84-.1-.42h-.53l-.84-.31-.42.31.74.74-.32.52h-.84l-.32.21v.52l1.47,1.99-1.16.74-1.05-.74-.84.42-.53.73.53,1.26,1.36.21-.21-.42-.84-.31.32-.84h.94l.42.73-.1.52.73.52.21.42-2.31.1-.63.53-.84-.21-.53-.63-.52.1-.32.53.21.42.84.42.21.31-.1.31-1.05.52.42.84v.84l1.26-2.62,1.05-.52.95-.1.21.73-.53,1.05.11.52-.32,1.16.21.31-.94,1.05.21.94-.21.32-.74-.42-.63.31.31-1.57-.42.1-1.36-.42-.74-.73-.31,1.26h1.05l.31.31.42,1.68h.53l.31.21v.84l-.21.21.63.73-.1.31-.74-.1-.42.31v.31l.63,1.05-.21.31-.73.42-.74,2.1-1.47.94-.63,1.05-.63.52-.74.1-.42-.21-.31.31.1.42-2,.94-.94,1.05-.84.1-1.68-.42-.73.21-.84-.1-1.36-.52-1.68-.21-1.37-.94.63-1.16.74-.1.21-.31.1-2.62-.21-.73.42-.63.74-.31-.42-1.15-.42-.53v-.52l.52-1.47.63-.63-.1-.63.21-.84-.21-1.36.31-1.58.53-.21.84-1.05-1.26-.1-.32-.31.74-1.37-.11-1.47.42-1.15-.1-1.37-.32-.84.84-2.21.53-.1.32-.31-.32-.73.53-1.05-.63-.84.84-.84-.11-.52.32-.84.52.1.42-.52-1.26-1.79.42-.94.74-.21.31-1.68.32-.21-.53-2.2.84-.84.32-.73-.1-.84-.84.21-.21-.42.32-.74.95-.1-.32-.73-.53-.52v-1.57l.21-.31.74.21.21.31-.52.84.21.31.63-.31-.11-.73.53-.73-.74-.74.11-.52.31-.21.42.1.53.63.31-.31.11-.84-.42-.84-.42-.31h-.32l-.63.73-.42-.31.63-2.31.74-.21.1-.94.42-.63-.1-.84-.84.52-.21-.31.31-1.15-.1-.63.63-1.16h.42l1.05-.73v-.73l-1.16.21-.21-.42.21-.73.74.1.42-.52-.74-.95-.21-1.57.53-.63-.32-2-.31-.73.42-.84v-.42h-.74l-.42-.21-.63.32-.31.84-.74.42-.74-.31-.42-.84-.94.63-.53.1-.31-.84-.32-.32-1.16.21-.31.63-.32.1-.42-.52-1.26-.74-.32-.84-.52-.52-.42.31.31.94-.52.1-1.37-.94h-.42l-.21-.63-.95-.42-2.42.31-.63-.63-1.68.21-.31-.21.21-.74-.21-.42h-.84l-.73-.94-.74-1.47-.1-.84-.74-.63.42-.94-.42-2,.11-1.78.42-1.58,1.57-1.15.84-.21,1.68.31,1.58-.42,1.78.42.84-.31,1.79.63.63-.42,3.04.21,1.47.42.11.73.31.21.21-.94.73-.31,1.58.63.31-.21.84-.1.63.31h.63l-.21.42h-.32l.42.42.63-.42.42-.73.42.1.74.73,1.68-.52,1.79.31.74-.31,2.42.31.42-.21.21.42,1.05.63.73-.42.53-.63,1.16.1.42-.21,1.68.31,1.58.74.52-.63,1.16.31h1.26l.32-.31,1.05.1.31-.21,1.79.21.63-.42.32.21,3.04.42.63-.42,2.1.1,1.58.63.1.31,2.21-.21.74.52,1.68-.31,1.58.63,1.26-.31-.53,1.05.74,1.47.11,1.05-.21.73.94.1.32.31-.32,1.79.21.84.32.31v.63ZM17.22,46.09l.42.52-.84-.42.1-.31.32.21ZM17.85,19.63l-.21-.1-.32.42.53.1v-.42ZM18.48,49.77l-.42.1-.42-.21.21-.52.31-.21.42.52-.1.31ZM21,17.95l-.73-.21v.42l.73.21v-.42ZM21,64.26l-.31-.32v.53l.31-.21ZM21.31,44.31v-.42l-.42.53.42-.1ZM22.89,42.52l.32-.21.42-.73.11-.94h1.26l.42-1.37-.32-.31-1.36-.21.1-.42-.52-1.16-.63.21.32.84-.11.52.84.1.21.84-.53.52-1.05,2,.1.42.42-.1ZM23.41,45.04l.95.63v-.42l-.95-.63v.42ZM25.09,59.43l.11-.52-1.26-.73.1.31.63.31-.31.84.63.1.1-.31ZM24.99,42.94v-.31l.52-.63.84.31.21-.73-.11-.42-2,.73-.21.31.32.31v.84l.52.21.11-.31-.21-.31ZM25.62,43.57l-.42.1.21.21.21-.31ZM25.41,70.56l-.11.42.32.31.63-.53.32-.84,1.15-.42-.21-.31-.84.1-.74,1.05-.52.21ZM27.61,49.77l.1-.84-.31-.31h-.42l-.95-.52-.21.31.53.52-.63.84-.1.42.42.21,1.26-.42.32-.21ZM25.72,40.32l.21.42.42.21,1.36-1.37.32-.73h-1.26l-.63-.21.63.94-.95.52-.11.21ZM27.51,59.85l.32.84-.74.74-.52.1-.32-.95-.53.84.32.31,1.47.63-.31.63,1.78.42.74-.31.21-.31v-.63l.74-.31.1-.73-1.05.52-.42-1.26.95-.31.52.31v-.42l-1.05-.73.53-1.05-.21-.42-.84.21-.84-.1-1.68.42-.31-.21-.63.1.84.94h.63l.31.21v.52ZM26.14,54.81h.42l-.11-.31-.32-.1v.42ZM26.14,56.49v.42h1.58v-.94l.21-.31-.73.42h-.74l-.32.42ZM27.3,66.04v-1.26l-.52-.21-.32.31.42,1.26.42-.1ZM27.82,35.38l-.95.21.63,1.47.74-1.05v-.52l-.42-.1ZM29.29,47.56l.63-.95-.21-.31-.53.1-1.36-.31-.32.21.95,1.58h.73l.11-.31ZM28.14,45.36l-.1-.21-.42.31.31.42.21-.52ZM27.72,62.37l.53-.63h.52l.74.52-.21.31h-1.37l-.21-.21ZM28.87,59.01l-.53.52-.31-.31.1-.31.63-.42.11.52ZM28.66,81.27l-.21.42-.42-.1.1-.42.53.1ZM29.08,50.19l-.84.1.73.42.11-.52ZM28.98,44.73l.42.1-.1-.31-.32-.1v.31ZM30.66,44.31l-.11.31-1.26.52.1.52.74.42.74-.31.21-.42.73.1v1.68l1.05-.21.21-1.05h-.84l-.31-1.26-.42-.52-.53-.11-.31.32ZM29.71,80.01l.11.42-.42-.21.32-.21ZM29.61,72.76l.32-.21v-.21h-.42l.1.42ZM30.55,42.21l-.21-.31h-.31l-.21.31.42.31.31-.31ZM29.92,56.7l.95.52.1.84.42-.1.21-.31v-.53l-.31-.73h-.42l-.63-.31-.32.1v.52ZM30.66,53.02l-.11-.31.32-.63.73-.1.53.63-1.05.73-.42-.31ZM33.49,14.59l-.21-.73h-.42l-.31.31-.21.84h.95l.21-.42ZM32.44,59.01l.42.21.84-.52.52-.1v-.42l-.31-.31h-1.16l-.42.63.1.52ZM33.49,65.41l.73.42-.52.21-.42-.21.21-.42ZM34.23,61.84l.21.84-.21.31-.73-.31-.11-.84h.84ZM35.38,64.15l-.21.32-.21-.21.1-.32.32.21ZM35.17,19.53l.42-.63.73.21-.52.73-.53.1-.1-.42ZM36.43,14.59l-.11-.52-.84.1-.1.42.31.31.53.1.21-.42ZM36.33,58.8l.21.42h-.53l-.11-.31.42-.1ZM37.06,17.22l.53.31-.42.52-.63-.63.52-.21ZM37.06,53.65h.74l-.21.53-.42.1-.32-.32.21-.31ZM37.17,44.73l.31-.31.84-.1.32.31-.32.52-.73-.31-.32.21-.1-.31ZM37.8,50.71l.1.32h-.52v-.42l.42.1ZM38.64,19.53l-.42.1-.11-.42.53-.1v.42ZM38.74,46.41l-.21.1v-.31l.21.21ZM39.37,17.74l-.1.31h-.42l-.11-.42.21-.74.53.1.21.42.42-.21.32.31v.42l-.53-.1-.21-.31-.32.21ZM39.37,20.89l-.21-.31h.53l.21.42-.53-.1ZM40.11,21.21l-.1-.31.42.31h-.32ZM40,32.44l.31-.52.32.21-.11.52-.42.21-.1-.42ZM44.41,17.53l.84-.21v-.74l-.42-.21-.31.1-.42.74.31.31ZM44.83,20.79h.11l-.11.1v-.1ZM45.57,10.39l-.32.11.32.1v-.21ZM47.77,16.8l-.32.1-.42.63.32-.1.42.52.21-.63-.21-.53ZM49.24,15.96l-.21.52.84.31-.11-.63-.52-.21ZM50.19,17.32l.42.1-.21-.42-.42-.21-.11.42.32.1ZM51.45,19.11l.94.1-.1-.42-.32-.1-.73.21.21.21ZM57.33,16.27l-.32-.1v.31l.32.1v-.31ZM57.96,16.38l-.21.31h.52l-.31-.31ZM59.74,16.59l.21-.42-.42-.1-.42.21.11.42.52-.1ZM59.74,19.95l-.31.21-.21-.21h.52ZM62.16,7.56l.11.31-1.16,1.89-.73-.42.1-.31.63-.42.32-1.15.63-.31.1.42Z"/>
      <path class="cls-1" d="M95.55,49.14l.11.42-1.58-.21-.21,1.68-.63.31-.21.31v1.26l-.32.31-.42-.42-.52-.1-.42.21.63,1.58-.42.1-.84-.63-.84.32.74,1.47-1.37.1-.21.73-.84.42-.52,1.68-.84.42v.73l-1.26.42v.84l-.84.94-.21.94-.42.21-.74,1.05-.63.42-.52,1.15-1.58.63-.53.52.21,1.89-.31.21-1.37.1.11.94-1.47,1.05v.94l-1.68,1.68h-1.05l-1.16,1.58-.84.1-.1.94-.32.21-.84-.52-.63.63-.1.73.21.74-.32.31-.42-.21h-.84l-.53.63.11.31-.21.31-1.58.73-1.26,1.16.1.84-.21.31-.52-.1-1.05.31-.32-.21h-.84l-.74.52.32.73-.11.31-1.68-.21-.53.21-.63-.52-.73-.1-.42.21-1.37-.31-.32-.31-.21-.73-1.47-.94v-.63l-.84-.73v-.42l-1.58-2.21-.73-.42-.11-.94-.52-1.47v-1.05l.52-.31.32-.52-.21-.31-.74-.42-.21-.31.32-1.05-.74-.31-.21-.52.53-1.26.21-1.37.31.42.21-.21.11-.73.42.1,1.47-.73-.11-.42-.42-.31-1.26.42-.21-.31.63-2.52-.52-.63.21-.31.73-.31.21-.31-.1-.31.73-1.47-.1-.94.21-.73,1.26-2.31-.1-.73-.42-.63,1.36-1.58.32-.84v-.94l.52-.84.21-3.25,1.05-1.36.1-.42.53-.52.42-1.79.94-.84-.1-.42.21-.95.63-.42,2.42-.1.84-.31,1.47.63h2.1l1.15.63-.42.73.21.31,1.47.52-.52.63.42.63,1.05.53-.21.42.21.73.63.52-.42.73-.31.1v1.68l.42.63-.21.31h-1.26l-.73.42.94.84v.42l1.05,1.57-.74.21.63.73-1.16,3.25-.1.84-.21.21.42,1.15-.32,1.05.21.74.63.52-.1.52-1.47.42.1.84-.21.63-.31.31.52.74.84-.1.32.21-.11.31-1.05.31.63.94v.42l-.42.1-.63.53-.1.52-1.16.94-.11.63-.52.52.52,1.05-.21.73-.42.31.53.42.74-.21.21.42-.42.73.31.63h1.05l.32.73,1.79-.95,1.15-1.15,1.37-.94.63-.73.84.31.21-.31.21-1.37,1.16-.42.42-1.57.42-.63,1.37-1.05,1.15-1.26,1.58-2.42.74.1.21-.21.1-.73.21-.1.21-.63,2.52-2.94.1-.42.42-.21.11-.52,1.26-.84.11-.84.42-.73,1.15-.95.95-1.36.52-1.37h.74l.53-1.26.31-.1.53.21v-.94l1.58-1.37.42-.73.42.21.31,2.1.42.31ZM58.28,74.34l-.31-.21-.11.42.42-.21ZM75.81,18.27l-.84.21.11.42.63.31.63-.52.42-.1.42.21.11.52-.21.42-.63-.1-.42.31-.1.74.21.42.63.52.31-.1.21-.94.42-.21,1.05.32.52.63.32.84v.84l-.21.42-.95.21-.31.74.42,1.15-1.37.94.63,1.05-.1.42-.42.42-.11.52-.32.31.32,1.15-.74.21-.73,1.37-1.37-.1-1.79.84-.21.73-.52.63-1.26-.84-.74.21-.95-.31-.52-.73-.95-.84-1.47-.31-.32-.31.21-.32-.1-.31-.84.21v-.31l-1.26-.94-.31-.73-.74-.31-.31-.84-1.58-1.47-.1-.73-.42-.1-.63-.52-.63-1.58,1.68-1.36.73-1.79.95-.73,1.15-1.26h.53l1.37-.84.42.21,1.26-.31,2-1.05,1.89.63.84-.31.32.21,1.47.21,1.47.74.84.1.32.73-.32.21ZM64.05,76.65l-.42-.52-.42-.1-.1.42.31.63h.74l-.1-.42ZM65.62,75.49h.53l-.21-.31h-.53l.21.31ZM67.62,21.42l-.21-.1.21.42v-.31ZM78.43,29.19l-.42-.31.21-.31.32.21-.11.42ZM82.63,65.94l.1-.42.42-.21.21.31-.1.42-.53.21-.1-.31ZM92.5,52.18l-.1-.42-.32-.1-.21.31.11.31.52-.1Z"/>
      <path class="cls-1" d="M143.43,49.24l-.32,1.36h-.52l-1.26.95v.42l-1.47.1-.84.52-.31-.31v.52l.31.1-.21.31h-.74l-1.15.42.21,1.16-.84.1-1.68-.42v.31l.32.21-.42.63h-1.16l-1.68.84-.32.63-1.57-.42-1.26.52-.11.84-.42.21-1.05-.31-2.62,2.1h-.53l-.63.52.53.74-1.05,1.05v.63l-.63,1.05.31.84-1.37.63v.31l1.05.1-.21.42-.63.31v.95l-1.05.42-.73,1.26-1.47.21-.31.73-.53.52h-.42l-.21,1.16-1.15-.1-.32.21v.73l-.32.31h-1.78l-.32.21-.52.95-.53-.11-.84.95-1.37-.21-1.26.73-.74-.63-.1-.73-.74-.11-.21.42.42.84-.31.21-1.68.1-.53.52-1.68.1-.21.42-.63.42h-1.68l-1.15.63-.21.31.31.31.95.21-1.79.94.11.42-.53,1.05,1.05,2.31-.95,1.05.74.73-.74.31h-.94l-.32.21-.1.42.21.42.84.21.1.95-1.05,1.68-.52,1.57.52.84-.31.52-.84.31.21.94-.32.63.11.53-1.16,1.05-.42-.1-.74.21-.21.42,1.16.63.31-.31h.63l-.21.42-.53.21v.95l-.53.31-.73-.21-.42.31v.42l.52.73-1.05,1.15-.63,1.47-.84.63-.74.21-.84.84h-.63l-1.16,1.16-.1.52-.95.31-1.26-.52-.95.84-.73-.31-1.16.84-2.42-1.57-.42-.84.32-.1.84-1.57-.11-.42-1.36-1.05-.42-.63v-.73l.73-.73-.1-.73.31-.95-.21-1.26.42-1.47h.84l.21-.21-.1-.32-.74-.31-.1-.42.31-1.68.42-.63-.42-1.37.32-.21.63.52.32-.94-.53-2,.21-.42-.32-1.15-.1-2,.31-1.47-.21-.52.74-.42.84-1.16-.21-.73h-.95v-.42l.53-.63-.42-.63,2.1-2.94-.94-.63.1-.42-.21-1.05,1.05-2.52-.1-1.78.31-.63.63-.32.42-1.26-.21-.42-.63-.52.11-.42.63-.52v-2l.63-1.05.32-1.79,1.15-.31.32-.73-.84-.21-.32-.42.42-2.31.53-1.15-.32-.74,1.16-2.52-.11-.84,1.58-1.78-.21-.42-1.47.73-.11-.42.84-1.47v-1.26l.31-.94.11-2,.42-.73.73-.1v-.52l-.52-.63-.11-1.05-.31-.63.52-1.05-.1-.95.94-.94-.21-.31v-1.57l.42-.63v-.63l.74-.94.74-.42.94-.21.53-.52.73-.32,1.79-.21,1.05.53,1.05-.1.53.31-.1.42.94.73.74-.21.42.1-.11.84-.73,1.37.21.31.84.1.21.31v1.05l1.05.84v.53l1.16,1.15-.74.94.11.84-.32,1.26-1.05,1.36.31.1,1.16-.21.32.42.52,1.58-.21.31-.73.31-.53.63.32.31,1.36-.52,1.37-1.26.21-.74.74-.63.42-.1.73-.84.53.1,1.16-.63.52-.94.53.31.63-.74h.42l.74.42.52-.42.42.1.74-.73,1.79.52.21.42.94-.32.42.42.74-1.37h.52l.84,1.58.73.52.74-.94.42.1.31.73.63.42-.21.94,2.1,1.58-1.16.73.11.42.84.42v.42l.31.21.95.1-.53,1.05.21.42-.31.84.73-.42.42.21.1.42-.63.31-.32.42.32.21,1.37-.31-1.68,1.47-.1.31.84.1v.42l-.32.63v.94l.32.63.84.42.42.94h1.16l.1-.73.42-.21.84.63,1.68-1.26.94-.1.53-.63,1.37.1.73-.21.74-.94.95-.21,1.36-1.05.84.21,1.05-.74.84-.1,1.26-1.05.95-.42.94.31.42-.42.32.31ZM80.33,95.76v-.52l-.42.1v.31l.42.1ZM80.33,87.15h.1l-.1.1v-.1ZM82.84,98.38l.32.21.31-.42-.52-.31-.32.21.21.31ZM97.44,90.4l-.32.1v-.42l.42-.1-.1.42ZM99.43,80.64h-.42l.1-.42.42-.1-.1.52ZM112.45,63.1l-1.16,1.05-.84-.21-.95.1-1.15.74-.74-.42.1.73-1.05.63-1.36.21-.74.31-.42-.21-.84.1-1.79,1.79-.1.94-.63.21-1.15,1.36.1.42-.31.74.52.84-.1,1.26.31.21.95-.42,1.68.52,1.79.1.74-.52.52.1,1.58-1.78,1.37-.84.52.1,1.26-1.26.11-.52.52-.31.53-1.05,1.26-.63-.52-1.05,1.05-1.36.21-.84-.32-.94h-.31l-.63-.1ZM112.98,47.04l-.42-.31-.63-.1v.74l-1.58-.63v1.16l-.84-.21-.52.52-1.16-.42-.21,1.05-.63-.42-.63.1-.21,1.15-.95-.31-.1,1.26-1.16.21-.21.31.21,1.05h-.95l-.31,1.05.21.73-.42,1.16.42.73-.21.42.31.94-.84,2,.32.63-.21.42-.95.1v.53l.42.31.11.31-.95.42-.11.42.42.1.53-.21.32.21.1.73-.31.21-1.16-.21.52,1.79.32.21.84.1,1.05-1.16.53.11,1.89-.84,1.16.21.1-.42-.31-.52.42-.42,1.05.21.32.31.31-.1.32-.73.84.1.52.42,1.47-.94.84-.31.21-.74-.11-.31,1.16-.1.52-.31.74.1v-.94l.42-.21.53-.63.1-.84-.21-.73.63-.52-.31-.31-.42-1.47v-1.26l.63-.63-.84-.31.52-.73-.84-.31.11-.42-1.79-2.83-.53-.1-.42-.53Z"/>
      <path class="cls-1" d="M199.81,47.98h1.05v1.26l.21.31-.11.73-.94,1.16v.42l-.53.42-.31.73.52.94-.31.11-1.26-.32.63,1.26.1.94-.84.31-1.16,2.83.53.73-.32.31-.84.31-.1.42-.32.21.32.31-1.58,3.04-.53.42-.84,2.41-1.05-.1-.31.42.73.52-.42.84-.63.63v.94l-.74.21-.42.42v.94l-.73.21-.32.31-.94,2.52v.84l-.84.31.11.73-.42.63-.84.42-.11.84-1.47.52.42.84-.52.31.21,1.47-.32.31-.95.1-.42.84-.63.42-.42,2.52-.73.31-.53.52-.11.53-1.15.63-1.47,1.89-.63.42v1.47l-1.05-.52-.42.31.32.52-.42.84-.63.31-1.26,1.26-1.26.94-1.26,1.26-.84-.31-.74.31-.52.52-.95-.31-.42-.73-.74,1.68-.84-.1-.42-.74-1.15.31-1.58-.31-.42-.31-.84-.1-.32-.31-.1-.73.21-.84h.42l.1-.52-.21-.42h-.63l-.95,1.89-.73-1.26.31-.31.84-.21.32-1.05h.42l.53-.42-.11-.42-1.37-.52-.52.52.31,1.26-.31.31-.95-.21-.31-.73.31-.73-.1-.42-.63-.1-.11-.52.84-.84.11-.31-.42-.1-.53.52-.95-.21-.31-.31v-.31l.95-.94.1-1.05-.95-1.36.53-.94-.1-.21-.74-.1.63-.74-.11-3.25-.31-.63.74-2.41-.11-2.42.95-2.31.1-.94.84-.42-.52-.84.84-1.05-.21-1.78.73-1.05.32-.94-.21-1.57.31-.31.84-.32-.32-.84.84-.84.95-1.47.63-.21-.21-.42-1.16.1-.31-.21.1-.31.63-.42-.21-1.26.42-1.79.95.73-.42.63h.31l.42-.32-.11-.42.84-1.26-.73-.21-.53-.52.31-1.37.63-.42.1-.31-.63-.84,1.05-2.42-.63-.94.32-.31,1.05-.31-.32-.63h-.94l-.74.42v.84l-.32.63.32.73-.95,1.16-.21.84-.84.42-1.05,1.26h-.63l-.11.42-.52.63.21.42.63.52.31.63-.1.31-.63.52-.21.63h-.95l-.63.63-.52-.52-.42.21-.1.84.42.73-1.26.52-.42,1.68-1.16.84v.42l-.84.73-.95-.1-.31.31.21.42.94-.1-.21.73-.73.31-.53.52.32.73v.52l-.84.21-.11,1.26-.42.73-.74.42h-.94l.31.31.42-.1.32.42v.42l-.53.63-.94.21-.11,1.47,1.05.84-1.05.63-.42.63-.52,1.57-.11-.21-1.58,1.16.32.63.74-.31.42.1.31.52-1.79,1.99.21.42,1.37.42-.63.73-1.05-.52-.21.1.1.94-.31.63h-1.26l-.21.31.21.95-.95.63-.63-.84-.42-.1-1.58.21v-1.26l-.21-.1-1.68.63-2.31-1.68-.73.1-.84.42-.53-.1.21-1.36-.21-.31-.95.42-.31-.74.21-.94.32-.21-.11-.52-.32-.21-1.05.31-.63-1.68-.42-.63-.1-1.57.31-.63-.1-.74.73-1.15-.21-.63.42-.42-.31-.84.1-.52.84-.42.21-1.05-.84-.52v-.52l.74-.95-.21-.42.1-.73.32-.31-.21-.42-.11-1.26.74-1.47-.21-.73.74-1.47-.32-.94v-1.15l.53-.63.31-.84.63-.42v-.42h-.73l-.21-.31.1-.94.74.42.63-.42-1.16-2,.11-.73.63-.73-.21-1.05.63-.21.21-.42h-.63l-.32-.21v-.52l.42-.73v-.42l.63-1.05-.42-.63.74-1.47v-.53l.84-.1.32-.42-.21-.73-.84.21-.31-.1.1-.42.63-.52-.21-.73.21-.84-.21-.73.32-.63v-1.58l.32-.31.1-.73.63-.63-.1-.42.31-1.16-.21-.84.21-.31.63-.31-.31-.42.1-.73.42-.63-.21-.73v-1.57l.63-.94.11-.84.74-.21-.32-.21-.42.1-.21-.42v-3.04l-.21-.73.52-.63,1.68.1.42-.21-.74-.31-.31-.74.21-.52-1.05-.52-.21-.42.84-.94-.11-.84.32-.31-.63-.84.53-.73.11-.73-.21-.42.21-.63-.32-1.15.42-.84v-.74l.63.11.95-1.05-.32-.1-.73.31-.32-.31-.21-.73.53-.63.63-1.26-.84-.52.21-.52.94-.84-.42-1.05-.1-.84,1.05-2.41h1.37l1.47-.53,1.26.21.74-.1.73.53h.53l.73.73.74.21,2.1,1.26v.73l.21.32.42.1.74,1.47.53.63v.84l.31.74.95,1.26.84.21-1.05,1.15-.32.63.11.42.73-.1.32,1.05,1.47,2-.1.52.63,1.15-.84.94.42,1.68-.32.84h-1.05l.21.73.63.32v1.26l-.21.73h-1.47l-.21.21.1.42.84.63-.52.95v.42l.84.1-.42,2.1-.32.31.53.63.21.63-.63.63v.94l-.21.32.21.31.73.31-.1.52.63,1.47-.21.31-.84.42-.53,2.2h.63l.32.31-.74.95-1.15,2.94.52.84-.1.42-.74.1.11.84-.53.63.21.31.74.1v1.68l-.63,3.36-.42.63-.11,1.47-.74.42.21.42.74.42-.1.42-.42.31v1.37l.21.21,1.36.31.21-1.37,1.26-.52.21-1.05.95-.1.11-.73,1.05-1.37.63-.52.31-.84.63.21.42-1.47,1.36-.52.32-.31-.11-.84,1.16-.42.32-.73.84-.42h.52l-.31-.73.31-.52.74.31.73-.21.21-.31-.21-1.26,1.05-.31.1-.74.95-.73,1.47-.73h.84l.63-.52h1.05l.32.31h1.37l.84-.31,1.36.84-.42.94.21.21h1.79l.74.52-.21.42-.63.31-.21.42.31,1.99-.1.74.21.84-.74.1-1.05.63.53.73.73-.21.42.1-.21.42-.63.21-.21.32.32.73h1.15l.53.52-.42.73-.74.63-.42,1.16.11.73.31.31.21,1.26-1.47.42.1.63-.42.31v.42l.63,1.47-1.26.52.21.95.74,1.47-.74.42-.52.74-.21.84-1.16.52-.63,1.15h-1.16v.31l.32.31h1.68l.74-.21-.21,1.16.52.52.32.73-.95.42-.52,2.21.84.84-.95,1.37-.42.21-.42.52.21.63-.21.42.1,1.15-.73.84.42.73v1.78l-.21.32-.84.31.42.73-.74.63.21.31.74-.1.1.42-.73.84-.74-.32-.1.53.31.73-.73,1.47-.11.84,1.05-.84.32.63-.21.42-.63.52v.63l-1.05.52v.42l.21.21,1.05-.31.31.21-.1.31-1.05.31v.42l.42.52-.21.42-.63.52v.42l.95-.1.32.21-.32.73-.63.42.74.32-.21.94-.42-.21-.42.1-.1.52.32.31,1.26.31.31-.1.63-1.26h.74l.31-.21.21-1.16.52-.42h.42l2.1-2.2v-.74l1.16-.73.21-.94.95-.63.42-.74,1.16-.31.1-.52.95-1.15-.74-.63.21-.42.84-.21-.1-.73,1.05-.94.1-.52.53-.73.11-.95.63-.63.42-1.26.52-.42.95-1.47-.11-.42.21-.31.11.1.1-.94.53-.1.21-1.58.53-.63.21-.84.84-.84.94-1.47.63-.42v-1.79l.73-1.05.63-1.57,1.26-.95v-.42l.42-.63v-.42l1.37-2.83v-.42l1.58-2.62-.11-.63.32-.73,1.05-1.16-.1-.84.21-.42.73-.63.32-.52ZM144.16,50.61l.32-.1.21-.63-.53-.1-.63.52.21.42.42-.1ZM144.9,53.65h.84l-.42-.73-.63.1-.21.52.42.1ZM146.79,60.27l-.21-.1v.1h.21ZM147.1,50.19l.42.31.21-.31.11-1.36-.42-.31h-.52l.42,1.26-.21.42ZM148.36,52.71l.11-.52-.32-.31h-.31l-.32.31.21.73-.21.73.32-.1.1-.52.42-.31ZM153.82,55.96l.31-.1.11-.31-.42-.1-.32.42.32.1ZM157.39,16.17h.32l-.21-.21-.11.21ZM159.07,56.59l-.32.1.32.31v-.42ZM160.65,52.29l.42.1.32-.42-.32-.42-.42.1-.21.31.21.31ZM162.54,83.16l-.11-.42h-.31l-.11.31.21.21.32-.1ZM163.59,95.97l-1.26-.84-.21.42.42.63.84.21.21-.42ZM162.54,76.75l.1.31.32-.42-.21-.21-.21.31ZM163.8,76.96l.74-.1.1-.31-.74-.21-.31.31.21.31ZM164.22,84.52v.31l.32.21.42-.1-.11-.52-.42-.21-.21.32ZM164.95,75.18h-.42l-.21.21.21.31.42-.21v-.31ZM164.85,59.64l.42.21.42-.31-.63-.42-.31.1.1.42ZM169.26,72.76l-.11-.42-.31-.1-.84.21-.95-.63-.95-.31-.84.1-.52.52.31.52,3.25.21.32.21h.52l.11-.31ZM165.27,74.13l.63.42.95-.1.73-.42-.31-.31-2.1-.1.1.52ZM165.79,75.6h.42l.1-.42h-.63l-.1.31.21.1ZM166.53,57.54l-.63.52.74-.1.31-.42h-.42ZM165.9,86.94l.11.31.63.42-.11-.84-.63-.31v.42ZM166.63,68.88h-.32l.11.42h.42l.1-.31-.31-.1ZM167.26,68.04l-.63-.42-.21.31.42.52.42-.42ZM166.53,47.98l.32.42.1-.31-.42-.1ZM167.16,65.52l-.21.42.32.31h.31l.32-.31v-.42l-.42-.31-.32.31ZM167.79,64.47l-.21.21.21.42.53-.63h-.53ZM167.58,69.3v.31h.42v-.31h-.42ZM168.42,67.41l-.32-.1.21.42.11-.32ZM168.84,74.34l-.32-.32-.31.42.21.1.42-.21ZM168.84,62.89l-.32-.1-.21.42.42.21.32-.21-.21-.31ZM168.42,70.77h.21l-.21-.1v.1ZM168.63,56.28h.1l-.1-.1v.1ZM170.2,64.57l-1.05-.84-.52.95.73.63.53.1.63-.52-.32-.31ZM169.15,56.17l-.31.1.21.31.1-.42ZM169.89,58.17l-.32-.21-.73.21.1.42h.84l.11-.42ZM169.47,69.82l.42.21v-.94l-.42.1-.21.31.21.31ZM169.89,93.45h-.32v.31l.32-.31ZM170.1,70.98l-.32-.11-.1.53.42-.21v-.21ZM170.31,59.53h-.32l-.21.42h.53v-.42ZM169.89,50.29l.42.1v-.1h-.42ZM170.94,68.25l.21-.31-.21-.42-.84-.11-.21.32v.52h1.05ZM170.62,63l.21-.84.74-.73-.53-.31-.73,1.05-.11.84h.42ZM171.04,56.28l-.42-.1-.21.31.74.21-.11-.42ZM171.15,65.2l.32-.42h-.42l-.21.31.32.1ZM171.36,60.58l.74.42.73-.63,1.26.84,1.05.21.42-.63-.11-.42-.42-.1-1.16.21-.52-.1-.42-.52-1.58.42v.31ZM171.88,63.52l.73-.42-1.05.21-.1.42.42-.21ZM172.72,66.46l-.21-.1-.95.21.21.21.74-.21.21.1v-.21ZM171.88,50.19l.21-.21-.42-.1.21.31ZM172.72,55.12l-.21.21.1.42.42-.21.11-.42h-.42ZM174.3,65.41l-.31-.63-.42-.1-.42.31-.42-.1-.21.21.52.52.84.1.42-.31ZM174.09,58.48l-.42.73h1.26l.21-.63-.63-.42-.42.31ZM174.72,40.84h-.42l-.21.52.42.1.42-.31-.21-.31ZM174.93,65.52l.42.1-.21-.42-.21.31ZM175.77,40.32l-.32.32-.1.84h.42l.42-.63v-.42l-.42-.1ZM175.87,57.43v-.42l-.42.1.11.31h.31ZM176.19,55.54l-.32-.21v.21h.32ZM176.4,62.89l.52.21.11.31-.32.21-.42-.1-.31-.52.42-.1ZM176.61,52.18l.31-.1-.31-.21v.31ZM176.82,48.93h.21v-.31h-.21v.31ZM177.24,53.76h-.42l.21.32h.42l-.21-.32ZM178.29,40.84l-.31-.1-.21.42.53.1v-.42Z"/>
      <path class="cls-1" d="M211.26,38.22l.1-.42.84.31.63.52,1.47.1-.11,1.68.21.21,1.68.31.21.31-.11.63.21.31.84.42.95,1.58v.52l.84.94v.84l.53,1.37-1.68,2.2-1.05-.42-.52-.63-.74.1-1.47-1.68.21-1.05-.21-.31-.95-.42-.21-.84-.42-.63-1.16-1.05-.42.31-1.26.31.42.74-.63.63-1.26.42.1.63-.21.31-1.26.31.11.42,1.89.53-.42.73-.63.42-.11.73-1.15.42.63.74-.11.42.21.73-.21.42-.73.63.1.31.95.21-.21.31-1.47.42.1.31,1.05.52-1.36,2.52.84.21-.32,1.68-.95.42-.21.42.74.21.21,1.26h-.74l-.31.21.42.84-.53.73.53.74-.84.84.31,1.05-.1.21-.42.1-1.58-.31-.63.31,1.37,1.16-.32.94h.84l.42.21.42-.52-.31-.73.1-.42.42-.1.21.42v1.26l.32.31.95.21.63.63,1.79.31,2.41-1.68h.32l.42.31.32-.73v-.95l.52-.52.53.31.21-1.57.31-.21h.53l.31-.94.63-.53.21-.94.52-.63.84-.1.32-.21-.11-.73,1.05-2.1.95-1.05,1.79-2.83-.21-.63.52-.31.21-.42-.42-.73.53-.52.1-1.26.63-1.16.73-.31.53-.63-.42-.73.42-.1.42-.42-.42-1.89.1-.52.84-.1v-.52l.95-1.26v-1.89l1.68-.73v-.95l.42-.94,2.1.31.73-.63,1.26.21.63-.42.73.63-.21.52.32.31.84-.31,1.68.95-.1.21-.84.1.21.31.63.1.52.52.42-.21.84.1.21.31-.1.84.21.73-.32.21-1.05.1-.1-.42.42-1.15h-1.05l-.63.31h-.42l.21.31,1.05.42-.21.31-.95.21-.21.42.31.21.95-.21,1.05.31.42-.1.74.42-.32.31-.73.1-.63.42.1.42-.31.52-.11.74.74-.21.21.42-.84,1.05.1.31-.52.73.63.52.42.84-.32.42-.42.1.11.31-.32,1.68-.84,1.16-.84.21.84,1.78-.42.21-.32.53.74,1.57-.42.63-.11.63-.73.42-.21.31.21.73,1.15-.21.21.42-.1.31-.95.73.42.63-1.05,1.89v.42l.63.73.11.42-1.47-.21-.32.21.32,1.05-.42.94.21.31.63.1.21.31-.32.21h-.95l-.42.31.21.31,1.37.63-.31,1.57h-1.26l-.31.21v.31l.42.31,1.26.1.21.32-.31.21-1.47.21.11.42.63.31-.21.31-2.21.52-.42-.31-2.1.21.84.94h.31l1.05-.63,1.15.31,1.58-.31.42.31-.74.95.42.73-.84.21-.63.42.21.52-.1.52-.84.42.31.74-.21.52.21.21.95.1,2.21-.21-.84,1.47.52.31-1.26,1.05h-.95l-.1.42.31.31.74-.1.84.21-.84,1.05h-.53l.42,1.37.53-.1.53-1.37h.94v.52l-.42.63v.42l.32.42-.84.52.42.73-1.47,1.68-.73-.1-.74.52-.42.63-.94-.31-3.04.1v-1.37l.73-.84-.21-.42-.42-.1-.53,1.47-.73.21-.32-.63-1.99-1.99-.32-.52,1.05-.63-.42-.31-1.26.31-.42-.1.42-1.15.63-.52-1.26.21-.74-.52,1.16-.73-.42-.31-.95.1.74-1.05.94.1.32-.42-.32-.21-.52.21h-1.26l-.32.21.95-1.47-.42-.1-.42.21-.11-2.1-.31-.63.31-.84-.74-.1.32-1.26-.21-.73,1.16-1.57v-.52l-.74-.21-.1-2.2.31-.31.95-.1.21-.42-.84-.74.21-.63-.53-.84h-1.05l-1.16,1.15.21.42-1.57,1.26v1.05l-1.16-.31-.32.31.42.84-.52.21-.11.95-.73.21-.74-.42-.74,1.05,1.05.63-.11.31-.63.31-1.05-.42-1.47,1.15-.32.84.84-.52h.42l-.63,1.15h-.42l-.42-.31-1.16.63-.52.73-.53-.63-.94-.31-.32.1-.21.94.21.21-1.05.63-.21.42-.42.1-1.47-.84-.63.32h-.42l-.42-.63-.63-.42-.31.42-.53-.31-1.37.31-.31-.21-.21-.73-.32-.31-1.26-.21-.42-.73-1.05-1.05-.11-.84-.21-.31-.52.21-.84-.84-.32-.73-1.16-.95-1.15-2.62-.32-1.47-.52-.31.1-1.05h.53l-.42-.1.31-1.37-.52-.42-.21-.42.42-.63-.11-.63-.63-.31.32-.84v-.63l1.15-1.26-.21-.31h-.73l-.32-.31.32-.32h.84v-1.15l.73-.84-.21-1.79.95-1.26.53-1.47-.32-.84,1.47.21.74-.1v-.42l-.42-.73.52-.63-.52-.95.84-1.57.53.21.52-.42h.42l.74-.42.1-.63.74-1.05,1.16-.73-.21-.42-.63-.52.21-.42.84-.31.21-.84.84-.1.21-.31.1-.94h.95l.31-.31.11-.52.42-.21.53-.74,1.36-.84.74-.21-.11-.84.21-.31,1.16.31-.42.84.42.21.74-.1.1-1.05,1.89-.94.73-.11.63.74.95.52.21-.31ZM191.31,66.67l-.21-.31v.21l.21.1ZM196.03,67.2l.42-.1-.21-.42-.52-.1-.11.31.42.31ZM200.55,65.73l.53-.73-.74.1-.31.73.52-.1ZM200.76,74.97l.32-.21.52-1.26h-.42l-.63.31-.31.63.1.52h.42ZM201.18,67.3l.11-.21-.32-.21v.42h.21ZM201.28,64.36l.31-.1v-.32l-.52.1.21.32ZM205.27,56.07l.21-.1v-.42l-.42.1.21.42ZM207.9,51.03h-.63l.32-.63.31.21v.42ZM210.94,77.8l-.1-.1.1-.11v.21ZM212.83,70.45l.31-.21h-.31v.21ZM215.25,70.03l.1-.42-.21-.21-.32.1v.42l.42.1ZM216.4,69.61h-.42l.11.31h.31v-.31ZM220.18,77.17l.52-.84-.42.1-.52.52v.31l.42-.1ZM220.39,68.35l.63-.63-.32-.32-.31.11-.42.73.42.1ZM222.49,85.05v-.52l-.31-.21-.21.63.42.21.1-.1ZM223.12,83.16l.53-.63-.21-.21-.74.52-.1.42.52-.1ZM222.91,74.44l.42.52,1.26-1.37.11-.42-1.79.63-.21.31.21.32ZM223.54,80.11l-.31.1.1.21.21-.31ZM223.33,87.46l.21-.31-.31.1.1.21ZM224.7,76.33l-.42.1-.21.31,1.15.1,1.05-.42-.32-.1-.84.21-.42-.21ZM224.49,91.77l-.32.1-.1-.21.42.1ZM224.7,53.55l.21-.42h-.53l-.21.31.53.1ZM224.7,46.51l.42-.1-.21-.31h-.42l-.11.21.32.21ZM224.59,64.47h-.21l.11.42.1-.42ZM225.75,75.28l.53-.52-.21-.31-.53.21-.21.42.42.21ZM225.54,65.73l.42-.21-.42-.1v.31ZM225.64,72.45l.42-.21.21-.42-.42-.1-.32.52.11.21ZM225.75,78.54l.95-.1-.63-.31-.32.1v.31ZM226.38,68.25l.84-.1.11-.42-.32-.21-.94.1-.11.42.42.21ZM227.43,84.63l-.31.84-.74-.1-.1.31.42.52.84.21,2.42-.21.31-.31-1.47-1.15-.32-.63.32-.31-.95.1-.52.31.1.42ZM226.9,81.16v-.32l-.32.11.32.21ZM227.85,81.48l-1.05.63v.42h1.79l.11-.31-.63-.84.21-.63-.73.32.31.42ZM227.32,79.8l.31-.21.11-.42-.53.1-.21.42.32.1ZM227.85,72.34l.21-.42-.31-.21-.32.31-.1.52.52-.21ZM227.43,74.02h.53l.1-.42h-.73l.1.42ZM227.43,74.65l-.1.42.42.1,1.16-.21.31.1.11-.52-.84.42-.94-.52-.11.21ZM229.84,67.09l-.84,1.16h-.42l-.63.31-.11.31.84,1.05v1.16l.21.31,1.15-.42-.21-.42h-.31l-.32-.31.21-.42.74.1.84-1.05.21.1.42-.73.1-.95-.84.53-.63-.84-.42.1ZM229.63,88.09l-.52.63-.21.73-.42-.21-.52.31-.11.42.32.21.95-.21.42.52v-.42l-.21-.21.42-.73.52-.42-.21-.42.11-.42.84-1.16h-.84l-.84.95.31.42ZM228.48,88.2l.21-.42h-.42l-.1.42h.31ZM228.58,80.74l.84-.1-.21-.31-.42-.1-.42.21-.11.31h.32ZM228.79,83.79l1.05.31v-.31h-1.05ZM229,73.39l.42.1.21-.21-.31-.31h-.42l.1.42ZM229.53,78.33l.84-.21.1-.31-.94-.21-.32.63.32.1ZM229.63,60.06l.32.21.1-.42-.52-.21v.1l.1.31ZM229.95,75.18l.73-.31.11-.42-.74.21-.1.42v.1ZM231.94,92.61l-.52.52-.84.1-.53-.63,1.26-.84,1.05.1.31.31-.52.42h-.21ZM232.47,81.06l-.74-.1-.73.31-.42-.1.63-.53,1.37.1-.11.32ZM230.79,83.26l.1.84.21.21.74-.63-.11-.31-.73-.42-.21.31ZM231,89.67v.31l.73-.73-.31-.42-.63.42.21.42ZM231.31,55.12l.42-.1.53-.73-.42-.21-.42.21-.42.63.31.21ZM231.31,72.66l.74-.21.21-.31-.74-.21-.52.63.31.1ZM232.47,79.69l-.31.21-.84-.1.11-.31h1.16l-.11.21ZM231.73,66.46l.42.1.21-.31.1-.84-.63.1-.42.73.31.21ZM232.26,60.16h.32l.42-.63-.32-.1-.74.42.32.31ZM232.89,43.15l1.47-.42-.21-.31-.84-.1-.63.42-.1.42h.31ZM233.1,78.43h-.42l.32-.42.1.42ZM233.2,92.08l-.42-.21.42-.21v.42ZM233.41,68.67l-.42-.1.1-.31.32-.1v.52ZM233.31,46.3l.42.1.53-.42-.74-.31-.31.1-.11.31.21.21ZM234.15,53.86l.42.1.11-.52-.42-.1-.42.31.31.21ZM234.57,89.25l.11.21-.42.21-.21-.31.1-.21.42.1ZM234.67,47.35h-.32l.32.31v-.31ZM234.78,87.88l-.31.21-.11-.31.32-.1.1.21ZM237.61,46.51l-.21-.31h.42l.32.31h-.53Z"/>
      <path class="cls-1" d="M284.97,49.14l.1.42-1.57-.21-.21,1.68-.63.31-.21.31v1.26l-.31.31-.42-.42-.53-.1-.42.21.63,1.58-.42.1-.84-.63-.84.32.74,1.47-1.37.1-.21.73-.84.42-.53,1.68-.84.42v.73l-1.26.42v.84l-.84.94-.21.94-.42.21-.74,1.05-.63.42-.53,1.15-1.57.63-.53.52.21,1.89-.32.21-1.36.1.1.94-1.47,1.05v.94l-1.68,1.68h-1.05l-1.16,1.58-.84.1-.11.94-.31.21-.84-.52-.63.63-.11.73.21.74-.31.31-.42-.21h-.84l-.52.63.1.31-.21.31-1.58.73-1.26,1.16.11.84-.21.31-.53-.1-1.05.31-.31-.21h-.84l-.73.52.31.73-.1.31-1.68-.21-.53.21-.63-.52-.74-.1-.42.21-1.36-.31-.32-.31-.21-.73-1.47-.94v-.63l-.84-.73v-.42l-1.58-2.21-.74-.42-.1-.94-.53-1.47v-1.05l.53-.31.31-.52-.21-.31-.73-.42-.21-.31.31-1.05-.73-.31-.21-.52.52-1.26.21-1.37.32.42.21-.21.1-.73.42.1,1.47-.73-.1-.42-.42-.31-1.26.42-.21-.31.63-2.52-.53-.63.21-.31.74-.31.21-.31-.11-.31.74-1.47-.11-.94.21-.73,1.26-2.31-.11-.73-.42-.63,1.37-1.58.31-.84v-.94l.53-.84.21-3.25,1.05-1.36.11-.42.52-.52.42-1.79.95-.84-.11-.42.21-.95.63-.42,2.41-.1.84-.31,1.47.63h2.1l1.16.63-.42.73.21.31,1.47.52-.53.63.42.63,1.05.53-.21.42.21.73.63.52-.42.73-.32.1v1.68l.42.63-.21.31h-1.26l-.74.42.95.84v.42l1.05,1.57-.74.21.63.73-1.16,3.25-.11.84-.21.21.42,1.15-.31,1.05.21.74.63.52-.11.52-1.47.42.11.84-.21.63-.32.31.53.74.84-.1.31.21-.1.31-1.05.31.63.94v.42l-.42.1-.63.53-.11.52-1.16.94-.1.63-.53.52.53,1.05-.21.73-.42.31.52.42.74-.21.21.42-.42.73.32.63h1.05l.31.73,1.79-.95,1.16-1.15,1.36-.94.63-.73.84.31.21-.31.21-1.37,1.15-.42.42-1.57.42-.63,1.36-1.05,1.16-1.26,1.58-2.42.73.1.21-.21.11-.73.21-.1.21-.63,2.52-2.94.11-.42.42-.21.1-.52,1.26-.84.11-.84.42-.73,1.16-.95.94-1.36.53-1.37h.74l.52-1.26.32-.1.52.21v-.94l1.58-1.37.42-.73.42.21.32,2.1.42.31ZM247.69,74.34l-.32-.21-.1.42.42-.21ZM265.23,18.27l-.84.21.1.42.63.31.63-.52.42-.1.42.21.1.52-.21.42-.63-.1-.42.31-.11.74.21.42.63.52.32-.1.21-.94.42-.21,1.05.32.53.63.31.84v.84l-.21.42-.94.21-.32.74.42,1.15-1.36.94.63,1.05-.11.42-.42.42-.1.52-.32.31.32,1.15-.74.21-.74,1.37-1.36-.1-1.79.84-.21.73-.53.63-1.26-.84-.74.21-.94-.31-.53-.73-.94-.84-1.47-.31-.31-.31.21-.32-.11-.31-.84.21v-.31l-1.26-.94-.32-.73-.73-.31-.32-.84-1.57-1.47-.11-.73-.42-.1-.63-.52-.63-1.58,1.68-1.36.74-1.79.94-.73,1.16-1.26h.53l1.36-.84.42.21,1.26-.31,2-1.05,1.89.63.84-.31.31.21,1.47.21,1.47.74.84.1.31.73-.31.21ZM253.47,76.65l-.42-.52-.42-.1-.11.42.32.63h.74l-.11-.42ZM255.04,75.49h.52l-.21-.31h-.52l.21.31ZM257.04,21.42l-.21-.1.21.42v-.31ZM267.85,29.19l-.42-.31.21-.31.31.21-.1.42ZM272.05,65.94l.11-.42.42-.21.21.31-.11.42-.52.21-.11-.31ZM281.92,52.18l-.11-.42-.31-.1-.21.31.1.31.53-.1Z"/>
      <path class="cls-1" d="M283.71,35.07l.21.31.53-.1.63.42h1.68l.21,1.15.21.21h.84l.32.42-.32.73.21.31.42.1,1.16-.21.21.31-.11.52.63.52-.42,1.16.21.42-.21.84.63.63.84.42v.52l.42.63-.21.31-1.16.52.63.63-.31.63.21.84-1.05.63,1.26,1.47.21.73-.32.84.11.52-1.05,1.78-.84.1-.21.31.74.42.95-.1.73-.42-.63-.63.21-.31.74-.31.21-.31v-.84l1.05-.53.42-.73v-.52h.42l.74-1.47.21-.95,1.47-.73.21-1.05.74-.31.31-.73.53-.42.84-.21v-.73l.84-.63,1.16-1.36h.52l.32-.32.31-.94.74-.31,1.16-.94,1.05-.1,2.1-1.37h.84l1.05-.52.63.42.84-.1.53-.42.84.31.53.52-.53.74.32.21.73-.42.74.63-.32.63.63.84-.21,1.58,1.05,1.47-.11.63.42.52h.42l-.21,1.16.42.52.32,1.57-.11.42-.73-.1-.42.42.84.63-.53.63.21.21h.42l.21-.21-.1-.63.63-.31.42.21-.74,1.05-.31.84.63.74.1.63-.31,1.26.52.63-1.05.63.11.73-.84.21.31.52-.42.21-.21.73.32.31.52.1-.1.53.31.84-.31.63-.42.1-.84-.31-.42.1-.1.42.74.73-.32.21h-1.68l-.21.42.31.21,1.26.21.74.42.32,2.52-.84.74.42.52v.42l-.42.73v.42l-.31.31-.74,1.79.42.73.32,1.68-1.58.73-1.05.21-.42-.21-.32.1.74.94-.1.73.84.21.31.84-1.05.42-.21.31.84.42.74-.31-.11.94-.31.73-.95.74-.63-1.68-.42.21-.11.95-1.26.52-.21.94.11.42.84-.42-.21-.31.31-.31,1.37-.1.53.73-.32,1.15-.74.52.21.21,1.79.21-.1-.74.73-1.15.63-.42,2.42-2.52,1.37-.73.42-.73.32-1.79h.63l1.78-2.1.84-1.37,1.57-.31.11-.84,1.26-2.21.11-.94.52-.73.53.1.31.31.11-.84,1.15-1.68.63-.31.52-1.58,1.37-1.47.1-.73h.74l.31-.21-.1-1.26.95-.21.63-2.1.94-.63.84-.21.63-.63.1-.42h-.74l.11-.31h.53l.31-.52.11-.84,1.26-.42.52.11,1.16-.42.21-1.68-.1-.31.52-.1v.63h.84l.21,1.15-.31.42-.11.74-.31.1-.42-.21-.74.31-.42-.1-.42.52.21.31.63.31.63-.52.42-.1.42.21.11.42-.42.63h-.42l-.42-.31-.21.31v1.05l-.63.31-.31.73-.63.42v.52l-.32.21-.52-.21-.53.52-1.26,2.52-.42.1-1.26,1.15-.95.1-.74.32-.94-.1.42,1.57.31.31.11.52-.32.21-.31-.1-.32-.94-.73.31-.63.63v.84l.63.53-.95,1.47h-.32v-.63l-.84-.42h-.52l.31,1.15-1.05,1.58-.21.73-.31.31-.95.1-.63.52.1.42-.21.94h-.73l.1.74-1.89,2.1-.63,1.26-.63.1-.32.31-.21.73-.94,1.36v.53l-2.21,1.99-.42.73v.53l-1.16.42-.74.52-.42,1.05-1.15,1.16-.32,1.47.11.42-1.05.73-.1.95-.42.73h-.84l-.74.31-.52.52v.73l-1.05.42-.63.53h-.84l-.21.21.21.73-.84.1-1.58-.31-.42.21-.63-.1-1.37.52-.21-.31-.84-.31v-.42l-1.47-.84-.21-.42.21-.73-.63-.42h-.53l-.52-1.68-.63-.63v-2.2l.94-.42-.21-.42-.73-.1-.95-.52.74-.94.1-.52.42-.52-.52-.74.21-.42.84.42.42-.63.42.21.74-.21-.53-1.26,1.16-.63-.42-.1-.63.31h-.42l.32.52-.74.73-1.15-.31-.11-1.68,1.58-.31.63-.31.21-.84-.1-.52-.32-.31-.32.1-.21,1.15-.31.21-.32-.1-.52-.63.52-.1.21-.31-.52-.73-.32-1.37.84-.73-.52-.94.73-.1.63-1.79v-.84l.31-.73-.21-.52.11-1.16-.21-.42.94-.84.53.21.21-.31-.11-.52.42-.84v-.42l-.31-.31,1.15-.52.21-.31-.31-.42-1.16.63-.31-.1-.21-.52.73-.63.32-.84.63-.52.63.31.32-.31-.21-.42-.53-.42.1-.73-.63-.21.11-.84.52-.52.53.42.11-.31-.53-.42v-.42l.63-1.57,1.16-.42v-1.57l-.32-.31v-.52l.74-.52-.11-1.47.32-.84.63-.73.31-1.79.84-1.36-.32-1.68-.31-.31-2.31.84.11.74-.32.31-1.26.1-.21.31.31.84-1.36.52.42.52v1.05l.21.31-.53.52-.1.84-.84.94-.11.95-.73.42-.42-.1-.31.21-.11.94-.63.94.21.84-.1.73h-.42l-1.05.52h-.84l-.31.21.21.52.84.31-.53,1.16v.42l-.31.31-.32,1.36-.73.63-.21,1.15.73.84-.1.31-.84.73v.32l.52.52-.21.94-.31.1-.42.73v.95l-1.16.1-.21.31.63.73-.31.63.63.73-.21.42-.63.42.21.73-.21.42-1.36.21-.21.42.63.73h-1.26l-.32.31.21.42.63.52,1.16,2.52-.21.31-.63.32-.84-.32-1.47.32-1.68,1.68.11.42-.21.52-.42.1-.74,1.16-1.47.52v.63l-.53.42-2.52.42.21.63-1.79.21-.74-.21-.21-.74-.63-.1-.84.21-1.05-.63.21-.63-.21-.31-.74-.31-.1-.73-.84-1.37-.42-.21v-1.05l-.84-1.37.31-1.26-.1-.42-.53-.52.42-.84-.63-.63.11-.31.73-.52.11-.52-.32-.52.42-1.05-.1-.42.52-1.05-.1-1.47.63-.53v-1.26l.63-1.68.31-1.78.63-2,.63-.63h.42l.21-.21-.32-.31-.42.31-.42-.42.84-2-.52-1.47.31-.21.95.1.31-.31-.31-.21h-.53l.21-.73-.63-.53-.21-.73.21-.31.84-.1-.42-.73.53-.73-.11-1.58-.21-.21v-.52l.32-.52.63-.31-.11-.42-.52-.63.1-.42-.42-.73.32-.31.94.1.21-.21v-.52l-.74-.42.52-.21v-.53l-.52-.42.63-.63.11-.42-.21-.63.42-.84-.11-.42.21-.52-.42-1.15.11-1.47.94-1.26,1.68-.73.84-.63.84-.1.94.31h.74l.42.31ZM283.92,62.16l.11.31.21-.31h-.32ZM288.96,78.64l.52.42-.52.42-.53.1.11-1.05.42.1ZM289.69,73.5v-.42h.32l-.32.42ZM290.11,74.86l-.31-.1.1-.42.42.1.11.31-.32.1ZM291.06,73.39v-.31h.32l-.32.31ZM292.53,42.94l-.73.1.21-.42.63-.21.21.42-.32.1ZM293.05,39.79v.42l-.32.31-.31-.31v-.42l.31-.21.32.21ZM292.74,52.6l.42.1-.1-.42h-.32v.31ZM294.1,41.58l.32-.21.21.21h-.53ZM296.83,81.16l.63.42.52.1.21-.42-.31-.31-.84-.32-.63.32.42.21ZM297.57,83.58l-.32.1-.21.42.21.32-.1.84.53-.52.21-.84-.32-.31ZM297.88,87.99l.1-.53h-.42l-.1.74.42-.21ZM299.14,63l-.63.73-.42.21-.11-.63.63-.31h.53ZM298.41,64.47l.11.42-.32-.31.11-.31.1.21ZM299.25,72.55l-.1-.42-.32.1-.1.31.31.21.21-.21ZM300.3,67.09l.95-.63-.42-.21-.42.1-.42.73h.31ZM300.72,69.51l.32-.31-.21-.31-.53.73.21.21.21-.31ZM300.93,62.79l.31-.1v-.31h-.42l-.21.21.32.21ZM301.66,52.92l-.21.1v-.1h.21ZM303.13,55.23l-.21-.31-.1.31h.31ZM303.45,44.2l-.21.1v-.53l.21.42ZM304.71,50.19l-.52.63.63.21.52-.74v-.31l-.31-.1-.32.31ZM304.18,67.2l.73.42.21-.42-.1-.42-.63-.21-.21.31v.31ZM304.5,79.8l.74-.21-.63-.52-.32.1-.1.42.31.21ZM304.81,76.65l.42-.1-.21-.31-.42-.1-.11.52h.32ZM304.81,75.28h-.21l.1.21.11-.21ZM305.13,59.53l.63.42h.42l.53-.63-.11-.31-1.05.31-.73-.21v.42h.31ZM304.81,63.94l.31.42.74-.74.31.1.32-.31-.11-.31-.84.1-.31.52-.42.21ZM305.23,69.51v-.42l-.32.52.32-.1ZM305.97,68.67l-.31.84.73.52,1.68-.52.21-.42h-.42l-.53.31-.84-.42-.21-.63.42-.73-.32-.1-.52.73.1.42ZM305.97,60.48l.11.32.31-.21-.42-.1ZM306.81,81.48l.53-.31-.32-.21-.42.1-.21.42h.42ZM307.12,75.81l.31-.1-.21-.42-.42-.1-.31.21.1.42h.53ZM306.81,58.27l-.1-.21-.11.31.21-.1ZM307.02,83.89l-.42-.1v.42l1.05.53.42-.21.52-.74-.42-.1-.84.42-.32-.21ZM306.7,46.51h.31l-.31-.21v.21ZM306.81,66.67l.42.1.21-.31-.31-.31-.32.31v.21ZM307.23,72.76l.42-.21-.11-.42-.32-.1-.31.42.31.31ZM309.12,73.5l-1.79.21v.42l.63.32-.31.73.31.31.95.21.42-.1.21-.42-.74-.52v-.42l.53-.53-.21-.21ZM308.17,78.12l.32-.31h-.32l-.31.31h.31ZM308.28,80.53l-.11.31.84.63.11.42-.53.63v.31l.95-.52.21-.73-.21-.42-1.26-.63ZM309.12,77.17v-.42h-.53l-.1.42h.63ZM308.7,59.32h.42l.21-.31-.53-.21-.21.42.11.1ZM308.91,67.93l-.21-.1.1.52.11-.42ZM311.01,74.44v-.53l-.74-.1v.42l.63.42.1-.21ZM310.8,69.61l-.11-.31h-.31l.42.31ZM310.69,70.87l.42-.1.1-.31-.53.1-.31.31h.31ZM312.9,70.56l-.84-.42-.1.42.31.63h.74l.21-.42-.32-.21ZM313.11,65.41h.11l-.11-.31v.31ZM313.95,68.67v.1l-.1-.31.1.21ZM315.63,54.07l.31-.11-.31-.52-.42.21.1.42h.32ZM330.75,59.22l.42-.52-.74.42.32.1ZM330.96,61.63l-.21.52.32-.84-.11.31ZM333.37,59.01h.42v-.52l-.53-.21-.1.63.21.1ZM340.41,51.13l-.31.21-.21-.21.21-.31h.31v.31ZM340.72,48.19v.42l-.32.21-.42-.1.11-.84h.42l.21.31ZM341.35,49.56l.11.31h-.42v-.42l.32.1Z"/>
      <path class="cls-1" d="M368.34,60.16l.32-.21.42.21-.95.74v1.15l-.84.21-.63.63-.63-.1.11.73-.42.63-.73.42-.11,1.05-1.05.52-.21.84-.95.53-.63,1.36-.63-.31-.73,1.36-1.26-.73h-.52l-.32.21-.42-.42-.1.42.21.52.73-.1.63.52-.74,1.05v.52l-2.1,2.1-.11.95-1.79.1-.74.31v1.05h-.73l-.63.84-.74.21-.73.63-.42.1-.84.84-.73.31-.84-.1-.63.21-.84,1.05-1.26.1-1.36.84-.74-.31-2.62.63-.32,1.05h-.42l-1.05-1.26-.42.1-.42.73-1.37-.21-.63-.52.11-.52-.32.21-1.05-.63-.73-.1-.63.63-.21-.95-.42.52-.63-.52-1.05-.42-1.16-1.36-.1-.42-.74.1-.21-.42.32-.63-1.26-1.05-.21-.42v-.94l-.63-.95-.63-.42-.73-2.2.1-.53-.31-.42.31-1.15-.63-.31-.42-.73-.1-.74.73.63.21-.1-.21-.42-.63-.42-.63-2.2.21-.42,1.58-.42-.84-.21-.32-.31.42-.42.11-.42-.95-.42.95-1.36-.32-.74.74-.31.73.42.42-.21-.21-.31h-.42l-.52-1.05.73-.73-.63-.53-.1-.31.73-.31.21-.42-.21-.84,1.05-.42-.11-.84.21-.32.95-.42.1-.42-.84-.21v-.52l.32-.84,1.05-1.16v-.52l1.05-1.99.95-.42v-1.05l1.26-1.05v-.52l1.15-.95h.42l1.36-.73-.31-1.15h.52l.74-.42.63-1.16h.53l.63-.52.63-.94.84-.1.42-1.26.53-.1.94-.84h.95l.73-.63.42-.1,1.16.52,1.47-.31.95.52,3.46-.1,1.47-.42.74.1.84-.31.42.21h.63l1.89.84-.11,1.26.21.94.53.63.42.1.63-.31.84-.1.32.84-.11.42.53.63.1.42-.31.31-.53.1.11.52.52.52.53.1-.21.42-1.05.1-.21.32.21.31.95.21.32.31-.74.63.32.73-.42.42-.84.31v.53l-1.78,1.47-.21.63-.32.31v.52l-.31.53-.63.31-.73,1.05-1.16,1.15-1.16.42-1.15,1.05-.84.21-.52.73-.74.42-.63-.31-1.15.63-.21.84-.42.52-1.05-.1-.94.63-.32.73h-1.05l-.53.63-1.47.63h-1.05l-.74.32.42.63-.21.42-1.57.52.31.42,1.16.42-.63.31.94.95.11.84-.42.63v.63l-.42.1-.32-.21-.63.52-.1.84-.42.84.84.94-1.68.1h.84l-.21.42.31.21,1.16.1-.11.42-.73.94v.52l-.63.42-.11.42.32.21.73-.1.42.21.21.42-.1.63-1.26.42.1.42.74.31-.53.73,1.47.94,1.16.1.74-.42.52.53,1.05.42.74-.53.53.11.63-.42.63-1.05.73.52.63-.42.32-.84,1.58-.42,2.62-1.47.21-.52.1.21,1.89-1.26.95-1.16.74-.42.31-.63,1.16-.52.32-.84.73.1.84-.84.32-.74.84.1v-.84l.21-.31.74-.21.52-1.26.32-.32h.73v-.84l1.16-1.05.42-.73.84-.1.32-.31.63-1.68.84.63-.31-.84.21-1.15.31-.21.95.84.84.21-.84,1.05.31.21ZM325.81,66.04h.32v-.31l-.42-.1-.21.21.31.21ZM328.65,58.17h-.42l-.21.31.32.31.42-.1.21-.42-.32-.1ZM329.38,51.66l.31-.1-.31-.1v.21ZM329.7,57.96l-.21.42.42-.1.21-.42-.21-.1-.21.21ZM333.16,63.1l-.52.1-.11.42.21.21.74-.21.1-.42-.42-.1ZM333.48,79.17l.21.31v-.1l-.21-.21ZM333.79,46.2h.53l-.1-.31h-.42v.31ZM335.37,76.12h-.21v.31l.21.1v-.42ZM337.47,74.86h-.94l-.63-.42-.42.1v.31l.52.63h1.26l.21-.63ZM336.21,61.95l-.63.31.32.31h.42l.21-.42-.32-.21ZM336.84,69.82h-.63l.74.31-.11-.31ZM336.94,76.86l.52-.1-.1-.31-.63-.42-.21.52.42.31ZM336.94,68.77l.21-.1-.21-.31v.42ZM337.68,67.3l.42.1v-.31l-.42.21ZM339.04,83.37l-.42.21v-.31l.42.1ZM339.67,76.23l.32-.42h.63l.21.42-.63.42h-.42l-.11-.42ZM341.04,80.43h.42l.11-.31h-.95v.21l.42.1ZM341.35,61.53l.73.21-.1.21h-.74l.11-.42ZM341.67,78.96l-.31-.1.1.52.21-.42ZM343.98,51.97l-.31.21-.11.94.32.73,2.52-.73.74-.52,1.47-.31.95-.73,1.47-.73.84-.21.11-.52.52-.63.74-.42.42-.84.95-.63.31-.74.84-.84.32-1.57.95-.31.1-.42-.84-.31-.21-1.47-.74-1.05-1.16-1.16-.42.1-1.99-.52-.32.21-.53-.1-1.15.52-.95.1-.31.31-.53,1.68.74,1.26-.63.95.21.73-1.05.52-.1.42.63,1.15-.42.21-1.47-.84-.42.63.84.95.73,1.47-.73.31-2.21.1-.11.42,1.26.31.52.53-.31.52-.84.1.31.94-.31.21-.21-.94h-.42ZM344.29,80.64l.63-.42v-.42l-.42-.21-.32.21-.31.73.42.1ZM347.44,78.01l.11-.31-.42-.11v.42h.31ZM357.73,37.38l.53-.42.1.53-.42.1-.21-.21ZM364.45,62.05h-.1l.1.31.11-.1-.11-.21ZM371.17,56.07l-.42.84.11.52-1.79.63-.84-.42-.21-.32.63-.52h.42l-.11-.52,1.05-1.36,1.15,1.15ZM373.06,50.4l.52-.42.84-1.36v-.42l.74-1.58v-.42l1.05-.1.32.63.31-.21.11-.52.63-.73.63.1.52.63-1.05,1.05.53,1.05-1.47.21-.42,1.26-.53.63.1,1.26-.42.1-.73-1.05-.74,1.05.11.52.94.42-.1.42-.21.1-.74-.42-.63.42.21.1-.95,1.16-.31,1.15.31.84-.73.31-.32-.1v-.63l-.52-1.05.21-.84-.74-.84.53-.52.84-.1-.21-1.05.73-.52.11-.53h.53Z"/>
      <path class="cls-1" d="M426.29,17.53l-.74.1-.21.31.11.42.63.52-1.16,1.36.11.42-.32,1.26.42,1.26-.21.42-1.16.63-.21-.31.11.94.21.21.95-.52h.31l.84.94-.21.42-.63.52,1.05,1.47v.42l-.31.31h-1.26l-.32.21.53.84-.21.84.1.42,1.26.73-.1.42-1.05.73.21,1.16-.84,1.36.1.84h.74v.94l-.74.1.21.74-.84.63.31.31,1.26.21.21.31-.42.73.63.63-.21,1.26.63,3.04-.74,1.26-.21,1.68-.31.31.63.52-.11,1.26-.84,1.05-.74.21.32.52.74-.21.21.42v.84l-1.05,1.79.42.84v.42l-.42.84.11.52-.63,2.52.31.21.42-.1.52.63-.74.84-.63,1.78.32.73-.53.42-.84-.21-.84.1.11.73h.84l.42.52-.32.31-.52.1-.32.31.42.52,1.58-.31.1.84-1.05.53-.63-.53-2,.11-.31-.21-.32.1.74,1.37-.42.63.31.52.42.1.32-.21.74-1.15.42-.1-.32.73.42.52.95-.21.1.42-.63.95.21.52-.31.42-.63.1-1.26-.94-.31.21-.11.84-1.15.63-.11.42.21.31.42.1-.21.63.21.31h.74l.63.31,1.26-.21.32.21-.53.42-1.26-.21-.53,1.47-.42.63-.73.21-.21.32.31.94-1.05-.31.11-.52-.53-.63.11-.63h-.42l-1.15,1.16.21.21h.94v1.36l-1.15.21v-.63l-.63-.31-.53-1.26-.73-.21-.32.21.21.42.42.1.42,1.15-1.05.84.32.52-.21.63.95,1.36h.84l-.42-1.05-.94-.84.42-.52.84-.1.52.63-.1.42.94,1.16-.94.52.42,1.05-1.47.63-1.37-.73-.74,1.05v.42l1.79-.42.11.52-.21.73-.84,1.36-.52-.31-.84.73-1.26-.52-.42.1v.53l.31.31.95.31.21.31-.42.63-.74.52-.31.73-.95.31-.21-.42.1-.31.63-.52-.21-.31-1.47.31.21.73-1.15,1.05.42.1.84-.31.52.63-.21.31-.84.31-.52-.73h-.53l-1.37,1.89-1.26.42-.31-.21-.95-.1-.42.42.1.32.84.42.21.42-.42.31h-.84l-1.05-.73-.42.21-.42.84-.42.21-.53-.63-.42-.21-1.05.63-.52.1-1.16-.21-.63-.42-.74.42-1.57-.42-.63-.73-.73-.42-.74.1-1.26-.52-1.79.21-1.89-.94-.84-1.05-.42-.1-.63-1.05-.21-.94-.53-.73.42-1.58-.52-1.57.1-.73.32-.31.94-3.99.53-.53.31-2.31.95-.63-.21-.52.63-1.05.74-.42v-.63l.52-.63.95-1.79.74-.31.21-.73.52-.53.84.32.11-.95,1.26-.73-.21-.63,1.47-.73,1.05-1.26,2.83-1.68.21-.73,2.42-1.79.84-1.15.84-.21.32-.42-.21-.95.95-.84-.21-1.68-.21-.31.42-.1.52-.94-.52-.94.42-.31h.52l.53,1.15.73-.21.74.63.42-.1-.42-.94.63-1.37-.21-.31-1.79.31-.73-.1.73-.94-.1-.52-.84.1-.53-.31.21-.84-.1-.52.42-.11,1.15-1.26v-1.26l-.73-1.47.73-.31-.1-.94.52-.84-.42-1.05v-1.78l1.47-.42-.42-.63-.42-.1.21-.42-.21-.84.11-.84,1.05-.52v-.42l.63-1.37-.1-.42-.84.42-.74-.52v-.52l.84-.31.84-2-.63-1.15.21-1.05-.31-.32-.74-.21-.32-.31.21-1.05.95-.42-.74-.73.84-.84-.42-.73.42-.63-.11-.94.32-.63-.21-2.94,1.15-.74-.42-.42.42-.73-.73-.73,1.47-2.21-.11-1.89-.31-.74-1.47.53-.74.52-.63.1-1.16,1.05h-.63v1.15l-.84.21-.11-.52-1.26-.52-.42.1-.31.42-.42.1v-.42l.21-.21v-.42l-.53.1v-.42l.42-.63.21-1.16-.1-.42-.74-.42-.1-.42.84-.63v.52l.52.21.32-1.05.31-.31.42.52,1.05-1.16,1.36-.42,2.1-1.05.73.31.21-.73.53-.42h.73l1.26-.73.31-.74,1.26-1.05.84-.21,1.16.42,1.26-.52,3.67.52.32.31h.95l.73.94.84-.52.53.95,1.47.42-.63.31-.11.42.84,1.68.1.95-.52.63.1.84.21.21.84-.1,1.16,1.47-.21.31-1.58.1-.31.21v.42l.42.63h.84l.63.31.52.63-.1.74h-.42ZM387.97,88.3v-.42h-.42v.52l.42-.1ZM401.72,69.19l.11-1.36.21-.21.63.1.84-.21.21-.32-2-.42-.84.21-.42,1.26-.53.73-1.36-.42-.21.52.63.52-1.16.73-1.16,1.47-.73.21-2.21,2.83-.74.42-.1.84-.42.42-.74-.1-.63.31-.1.42h.73l.21.31-.94.84-.42,1.57-1.05.52.11.74-.21.73-.63.21-.21.31.42.73-.42.52,1.05.95-1.26.73-.11.42.53,1.68v.74l.84,1.15.73-.1.53.52.84.1.95-.31.63-.52h.74l1.47-.63.52-.52v-.32l-.42-.63v-.52h-.31v-.73l.31-.21.42.1-.42.84.53.1.63-1.57v-.42h-.53l-.21-.42,1.47-.94.1-1.36.32-.73v-1.37l.94-.84.53-.73-.32-.63.63-.73-.31-.63.63-.31-.42-1.36.73-1.58,1.05-.84.1-1.68-.73-.21v-.42l.31-.31.53.1.1-.31ZM399.73,80.11l-.31-.31-.32.31.21.31.42-.31ZM400.15,85.15l.63-.42.1-.84-.21-.31h-.42v.42l-.53,1.16h.42ZM403.82,70.24h-.31l.31.31v-.31ZM404.25,16.48v-.1l-.21.1h.21ZM404.25,67.3l.42-.1-.32-.21-.1.31ZM404.56,79.38h-.21l-.1.31.42.1-.11-.42ZM404.46,59.43l.42.1.1-.31-.31-.21-.32.1.11.31ZM405.4,48.82l-.1.31h-.32v-.42l.32-.21.1.31ZM405.82,40.53l.63.21-.42.63-.52-.52.31-.32ZM406.13,69.09l.73-.21-.52-.63-.63.21v.84l.42-.21ZM406.55,90.51h-.53v.42h.74l-.21-.42ZM406.66,37.27l.11.42-.32.31-.31-.21.1-.63.42.1ZM407.29,33.07l-.31-.1-.32-.73.32-.31.63.21v.73l-.32.21ZM407.29,66.67l-.31.21.31.21v-.42ZM407.6,93.13l.74.21-.21.63h-.42l-.53-.63.1-.31.32.1ZM408.65,38.11h.42l.11-.31-.53.1v.21ZM409.18,67.41l.73-.42-.52-.63-.53,1.05h.32ZM409.28,87.57l.11-.21-.32.42.21-.21ZM409.39,47.35l.31.31.11-.42-.42.11ZM410.96,46.3l.31-.1v-.84l-.84.31-.11.42.21.31.42-.1ZM411.17,40.95v.31l.42-.31h-.42ZM411.7,61.84l-.21-.42-.31.42.42.21.1-.21ZM412.01,67.3l1.15-.52-.1-.42-.74-.42-.73,1.36h.42ZM412.54,76.23l.21-.42-.21-.31-.42.1-.1.42.52.21ZM412.43,41.16l.42-.1-.42-.31v.42ZM412.96,79.38l-.31-.21-.21.21h.52ZM414.22,72.76l-1.16.42v.42l.42.52.74-.31v-1.05ZM415.37,60.48l.32-.21.1-.42-.42-.21-1.58.31-.31.95.42.1.95-.53h.52ZM415.16,65.2l.21-.31-1.26-1.58-.32.1-.31.42.31.21.11.42-.42.73,1.47.21.21-.21ZM414.53,67.2l.21-.31-.1-.31-.84.1v.42l.53.31.21-.21ZM414.85,58.9l.42.1.73-.31.11-.42-1.47-.1.1-.74h-.74l-.1.32.53.52.1.52.32.1ZM414.32,68.35l-.32-.31-.1.31h.42ZM415.06,61.74l-.42.1v.42l.52-.1-.1-.42ZM415.79,72.66l-.42-.1-.21.42.53.1.1-.42ZM415.58,56.91l-.1.31.42.21.1-.42-.42-.1ZM416.95,63.63l-.11-.21-.84.1.11-.52h-.42v.63h.42l.21.63.63-.63ZM416.63,80.01l.42.1-.21.42-.42-.21.21-.31ZM416.63,66.99l.63.1.11-.73-.84.21.1.42ZM416.95,68.04l-.42.1.1.31.42.1-.1-.52ZM418.21,63.73l.21-.42-.31-.42-.32-.1-.53.52.42.63.52-.21ZM417.37,80.01l.32-.21.63.31-.32.52-.42.1-.32-.31.11-.42ZM418.31,75.39l.1-.31-.21-.31-.42.63.32.31.21-.31ZM418.1,58.38l-.21.31h.42l-.21-.31ZM418.42,71.4l.84-.63-.31-.21-.42.21-.53.74.42-.1ZM419.57,44.83l-.74.21-.31.63.21.31h.42l.63-.52.1-.42-.31-.21ZM421.04,63l-.42-.42-1.26.31-.53.52.53.63-.32.53,1.37.63.53-.63-.74-.63.21-.31.84-.31-.21-.31ZM419.26,66.67h.95l.63-.63-.42-.31h-.32l-.94.63.1.31ZM421.57,61l-.32-.1-1.05.63-.74-.31-.21.42.53.63.84.1.84-.31.21-.63-.1-.42ZM419.78,60.06l-.42.21.1.53.74-.42v-.42l-.42.1ZM421.99,63.63l.1-.31-.42-.21-.31.42.31.21.32-.1ZM422.83,73.08l.31.1-.31.31v-.42ZM424.51,41.68l.21.21.21-.21-.21-.31-.21.31ZM425.24,55.65v.42h-.32l-.1-.21.42-.21ZM425.66,34.96l-.11.52-.42.21-.1-.42.42-.52.21.21Z"/>
      <path class="cls-1" d="M472.07,60.16l.32-.21.42.21-.95.74v1.15l-.84.21-.63.63-.63-.1.1.73-.42.63-.73.42-.11,1.05-1.05.52-.21.84-.95.53-.63,1.36-.63-.31-.73,1.36-1.26-.73h-.53l-.32.21-.42-.42-.1.42.21.52.73-.1.63.52-.74,1.05v.52l-2.1,2.1-.11.95-1.79.1-.73.31v1.05h-.74l-.63.84-.74.21-.73.63-.42.1-.84.84-.74.31-.84-.1-.63.21-.84,1.05-1.26.1-1.36.84-.74-.31-2.62.63-.31,1.05h-.42l-1.05-1.26-.42.1-.42.73-1.36-.21-.63-.52.1-.52-.31.21-1.05-.63-.73-.1-.63.63-.21-.95-.42.52-.63-.52-1.05-.42-1.15-1.36-.11-.42-.73.1-.21-.42.31-.63-1.26-1.05-.21-.42v-.94l-.63-.95-.63-.42-.74-2.2.11-.53-.32-.42.32-1.15-.63-.31-.42-.73-.1-.74.73.63.21-.1-.21-.42-.63-.42-.63-2.2.21-.42,1.58-.42-.84-.21-.32-.31.42-.42.11-.42-.95-.42.95-1.36-.32-.74.74-.31.74.42.42-.21-.21-.31h-.42l-.53-1.05.74-.73-.63-.53-.11-.31.74-.31.21-.42-.21-.84,1.05-.42-.11-.84.21-.32.95-.42.1-.42-.84-.21v-.52l.32-.84,1.05-1.16v-.52l1.05-1.99.95-.42v-1.05l1.26-1.05v-.52l1.16-.95h.42l1.36-.73-.31-1.15h.53l.73-.42.63-1.16h.53l.63-.52.63-.94.84-.1.42-1.26.53-.1.94-.84h.95l.74-.63.42-.1,1.15.52,1.47-.31.94.52,3.46-.1,1.47-.42.74.1.84-.31.42.21h.63l1.89.84-.11,1.26.21.94.53.63.42.1.63-.31.84-.1.32.84-.11.42.53.63.1.42-.31.31-.53.1.11.52.52.52.53.1-.21.42-1.05.1-.21.32.21.31.94.21.32.31-.74.63.32.73-.42.42-.84.31v.53l-1.78,1.47-.21.63-.32.31v.52l-.31.53-.63.31-.73,1.05-1.16,1.15-1.16.42-1.15,1.05-.84.21-.53.73-.73.42-.63-.31-1.15.63-.21.84-.42.52-1.05-.1-.95.63-.32.73h-1.05l-.52.63-1.47.63h-1.05l-.73.32.42.63-.21.42-1.58.52.31.42,1.16.42-.63.31.95.95.1.84-.42.63v.63l-.42.1-.32-.21-.63.52-.1.84-.42.84.84.94-1.68.1h.84l-.21.42.31.21,1.16.1-.11.42-.73.94v.52l-.63.42-.11.42.32.21.73-.1.42.21.21.42-.11.63-1.26.42.1.42.74.31-.53.73,1.47.94,1.15.1.74-.42.52.53,1.05.42.73-.53.53.11.63-.42.63-1.05.74.52.63-.42.31-.84,1.58-.42,2.62-1.47.21-.52.1.21,1.89-1.26.94-1.16.74-.42.31-.63,1.16-.52.32-.84.73.1.84-.84.32-.74.84.1v-.84l.21-.31.74-.21.52-1.26.32-.32h.73v-.84l1.16-1.05.42-.73.84-.1.32-.31.63-1.68.84.63-.31-.84.21-1.15.31-.21.95.84.84.21-.84,1.05.31.21ZM429.55,66.04h.32v-.31l-.42-.1-.21.21.31.21ZM432.38,58.17h-.42l-.21.31.32.31.42-.1.21-.42-.32-.1ZM433.12,51.66l.32-.1-.32-.1v.21ZM433.44,57.96l-.21.42.42-.1.21-.42-.21-.1-.21.21ZM436.9,63.1l-.53.1-.1.42.21.21.73-.21.11-.42-.42-.1ZM437.21,79.17l.21.31v-.1l-.21-.21ZM437.53,46.2h.52l-.1-.31h-.42v.31ZM439.1,76.12h-.21v.31l.21.1v-.42ZM441.21,74.86h-.95l-.63-.42-.42.1v.31l.53.63h1.26l.21-.63ZM439.95,61.95l-.63.31.32.31h.42l.21-.42-.31-.21ZM440.58,69.82h-.63l.73.31-.1-.31ZM440.68,76.86l.53-.1-.11-.31-.63-.42-.21.52.42.31ZM440.68,68.77l.21-.1-.21-.31v.42ZM441.42,67.3l.42.1v-.31l-.42.21ZM442.78,83.37l-.42.21v-.31l.42.1ZM443.41,76.23l.31-.42h.63l.21.42-.63.42h-.42l-.1-.42ZM444.77,80.43h.42l.11-.31h-.95v.21l.42.1ZM445.09,61.53l.73.21-.1.21h-.74l.11-.42ZM445.4,78.96l-.31-.1.1.52.21-.42ZM447.71,51.97l-.32.21-.1.94.31.73,2.52-.73.73-.52,1.47-.31.95-.73,1.47-.73.84-.21.11-.52.52-.63.74-.42.42-.84.95-.63.31-.74.84-.84.32-1.57.95-.31.1-.42-.84-.31-.21-1.47-.74-1.05-1.15-1.16-.42.1-2-.52-.32.21-.52-.1-1.16.52-.95.1-.31.31-.53,1.68.74,1.26-.63.95.21.73-1.05.52-.11.42.63,1.15-.42.21-1.47-.84-.42.63.84.95.74,1.47-.74.31-2.21.1-.1.42,1.26.31.52.53-.31.52-.84.1.31.94-.31.21-.21-.94h-.42ZM448.03,80.64l.63-.42v-.42l-.42-.21-.31.21-.32.73.42.1ZM451.18,78.01l.1-.31-.42-.11v.42h.32ZM461.47,37.38l.53-.42.1.53-.42.1-.21-.21ZM468.19,62.05h-.1l.1.31.11-.1-.11-.21ZM474.91,56.07l-.42.84.11.52-1.79.63-.84-.42-.21-.32.63-.52h.42l-.11-.52,1.05-1.36,1.15,1.15ZM476.8,50.4l.52-.42.84-1.36v-.42l.74-1.58v-.42l1.05-.1.32.63.31-.21.11-.52.63-.73.63.1.52.63-1.05,1.05.53,1.05-1.47.21-.42,1.26-.53.63.1,1.26-.42.1-.73-1.05-.74,1.05.11.52.94.42-.1.42-.21.1-.74-.42-.63.42.21.1-.95,1.16-.31,1.15.31.84-.73.31-.32-.1v-.63l-.52-1.05.21-.84-.74-.84.53-.52.84-.1-.21-1.05.73-.52.11-.53h.53Z"/>
      <path class="cls-1" d="M491.29,38.22l.1-.42.84.31.63.52,1.47.1-.11,1.68.21.21,1.68.31.21.31-.1.63.21.31.84.42.95,1.58v.52l.84.94v.84l.52,1.37-1.68,2.2-1.05-.42-.53-.63-.73.1-1.47-1.68.21-1.05-.21-.31-.95-.42-.21-.84-.42-.63-1.16-1.05-.42.31-1.26.31.42.74-.63.63-1.26.42.1.63-.21.31-1.26.31.11.42,1.89.53-.42.73-.63.42-.11.73-1.16.42.63.74-.11.42.21.73-.21.42-.74.63.11.31.95.21-.21.31-1.47.42.11.31,1.05.52-1.37,2.52.84.21-.31,1.68-.95.42-.21.42.74.21.21,1.26h-.74l-.31.21.42.84-.53.73.53.74-.84.84.31,1.05-.1.21-.42.1-1.58-.31-.63.31,1.36,1.16-.31.94h.84l.42.21.42-.52-.31-.73.1-.42.42-.1.21.42v1.26l.32.31.94.21.63.63,1.78.31,2.42-1.68h.32l.42.31.31-.73v-.95l.53-.52.52.31.21-1.57.32-.21h.53l.31-.94.63-.53.21-.94.53-.63.84-.1.32-.21-.11-.73,1.05-2.1.95-1.05,1.79-2.83-.21-.63.52-.31.21-.42-.42-.73.53-.52.1-1.26.63-1.16.74-.31.52-.63-.42-.73.42-.1.42-.42-.42-1.89.11-.52.84-.1v-.52l.95-1.26v-1.89l1.68-.73v-.95l.42-.94,2.1.31.74-.63,1.26.21.63-.42.74.63-.21.52.31.31.84-.31,1.68.95-.11.21-.84.1.21.31.63.1.53.52.42-.21.84.1.21.31-.1.84.21.73-.32.21-1.05.1-.11-.42.42-1.15h-1.05l-.63.31h-.42l.21.31,1.05.42-.21.31-.94.21-.21.42.31.21.95-.21,1.05.31.42-.1.74.42-.32.31-.74.1-.63.42.11.42-.32.52-.1.74.73-.21.21.42-.84,1.05.11.31-.53.73.63.52.42.84-.31.42-.42.1.1.31-.31,1.68-.84,1.16-.84.21.84,1.78-.42.21-.32.53.74,1.57-.42.63-.11.63-.74.42-.21.31.21.73,1.16-.21.21.42-.1.31-.95.73.42.63-1.05,1.89v.42l.63.73.11.42-1.47-.21-.31.21.31,1.05-.42.94.21.31.63.1.21.31-.31.21h-.95l-.42.31.21.31,1.37.63-.32,1.57h-1.26l-.31.21v.31l.42.31,1.26.1.21.32-.32.21-1.47.21.11.42.63.31-.21.31-2.21.52-.42-.31-2.1.21.84.94h.31l1.05-.63,1.16.31,1.58-.31.42.31-.74.95.42.73-.84.21-.63.42.21.52-.1.52-.84.42.32.74-.21.52.21.21.95.1,2.2-.21-.84,1.47.53.31-1.26,1.05h-.95l-.1.42.31.31.74-.1.84.21-.84,1.05h-.53l.42,1.37.53-.1.52-1.37h.95v.52l-.42.63v.42l.31.42-.84.52.42.73-1.47,1.68-.73-.1-.74.52-.42.63-.95-.31-3.04.1v-1.37l.74-.84-.21-.42-.42-.1-.53,1.47-.73.21-.32-.63-2-1.99-.31-.52,1.05-.63-.42-.31-1.26.31-.42-.1.42-1.15.63-.52-1.26.21-.74-.52,1.16-.73-.42-.31-.95.1.74-1.05.94.1.32-.42-.32-.21-.52.21h-1.26l-.31.21.94-1.47-.42-.1-.42.21-.1-2.1-.32-.63.32-.84-.74-.1.32-1.26-.21-.73,1.15-1.57v-.52l-.73-.21-.11-2.2.32-.31.94-.1.21-.42-.84-.74.21-.63-.52-.84h-1.05l-1.16,1.15.21.42-1.58,1.26v1.05l-1.15-.31-.32.31.42.84-.52.21-.11.95-.74.21-.73-.42-.74,1.05,1.05.63-.1.31-.63.31-1.05-.42-1.47,1.15-.31.84.84-.52h.42l-.63,1.15h-.42l-.42-.31-1.16.63-.52.73-.53-.63-.95-.31-.31.1-.21.94.21.21-1.05.63-.21.42-.42.1-1.47-.84-.63.32h-.42l-.42-.63-.63-.42-.32.42-.52-.31-1.37.31-.31-.21-.21-.73-.32-.31-1.26-.21-.42-.73-1.05-1.05-.11-.84-.21-.31-.52.21-.84-.84-.31-.73-1.16-.95-1.15-2.62-.32-1.47-.53-.31.11-1.05h.53l-.42-.1.32-1.37-.53-.42-.21-.42.42-.63-.1-.63-.63-.31.31-.84v-.63l1.16-1.26-.21-.31h-.74l-.31-.31.31-.32h.84v-1.15l.73-.84-.21-1.79.95-1.26.52-1.47-.31-.84,1.47.21.74-.1v-.42l-.42-.73.52-.63-.52-.95.84-1.57.52.21.53-.42h.42l.73-.42.11-.63.74-1.05,1.15-.73-.21-.42-.63-.52.21-.42.84-.31.21-.84.84-.1.21-.31.1-.94h.95l.31-.31.11-.52.42-.21.52-.74,1.37-.84.74-.21-.11-.84.21-.31,1.16.31-.42.84.42.21.73-.1.11-1.05,1.89-.94.74-.11.63.74.95.52.21-.31ZM471.34,66.67l-.21-.31v.21l.21.1ZM476.06,67.2l.42-.1-.21-.42-.53-.1-.1.31.42.31ZM480.58,65.73l.53-.73-.74.1-.32.73.53-.1ZM480.79,74.97l.32-.21.52-1.26h-.42l-.63.31-.31.63.1.52h.42ZM481.21,67.3l.11-.21-.32-.21v.42h.21ZM481.31,64.36l.31-.1v-.32l-.52.1.21.32ZM485.3,56.07l.21-.1v-.42l-.42.1.21.42ZM487.93,51.03h-.63l.32-.63.31.21v.42ZM490.97,77.8l-.1-.1.1-.11v.21ZM492.86,70.45l.32-.21h-.32v.21ZM495.28,70.03l.11-.42-.21-.21-.32.1v.42l.42.1ZM496.43,69.61h-.42l.1.31h.32v-.31ZM500.21,77.17l.53-.84-.42.1-.53.52v.31l.42-.1ZM500.42,68.35l.63-.63-.32-.32-.31.11-.42.73.42.1ZM502.52,85.05v-.52l-.32-.21-.21.63.42.21.11-.1ZM503.15,83.16l.52-.63-.21-.21-.73.52-.11.42.53-.1ZM502.94,74.44l.42.52,1.26-1.37.11-.42-1.79.63-.21.31.21.32ZM503.57,80.11l-.32.1.11.21.21-.31ZM503.36,87.46l.21-.31-.32.1.11.21ZM504.73,76.33l-.42.1-.21.31,1.15.1,1.05-.42-.31-.1-.84.21-.42-.21ZM504.52,91.77l-.32.1-.1-.21.42.1ZM504.73,53.55l.21-.42h-.53l-.21.31.53.1ZM504.73,46.51l.42-.1-.21-.31h-.42l-.11.21.32.21ZM504.62,64.47h-.21l.11.42.1-.42ZM505.78,75.28l.52-.52-.21-.31-.52.21-.21.42.42.21ZM505.57,65.73l.42-.21-.42-.1v.31ZM505.67,72.45l.42-.21.21-.42-.42-.1-.31.52.1.21ZM505.78,78.54l.94-.1-.63-.31-.31.1v.31ZM506.41,68.25l.84-.1.11-.42-.32-.21-.95.1-.1.42.42.21ZM507.46,84.63l-.31.84-.74-.1-.11.31.42.52.84.21,2.41-.21.32-.31-1.47-1.15-.32-.63.32-.31-.95.1-.52.31.1.42ZM506.93,81.16v-.32l-.31.11.31.21ZM507.88,81.48l-1.05.63v.42h1.79l.1-.31-.63-.84.21-.63-.73.32.31.42ZM507.35,79.8l.31-.21.11-.42-.53.1-.21.42.32.1ZM507.88,72.34l.21-.42-.31-.21-.32.31-.1.52.52-.21ZM507.46,74.02h.53l.1-.42h-.73l.1.42ZM507.46,74.65l-.1.42.42.1,1.15-.21.32.1.1-.52-.84.42-.94-.52-.11.21ZM509.87,67.09l-.84,1.16h-.42l-.63.31-.11.31.84,1.05v1.16l.21.31,1.16-.42-.21-.42h-.32l-.31-.31.21-.42.73.1.84-1.05.21.1.42-.73.1-.95-.84.53-.63-.84-.42.1ZM509.66,88.09l-.53.63-.21.73-.42-.21-.52.31-.11.42.32.21.94-.21.42.52v-.42l-.21-.21.42-.73.53-.42-.21-.42.1-.42.84-1.16h-.84l-.84.95.32.42ZM508.51,88.2l.21-.42h-.42l-.1.42h.31ZM508.61,80.74l.84-.1-.21-.31-.42-.1-.42.21-.11.31h.32ZM508.82,83.79l1.05.31v-.31h-1.05ZM509.03,73.39l.42.1.21-.21-.32-.31h-.42l.11.42ZM509.56,78.33l.84-.21.1-.31-.95-.21-.31.63.31.1ZM509.66,60.06l.31.21.11-.42-.53-.21v.1l.11.31ZM509.98,75.18l.74-.31.11-.42-.74.21-.11.42v.1ZM511.97,92.61l-.52.52-.84.1-.53-.63,1.26-.84,1.05.1.32.31-.53.42h-.21ZM512.5,81.06l-.74-.1-.73.31-.42-.1.63-.53,1.36.1-.1.32ZM510.82,83.26l.1.84.21.21.74-.63-.11-.31-.73-.42-.21.31ZM511.03,89.67v.31l.73-.73-.31-.42-.63.42.21.42ZM511.34,55.12l.42-.1.53-.73-.42-.21-.42.21-.42.63.31.21ZM511.34,72.66l.74-.21.21-.31-.74-.21-.52.63.31.1ZM512.5,79.69l-.32.21-.84-.1.11-.31h1.15l-.1.21ZM511.76,66.46l.42.1.21-.31.11-.84-.63.1-.42.73.31.21ZM512.29,60.16h.31l.42-.63-.31-.1-.74.42.32.31ZM512.92,43.15l1.47-.42-.21-.31-.84-.1-.63.42-.11.42h.32ZM513.13,78.43h-.42l.31-.42.11.42ZM513.23,92.08l-.42-.21.42-.21v.42ZM513.44,68.67l-.42-.1.11-.31.31-.1v.52ZM513.34,46.3l.42.1.53-.42-.74-.31-.32.1-.1.31.21.21ZM514.18,53.86l.42.1.11-.52-.42-.1-.42.31.31.21ZM514.6,89.25l.11.21-.42.21-.21-.31.1-.21.42.1ZM514.7,47.35h-.32l.32.31v-.31ZM514.81,87.88l-.31.21-.11-.31.32-.1.1.21ZM517.64,46.51l-.21-.31h.42l.32.31h-.53Z"/>
      <path class="cls-1" d="M615.6,31.29l1.37.21,1.15,1.05h.53l.32-.21.21,1.05.84.1v.63l1.05.73.52.63.74-.1.74,1.26.42.1-.53,1.58-.31.21-.63-.21-.21.1.11.42.84.84.84-.63,1.16.31v.31l-.53.73.74.95.1.52-.94,1.68-.53.63.42.1.42-.21.84.94v.42l-.63,1.05-.21.73.21.42-.52.84.42.73-.21.42-2-.1-1.68,1.79.42.1.63-.63.1-.42h.63l.31.21-.31.95h.94l.74.31.21.42-.21.31-.95-.21-1.47.31-.11.42.95-.1.63.94-.42-.1-.74.42-.84-.42-.42.21.63.52,1.26.1.21.21-1.16,1.05v.42l-.95.63-1.36.1-.21.21.1.32.74.42.31.84.74.21v1.15l.73.31-.1.42-.74.42-.63-.1.21.42.63.42-.52.63-.42-.31-.63.52v1.79l.42.1.73-.21.21.63-.31.21-.84-.1-.32-.31-.84.1-.32.21v.84l1.37-.1.42.21-.42.63-.73.42.1.74-.74.73.32.31.84-.31.32.31v.52l-1.79.21.31.84.63.32-.21.31-.42.1-.84-.31-.63.52,1.26.42.74-.1-.11.31-.63.42.21.42.74.52-.53.63-.84-.1.32.84-.11.73-.42.73-2,1.16-.1.63-.74.42-.31.73.1.84,1.79.84.42,1.05-.1.42-.63.21-.21-.1.1-1.36h-1.16l-.63-.53.42,1.58-.52.52-.74-.1v1.89l1.37-.42.1-.94.74-.1.63.31,1.68-.52.84.73h.53l-.84-1.36v-.42l.95-.94.31-.84h.63l.63.95.32-.1-.42-1.58.52-.42.63.31.53-.52-.53-.42.84-.84h.94l1.37-1.78.84-.52.32-.84.84-.32.21-.84,1.57-1.26.74-1.58.84-.31.74.21-.32-.73.32-.63,1.15-1.15.74-.31.53-.53.1-.52.32-.31,1.15-.31-.1-.84,1.68-1.26.21-.52,2.1-1.99h.74v-1.37l1.05-.94.32-.73h.63l.42-.84,1.05-.94.42-.73.42-.1.42-.73,1.16-1.05.32-.84.42-.1,1.26-1.36h.63l1.05-.74h.53l.31.42-.1.73-1.58.52v.73l-1.16.42-.31.63-.53.1-.95.84.42.73-.84.31-.31,1.05-1.68.63-.21.31h-.63l.11.52.74-.1v.31l-.32.31-.84.1-.53,1.47.53.63-.32.63-1.47-.1-1.26,1.05-.11.42.32,1.16-.32.21-.31-.21-.53.73.42.94-.73.21-.63.52.1.63-.52-.32-1.05.63-.84.21-.42-.1-.21.21v.94l-.52.63-.74-.63-.31.21.73,1.36-.73.53-.32.84.84,1.36-.52.31-.42-.1-.31.21-.21,1.16-.95-.1-.31.21.52,1.15-.31.31-1.37-.94-.63.1.63,1.26.63.52-.42.32-.42-.1-.63-.53-.95-.31v.74l-.21.42-.73.63.1.94-2.42,2.1.11.52-.42.1-1.05,1.68-1.16.21v.95l-.53.1-.52-.31-1.47.31-.53.52-.11.73-1.57,1.05-.11.42-1.79.42-.73.42-.21.42-.42-.1-.32-.73-.52.31.52,1.05h-.94l-.84-.31-.73.42-.63-.63-1.47.84-.52.1-.42-1.05-.74.52-1.15-.21v.84h-.53l-.53-1.05-.84-.1-.31-.52.1-.42-.84-1.16-1.37.53-.52-.42-.53-.1-.42-1.15.11-.73-.53-.73.74-.63.21-1.36-.63-.73v-.73l-.74-.21v-.42l.32-.42.42.31.63-.42.73-.1.11-.31-.21-.31-1.26.63-.32-1.36.11-.73.42-.53-.11-.52.42-.84.32-.21.52.31-.31.73.21.31.42.1.21-.73.53-.63-1.05-.84.21-.84-.1-.31-.63-.52.52-1.78.84-.1.21-.31v-.84l.84-.31.42-.73h.31l-.21-.42.11-.73-.21-.42-.84.42-.42-.42.42-.53.84-.21.1-.31-.42-.21v-.52l.42-.73-.21-.63,1.05-.53.11-.31-.63.1-.42-.21-.21-.42,1.05-.63-.11-1.05,1.16-1.89-.74-.1-.21-.21.21-.42,1.16-.63-.21-.84.32-2.2-.11-.52,2-.63.52-.42.11-.94-.74-.84.32-2-.21-.84.84.42.21-.21.11-.84-.84-.31-.1-.21.31-.74.74-.31.42-1.05-.1-.52.52-.52.74-4.52-.21-.73.84-1.15.42-.95-.74-1.36h-.94l.1.94-.21.84-.42.1-.73-.21-.21.21-.1.84-2,.73-.52.52v.42l-.63.63.11.84.32.31-.95-.21-1.68.73.1.94.32.63.52.42.11.42-.42-.1-.21-.31-.53.42.11,1.26-.74.31-.42-.21-.42.73.52.53-.52.63-.32.84v.73l-1.05-.42-.31.31.21.63-1.26,2.52-.42-.1-.52,1.37-.32.21.11.52-.42.73v.52l-.95.63-.31.73-1.05.63-.1.73-.95.1-.84,1.78.11,1.37-.21.42-1.37,1.15h-.63l.21,1.26.73,1.57-.52.1-.95,1.26-.84-.42-.42.21-.31.63.73.94-.1.31-.74.31v.52l-.32.74-.73.42-.11.84-.21.21v.84l-.31.31-1.37.21-.31.21.21.63.52.63-1.26,1.57-.42-.1-.74-.63-.84.1-.63.94-.84.21-.53-.94-1.36.94-.53-.21-.74-1.05-.73-.1-.21-.31-.32.1-.73-.21-.63.21.21-1.15-2-2.73.1-1.58-.31-.42-.32-1.05h-.31l-.63.52.1.42-.21.94h-.74l.11.74-1.89,2.1-.63,1.26-.63.1-.32.31-.21.73-.95,1.36v.53l-2.21,1.99-.42.73v.53l-1.15.42-.74.52-.42,1.05-1.16,1.16-.31,1.47.1.42-1.05.73-.1.95-.42.73h-.84l-.73.31-.53.52v.73l-1.05.42-.63.53h-.84l-.21.21.21.73-.84.1-1.58-.31-.42.21-.63-.1-1.37.52-.21-.31-.84-.31v-.42l-1.47-.84-.21-.42.21-.73-.63-.42h-.53l-.52-1.68-.63-.63v-2.2l.95-.42-.21-.42-.74-.1-.94-.52.73-.94.11-.52.42-.52-.53-.74.21-.42.84.42.42-.63.42.21.73-.21-.52-1.26,1.15-.63-.42-.1-.63.31h-.42l.32.52-.74.73-1.16-.31-.1-1.68,1.58-.31.63-.31.21-.84-.11-.52-.31-.31-.32.1-.21,1.15-.31.21-.32-.1-.52-.63.52-.1.21-.31-.52-.73-.32-1.37.84-.73-.52-.94.73-.1.63-1.79v-.84l.32-.73-.21-.52.1-1.16-.21-.42.95-.84.52.21.21-.31-.1-.52.42-.84v-.42l-.32-.31,1.16-.52.21-.31-.31-.42-1.16.63-.32-.1-.21-.52.74-.63.32-.84.63-.52.63.31.31-.31-.21-.42-.52-.42.1-.73-.63-.21.11-.84.52-.52.53.42.1-.31-.52-.42v-.42l.63-1.57,1.15-.42v-1.57l-.31-.31v-.52l.74-.52-.11-1.47.32-.84.63-.73.31-1.79.84-1.36-.31-1.68-.32-.31-2.31.84.1.74-.31.31-1.26.1-.21.31.31.84-1.37.52.42.52v1.05l.21.31-.53.52-.11.84-.84.94-.1.95-.74.42-.42-.1-.31.21-.11.94-.63.94.21.84-.1.73h-.42l-1.05.52h-.84l-.31.21.21.52.84.31-.53,1.16v.42l-.31.31-.32,1.36-.73.63-.21,1.15.73.84-.1.31-.84.73v.32l.53.52-.21.94-.32.1-.42.73v.95l-1.15.1-.21.31.63.73-.32.63.63.73-.21.42-.63.42.21.73-.21.42-1.36.21-.21.42.63.73h-1.26l-.31.31.21.42.63.52,1.16,2.52-.21.31-.63.32-.84-.32-1.47.32-1.68,1.68.1.42-.21.52-.42.1-.73,1.16-1.47.52v.63l-.53.42-2.52.42.21.63-1.79.21-.74-.21-.21-.74-.63-.1-.84.21-1.05-.63.21-.63-.21-.31-.74-.31-.1-.73-.84-1.37-.42-.21v-1.05l-.84-1.37.32-1.26-.11-.42-.52-.52.42-.84-.63-.63.1-.31.74-.52.1-.52-.31-.52.42-1.05-.11-.42.53-1.05-.11-1.47.63-.53v-1.26l.63-1.68.31-1.78.63-2,.63-.63h.42l.21-.21-.32-.31-.42.31-.42-.42.84-2-.53-1.47.32-.21.95.1.31-.31-.31-.21h-.53l.21-.73-.63-.53-.21-.73.21-.31.84-.1-.42-.73.53-.73-.11-1.58-.21-.21v-.52l.32-.52.63-.31-.11-.42-.52-.63.1-.42-.42-.73.32-.31.94.1.21-.21v-.52l-.73-.42.52-.21v-.53l-.52-.42.63-.63.1-.42-.21-.63.42-.84-.1-.42.21-.52-.42-1.15.1-1.47.95-1.26,1.68-.73.84-.63.84-.1.95.31h.74l.42.31.21.31.52-.1.63.42h1.68l.21,1.15.21.21h.84l.31.42-.31.73.21.31.42.1,1.16-.21.21.31-.11.52.63.52-.42,1.16.21.42-.21.84.63.63.84.42v.52l.42.63-.21.31-1.15.52.63.63-.32.63.21.84-1.05.63,1.26,1.47.21.73-.31.84.1.52-1.05,1.78-.84.1-.21.31.74.42.94-.1.74-.42-.63-.63.21-.31.73-.31.21-.31v-.84l1.05-.53.42-.73v-.52h.42l.73-1.47.21-.95,1.47-.73.21-1.05.73-.31.32-.73.52-.42.84-.21v-.73l.84-.63,1.15-1.36h.53l.31-.32.32-.94.74-.31,1.15-.94,1.05-.1,2.1-1.37h.84l1.05-.52.63.42.84-.1.53-.42.84.31.52.52-.52.74.31.21.74-.42.74.63-.32.63.63.84-.21,1.58,1.05,1.47-.1.63.42.52h.42l-.21,1.16.42.52.32,1.57-.11.42-.74-.1-.42.42.84.63-.52.63.21.21h.42l.21-.21-.1-.63.63-.31.42.21-.74,1.05-.31.84.63.74.1.63-.31,1.26.52.63-1.05.63.11.73-.84.21.32.52-.42.21-.21.73.31.31.53.1-.11.53.32.84-.32.63-.42.1-.84-.31-.42.1-.1.42.73.73-.31.21h-1.68l-.21.42.32.21,1.26.21.74.42.31,2.52-.84.74.42.52v.42l-.42.73v.42l-.31.31-.74,1.79.42.73.32,1.68-1.58.73-1.05.21-.42-.21-.32.1.74.94-.11.73.84.21.32.84-1.05.42-.21.31.84.42.73-.31-.1.94-.32.73-.94.74-.63-1.68-.42.21-.11.95-1.26.52-.21.94.1.42.84-.42-.21-.31.31-.31,1.37-.1.52.73-.31,1.15-.74.52.21.21,1.79.21-.11-.74.74-1.15.63-.42,2.42-2.52,1.37-.73.42-.73.31-1.79h.63l1.79-2.1.84-1.37,1.58-.31.11-.84,1.05-1.79.21-.63.1-.73.53-.73.52.1-.52-1.47.42-1.26v-.52l.84-.73-.32-.42.11-.84-.21-.31.74-.94h.52l.32-.31-.95-.63.11-.42.52-.63-.21-1.15.11-.73.73-.21.32-.32-.21-.42.52-1.47-.21-2.1.21-1.78.63-.52-.63-1.68.84-1.36-.21-1.79.53-.42-.21-.31-.21-1.68,1.16-2.41.63.31.94-.52h.53l1.16-.53.42.53.63-.1.31.84.42-.1.21-.31,1.05-.21,1.99,2.41.42-.21v.42l.32.63-.21.31-.74.31v.52l.74.31-.32.73.74.31.63,1.05v1.15l-.42.73.42,1.16.84.21-.31.42v.31l-.32.21h-.1l-.21.31,1.57.42-.1.94-.84,1.47.42.84-.11.42.32.73v1.05l.52.52.42.94,1.05-.42.84-.1-.21-1.36.1-.21.84.21.32-2.1,1.05-.1.53-.52.63-1.58-.32-.73.84-.73.11-.42,1.58-1.16-.11-.42-.42-.21.74-.52.42-.63v-.52l.63.1.73-.73-.42-.74.32-.73.42-.1,1.05-1.89.11-.74.63-.31.94-1.78.53-.52.21-.74,1.05-.63.11-.63.94-.31-.1-.84,2.21-1.89.42.21.73-.42.11-.52,1.47-.52,2.52-.31,1.16.42h.42ZM533.08,62.16l.1.31.21-.31h-.31ZM538.12,78.64l.53.42-.53.42-.52.1.1-1.05.42.1ZM538.85,73.5v-.42h.32l-.32.42ZM539.27,74.86l-.31-.1.1-.42.42.1.11.31-.32.1ZM540.22,73.39v-.31h.31l-.31.31ZM541.69,42.94l-.74.1.21-.42.63-.21.21.42-.32.1ZM542.21,39.79v.42l-.32.31-.31-.31v-.42l.31-.21.32.21ZM541.9,52.6l.42.1-.1-.42h-.32v.31ZM543.26,41.58l.31-.21.21.21h-.52ZM545.99,81.16l.63.42.53.1.21-.42-.32-.31-.84-.32-.63.32.42.21ZM546.73,83.58l-.32.1-.21.42.21.32-.1.84.52-.52.21-.84-.31-.31ZM547.04,87.99l.11-.53h-.42l-.11.74.42-.21ZM548.3,63l-.63.73-.42.21-.1-.63.63-.31h.52ZM547.57,64.47l.1.42-.31-.31.1-.31.11.21ZM548.41,72.55l-.11-.42-.31.1-.11.31.32.21.21-.21ZM549.46,67.09l.95-.63-.42-.21-.42.1-.42.73h.31ZM549.88,69.51l.32-.31-.21-.31-.53.73.21.21.21-.31ZM550.09,62.79l.32-.1v-.31h-.42l-.21.21.31.21ZM550.82,52.92l-.21.1v-.1h.21ZM552.29,55.23l-.21-.31-.1.31h.31ZM552.61,44.2l-.21.1v-.53l.21.42ZM553.87,50.19l-.53.63.63.21.53-.74v-.31l-.32-.1-.31.31ZM553.34,67.2l.74.42.21-.42-.11-.42-.63-.21-.21.31v.31ZM553.66,79.8l.73-.21-.63-.52-.31.1-.11.42.32.21ZM553.97,76.65l.42-.1-.21-.31-.42-.1-.1.52h.31ZM553.97,75.28h-.21l.11.21.1-.21ZM554.29,59.53l.63.42h.42l.53-.63-.11-.31-1.05.31-.74-.21v.42h.32ZM553.97,63.94l.32.42.74-.74.31.1.32-.31-.11-.31-.84.1-.32.52-.42.21ZM554.39,69.51v-.42l-.31.52.31-.1ZM555.13,68.67l-.32.84.74.52,1.68-.52.21-.42h-.42l-.52.31-.84-.42-.21-.63.42-.73-.32-.1-.52.73.1.42ZM555.13,60.48l.11.32.31-.21-.42-.1ZM555.97,81.48l.53-.31-.32-.21-.42.1-.21.42h.42ZM556.28,75.81l.31-.1-.21-.42-.42-.1-.31.21.1.42h.53ZM555.97,58.27l-.1-.21-.11.31.21-.1ZM556.18,83.89l-.42-.1v.42l1.05.53.42-.21.53-.74-.42-.1-.84.42-.32-.21ZM555.86,46.51h.31l-.31-.21v.21ZM555.97,66.67l.42.1.21-.31-.31-.31-.32.31v.21ZM556.39,72.76l.42-.21-.1-.42-.32-.1-.31.42.31.31ZM558.28,73.5l-1.78.21v.42l.63.32-.32.73.32.31.94.21.42-.1.21-.42-.74-.52v-.42l.53-.53-.21-.21ZM557.33,78.12l.31-.31h-.31l-.32.31h.32ZM557.44,80.53l-.1.31.84.63.1.42-.52.63v.31l.95-.52.21-.73-.21-.42-1.26-.63ZM558.28,77.17v-.42h-.52l-.11.42h.63ZM557.86,59.32h.42l.21-.31-.53-.21-.21.42.1.1ZM558.07,67.93l-.21-.1.11.52.1-.42ZM560.17,74.44v-.53l-.74-.1v.42l.63.42.11-.21ZM559.96,69.61l-.11-.31h-.31l.42.31ZM559.85,70.87l.42-.1.11-.31-.53.1-.31.31h.31ZM562.06,70.56l-.84-.42-.11.42.32.63h.74l.21-.42-.32-.21ZM562.27,65.41h.11l-.11-.31v.31ZM563.11,68.67v.1l-.1-.31.1.21ZM564.79,54.07l.32-.11-.32-.52-.42.21.11.42h.31ZM574.97,74.23h-.42l.32-.32.1.32ZM588.52,46.2l.32-.21v-.42l-.63.1-.1.42.42.1ZM599.86,82.63v.52l-.32-.21v-.42l.32.1ZM599.96,78.33l.84.21.74-.42-.63-.53-.95.42v.31ZM600.91,82.11l.1-1.05-.42.1-.21.42.21.52h.32ZM600.7,85.47l.21.21.31-.52h-.52v.31ZM601.01,86.62l.42.1.11-.42-.74-.42-.1.42.31.31ZM602.17,81.69v.63l.42.1-.21-1.68-.42.21-.11.42.32.31ZM604.26,83.79l-.63-.52h-1.15l-.21.31h-.32l-.11.31h.53l.21-.31.53-.1,1.15.73v-.42ZM602.27,79.38l.1-.31-.32.1.21.21ZM602.69,85.57l.31.31-.1.73.94-.21v-.73l.42-.84-.52-.1-.74.42h-.52l.21.42ZM603.42,72.55l.42.1.11-.21-.63-.21.1.31ZM603.53,78.33l.31.21.42-.1.11-.52h-1.05l.21.42ZM604.16,71.19l.52-.53-.42-.1-.42.31v.42l.32-.1ZM604.16,88.41l.31.21.11-.42-.32-.63-.42.11v.42l.32.31ZM604.68,69.61l.74.1.21-.52-.21-.21h-.53l-.63.52.42.1ZM605.42,71.71l-.32.42.32.21.32-.52-.32-.1ZM607.62,57.54l-.32-.11-.84.21-.52.63.1.42,1.37-.52.31-.31-.1-.31ZM606.16,62.47h.31l-.31-.31v.31ZM606.16,88.51h.21l-.21-.31v.31ZM606.68,41.37h-.42l.32-.21.1.21ZM607.83,53.13l-.53.42-.52-.21-.21-.31.21-.21.94-.1.42.21-.31.21ZM607.73,61.95l-1.15.63h1.26l.73-.42-.21-.31-.42-.1-.21.21ZM608.46,77.59l-.42-.21-.11.32.32.21.21-.32ZM608.88,73.5l.42-.21-.42-.21-.1.21.1.21ZM609.09,88.09v-.42l-.31.1v.42l.31-.1ZM609.62,58.06l.94.21.11-.31-.42-.1-.63-.63-.32.53.32.31ZM609.51,69.19h.32l.1-.42h-.42l-.21.21.21.21ZM609.83,56.49l.1-.21-.42-.1-.1.42.42-.1ZM610.35,88.3l-.21-.42-.42-.21.21.63h.42ZM610.25,55.54l.21-.31-.21-.31h-.32v.52l.32.1ZM611.09,79.27l.73-.21-.31-.42h-.32l-.31.31.21.31ZM611.51,46.3l.31-.31-.42-.21-.21.42.32.1ZM611.82,57.96h.42l.1-.31-.32-.32-.31.1-.21.42.31.1ZM611.72,72.45l1.05-.31-.1-.42-.84-.21-.31.31v.42l.21.21ZM612.03,84.84l.21-.42-.53-.11-.11.42.42.1ZM612.03,73.18l-.21.31.32.31.53-.63-.42-.21-.21.21ZM612.25,80.11h-.21l.21.31v-.31ZM612.67,56.17l-.21-.31-.11.31h.32ZM612.67,70.45h-.21l.1.42.11-.42ZM612.56,61.63l.11.21.31-.1-.42-.1ZM613.29,60.69l.42-.1.31-.52-.42.1-.42.52h.11ZM613.5,73.29l.31.1.21-.21-.1-.42h-.42l-.21.31.21.21ZM613.61,77.91l.11.52.42.21v-.42l.42-.63h.31l-.1-.31-.32-.1-1.15.42.31.32ZM613.82,69.3l-.31-.1v.21l.31-.1ZM615.29,71.5l-.84-.21-.84.31-.1.42h.52l.63-.31.63.42.63.94,1.47.52-.21-.94-.42.1-.32-.21-.21-1.05h-.63v.21l-.32-.21ZM614.34,64.89h.31l.42-.31.11-.42-.84.11-.32.31.32.31ZM614.76,66.15l.1-.31-.52-.21-.11.42.53.1ZM614.87,68.98l.21-.42-.63.1v.42l.42-.1ZM614.66,79.48h.32v.31l-.32-.31ZM614.76,89.67l-.11-.31.32-.21.21.21v.42l-.42-.1ZM615.29,55.02v-.31h-.42l-.1.31h.52ZM615.29,74.86l.53-.1-.21-.42-.74.42.42.1ZM615.39,76.44l.42-.21.21-.42-.42-.1-.42.21-.21.52h.42ZM616.55,80.01l-.74.31v-.94l.53-.1.31.31-.1.42ZM616.02,70.24h.21l-.31-.1.1.1ZM616.86,74.97l.32-.31-.53-.1-.21.31.42.1ZM616.65,53.34h.21l-.21-.1v.1ZM618.23,48.82l.1-.52-.42.31.32.21ZM618.75,53.97l-.1.42.32.1.1-.31-.32-.21ZM619.49,60.37h.42v-.42l-.31-.1-.32.31.21.21ZM620.54,47.46l-.1-.32h-.21v.42l.31.21v-.31ZM622.32,58.48l-1.26.52-.32-.73.11-.31.63-.31.74.31.21.42-.11.1ZM622.85,45.67l-.21-.21-.11.31.32.21v-.31ZM623.06,81.27l.52.21.32-.21-.21-.31-.53-.21-.31.21.21.31ZM624.42,50.92l-.52-.32.42-.31.42.21-.32.42ZM626.1,50.29l-.11.31-.21-.31h.32ZM626,42l.32.1-.32.21v-.31ZM633.14,68.77l.11-.42-.32.31.21.1ZM634.19,70.77h-.31l-.21-.31.73-.21.11.42-.32.1Z"/>
      <path class="cls-1" d="M659.18,42.84l.52.42v.84l.32.42.95.52-.21.84.31.52h.42l.32-.31.42.52.52-1.15.95.31.21.84.95.1,1.15.95h.74l.63.42.32.73.31.1.53.73.42.1.63.52.32.84.52.42,1.37-.52.84-.1.52.63.53-.95,1.16-.21.42.1.73-.73.74.73.74.32.21-.32.1-1.05.21-.21,1.05.31.95-1.05.74.94,1.68-1.78.42.21.53.84.31-1.47h2.42l2-1.99,1.15-.52,1.37.63.74-.52.31.21.11.63-.63,1.57-1.47.21-1.15,1.15v.42l-.63.21-1.79-.1-1.26.73-.42-.52-.21.42.63.52-.42.63-.74-.21-1.37,1.26-.73-1.26-.74,1.68-.52-.21h-.74l-2.31,1.57-.21-.21-.32-1.15-.21.31-.11,1.05-.31-.21-.74.1-1.15,1.37-1.26.1-.31.31-.21,1.05.63.84-.11.42-.63.52.32,1.15-.11.42.42.73-.21.74.63.63-.11.84-.53.63-.31.95.73.94-1.57,2.21-.42,1.99-.95,1.05-.63,1.47-.84,1.26-.21.95-1.05.63v.73l-.74.31-.74.94-1.36.73v.42l-.63.84h-.84l-.1.73.21.31-.74.63-.42.1-.94.95-.53-1.05-.84.1-.53.74-.1.52h1.16l.21.21v.42l-1.79.42v.73l-1.26.42-.95-.21-.42-.52h-.74l-.31.21v.95l-.21.42-.53.31-.31-.73-.63.1-.84-.21-.73.73-.42-.21-1.05.52-.42-.21-.11-.31-.53.21-.73-.21-.42-1.05-.74-.31-.42-.63-1.16.21-.63.31.11.73h-.53l-.84-.42v-.42l-.31-.52-1.26-.94h-1.26l-.21-.31.32-.84-.11-.52h-.84l-1.58-.73-.52-.52v-.42l-.84-1.26v-.94l-.84-.73.1-.52-.63-1.89.1-1.05.53-.21.21-.31-.1-.42-.95.42-.42-.21-.32-2,.11-.84.73-1.47-.31-.94-.74-.63.11-.42.42-.42-.32-.84.53-1.99h.52l.42-.63-.42-.84.53-1.15.32-.1.63.42.31-.42-.52-.52.52-1.79,1.05-.42.21-.31-.1-.42-.53-.63.32-.21.31.1.84-.84.1-.84,1.05-1.26.21-.84-.1-.42.31-.21.74.1.52-.63-.63-.42.21-.42.95-.1v-1.05l.42-.42.74-.32.31-.84.95-1.26,1.05-.1.32-.21.1-.84.84-.52,1.26-1.47.32-.73.74-.31,1.68-1.26,1.79.42.63-.1,3.04,1.26.1.31.74.52.42.73h.42ZM641.12,50.61l-.31.21.21-.42.1.21ZM642.49,71.61l.42.1.32-.21.1-.42-.21-.21-.74.11-.21.42.32.21ZM642.28,78.01l.31.21.42-.21v-.21l-.74-.1v.31ZM643.85,77.8l.42-.21.1-.31-.31-.1-.53.53.32.1ZM644.27,67.09l.21-.52-.11-.21-.63.21v.42l.53.1ZM669.16,55.75h-1.26l-.42-.21-.63.42-2.52.21-.84.31-.63-.1-.21.73h-2.1l-.74-.42-.53-.63-.31.31h-.42l-.63-.42-.74.1-.63-.52-.53.52v.42l-2.52,2v1.05l-.31.31-.53.1-.74,1.47-.1.94-1.58,1.36.21,1.79-.52,1.26-.74.42-.11.74-.31.31h-.84l-.53.73.74.73-.42,2-.95.63.84,1.26-.1.52.31,1.16-.73-.21-.21.31.42,1.99,1.05.53.52.63h-1.26l-.31.73.73.21.84-.84.21.31.11.84.84.52,2,.52,4.3-1.99.32.42,3.04-2.21,1.05-1.26.63-.1,1.26-1.15.21-.53,1.26-1.47.11-.73,2.42-1.68.73-2.41,1.05-1.47.95-.73.1-.42,1.16-1.26v-1.36l-.21-.42.11-.84.52-.74-.21-1.57-.42-.63-.31-1.05.21-.84-.11-.42h-.74l-.31-.21ZM647.53,61.21v-.21l-.21.21h.21ZM647.95,58.8l-.32-.31-.21.31.21.31h.32v-.31ZM649.63,68.67l.1.31-.21.1-.31-.31.21-.31.21.21ZM658.45,54.39l.11-.84-.32-.21-.1.52.21.42.1.1ZM659.71,45.46l.32.21.11-.31-.53-.21.1.31ZM666.43,51.45l-.84-.63-1.15-.21-.74-.42h-1.47l-.42-.21-.32.1.11.74,1.68,1.36h1.37l.94.21.63.42,1.16-.31-.63-.94-.32-.1ZM661.91,80.43l.32-.31-.32-.21-.31.21.31.31ZM669.68,63.21l-.1-.31.42-.1-.32.42ZM673.88,59.32l-.21.42-.42-.1.11-.42.52.1ZM686.06,50.19l-.32-.1.32-.1v.21Z"/>
      <path class="cls-1" d="M698.66,18.06l-.21.31.42.1,1.47-.63.63.42v1.78l.32.74.74-1.79.52.1.32.31-.21.42.1.52.53.53.63-.31.42.63v.42l.42.73.74.1v.73l.63.95-.42,1.47.1.84-.95.63.32.84,1.16,1.15,1.78-.42,1.47,1.15.42-.31.42-.73,1.89-.52.53.84,1.26-.52.63.42,1.26-.52.63.42.74-.42.42.1v.94l.42-.1.52-.94h.74v1.15l-.84.21-2,2.21-.73-.31-.21.31h-1.68l-.73-.31-.32.1-.52,1.05-.84-.42-.52.21-.74-.31-.63-.63-1.89.42-.21,1.05-.21.21-.63-.42-.32.1-.84.84-.42.1-.11.42-.63.52v1.15l.53.73.31-.21.42.1-.21.31-.42-.1-.31.21-.21,2-.84.1-.53.31.42,1.89.42.63-.21.52-.84.52.95.84v.84l-.32.21-.31.84v.84l-.63.74.84,1.57-.32.21h-.52l-.42.52-.42,1.79v.73l.21.42-1.37,1.15v.53l.73.42.21.31-.84,1.89.53.84-.95,1.05.32.73-.11.73-.31.31-.11.84-.52.52-.84.1.1.84-.42,1.79.32.73-.32.94-1.37,1.68.32,1.15v.94l-1.05.42-.32.32-.21,1.57,1.05-.52h.42l.32.31-.21.31-1.47.94v.74l.21.31h.94l.84,1.15h.42l.53-.94,1.79-.52.52-.53.42-.84,1.16-.84.11-.42,1.15-.52,1.16-1.37.53.42.1.42.21-.31-.21-.31.42-1.05.84-.21,2-1.26.95-1.26,1.26-.94.21-1.26.31-.63.74.21,1.89-1.47.84-1.26.74.63.32-.21.31-.84-.1-.94.84.21.31-.1.11-1.26.52-.95.84.74.73-.84-.42-1.05.11-.31.73,1.26h.42l.11-2.1.42-.21.84.1,1.05.84-.52,1.26-.11,1.37-.31.31-.95-.94-.42.31.1,1.89-.73.21-.63-.42-.32,1.79-.42.21-.42-.21-.42-.73-.42.42v.31l.63.84-.21.63-.32.31h-.52l-.53.73-1.47.11-.21.42.31.84-.21.42-.73.42-.63-.21-.32.31-.1,1.37-2.83,1.36v.73l-.74.42-.84.1-.42,1.05-.32.21-.73-.31-.32.1.21.42v.94l-.52.52-1.05-.63-.32,1.79-.32.63-1.26.94-.94-.52-.32.21.11.73-.32,1.26-.42.1-.74-.32-.52,1.05h-.74l-.73.52-.42.73-.32.1-1.16,1.26-.31.73.21.84-.21.42-.32-.21-.31-.73-1.26.31-1.15,1.05-.74-.73-.42.1-.21,1.05-.42.21h-2.73l-1.37-.63-.84.21-.84-.21-1.37-1.99-.74-.42-.21-.42.32-.63-.74-.73-.84.21v-1.15l-.73-.95v-.42l.52-.84-1.37-1.78.11-.53-.74-1.36.32-.31.95.31.42-.52v-.42l.73-1.05-.21-.31-.73-.31-.95-1.15.63-.21.32-.31-.42-1.26.95-.1-.1-.42-.53-.63v-.52l.84-1.05-.42-.95.95-.84-.21-.52-.63-.63v-2l1.36-1.26-.1-1.26.21-3.15.94-.31.53-1.05v-.84l-.42-.84.53-.84-.21-.84.31-.63-.63-1.05,1.58-.84.1-1.78-.21-.84,1.16-1.78-.74-.73.42-.1.32.21.73-.42.21-.42-.63-.74.53-.84-.42-1.15v-.74l1.05.21.11-.32-.21-.63v-.94l.84-1.36-.95-1.05-.21-1.15-.32.1-.21,1.15-.84-.31-.42.21-.73,1.05-.53-.1-.63.31-3.25-.21-.84-.84-.84-.1-1.89-.94-.31-.52.42-.52h.53l1.05-.95.42-.1.73.63.74-.42.53.1.84-.52h1.89l.42.74.53-.63.94-.31.32,1.26.42-.21.42-.63.63.21.84-.94.63.1.53-.52.42-1.78-.32-.84.21-2.83.74-.21.32-.73-.11-2.52.53-.52.73.1.74-.84,1.79-.1.84-.31.73-.63,1.47-.1-.11.42ZM689.84,77.8l.31-.1-.1-.42-.32.1-.1.42h.21ZM692.15,78.33l.32-.52h-.63l-.1.42.42.1ZM695.51,67.83l-.11-1.05-.74.42-.1.63h.95ZM697.4,56.91l-.32-.1-.1.31.31.21.11-.42ZM698.56,68.88h-.42l-.31-.31.21-.42h.42l.32.42-.21.31ZM701.18,61.11l-.52-.53.31-.21.42.1.11.32-.32.31ZM708.84,32.65l.32.31v.73l-.74-.42.1-.73.32.1ZM721.13,30.76l-2.1,1.15h-.42l-.42-.31.31-.94.42-.21h.84l.84-1.05.63.94-.11.42ZM719.45,59.64l.21-.31h-.21v.31ZM723.75,30.13l-1.68.74v.73l-.42-.1-.11-.42.21-.74h.53l1.37-.63.1.42ZM722.28,29.61l-.42-.42.21-.42.42.1.11.42-.32.31ZM722.7,54.18l-.21.21-.31-.1.21-.42.31-.1v.42ZM724.49,54.39l.31.63-.52.52-.53-.1.32-1.05h.42ZM724.38,57.22l-.42.1-.1-.42.63-.1-.11.42ZM724.38,52.71l-.31.1v-.31h.52l-.21.21ZM727.53,51.76l-.32.84-.84-.1-.31.21-.32,1.47-.31.21-.32-.53.21-2.52.32-.21,1.78.21.11.42ZM729.11,51.34l-.32.1-.32-.21.53-.42.32.21-.21.31Z"/>
    </g>
  </g>
</svg>