<?xml version="1.0" encoding="UTF-8"?>
<svg id="Layer_2" data-name="Layer 2" xmlns="http://www.w3.org/2000/svg" viewBox="0 0 193.98 95.23">
  <defs>
    <style>
      .cls-1 {
        fill: none;
        stroke: #875f59;
        stroke-linecap: round;
        stroke-linejoin: round;
        stroke-width: 3px;
      }
    </style>
  </defs>
  <g id="Layer_1-2" data-name="Layer 1">
    <path class="cls-1" d="M5.58,12c.11.19,11.79-7.06,11.9-6.87.27.47-15.08,13.98-14.82,14.42.28.48,26.91-16.14,27.17-15.69.38.65-27.25,20.13-26.86,20.8.45.79,38.92-23.47,39.35-22.72C42.93,3.01.8,29.65,1.51,30.88c.51.88,43.74-26.38,44.22-25.53.61,1.05-43.42,28.8-42.68,30.09.64,1.1,53.01-31.95,53.59-30.94.66,1.14-50.54,33.39-49.85,34.59C7.64,40.54,70.94,0,71.83,1.54c.82,1.42-67.35,41.6-66.26,43.48S76.88,1.59,77.86,3.28C79.03,5.3,3.55,49.62,4.52,51.3,5.77,53.45,84.13,2.71,85.27,4.68,86.6,6.98,6.54,53.17,7.92,55.56S97.93.9,99.1,2.92C100.37,5.12,3.87,60.78,5.05,62.83,6.68,65.64,107.79.74,109,2.82,110.68,5.74,5.5,63.77,7.28,66.83,8.53,69.01,118.02-.75,119.6,1.98c1.33,2.3-112.2,67.04-110.8,69.46C10.28,74.02,126.95-1.33,128.92,2.09S2.12,76.79,3.84,79.77C5.78,83.14,136.75-.78,138.4,2.08,140.54,5.78,4.42,80.54,6.19,83.61,8.11,86.94,144.24-.63,146.21,2.77S7.91,84.65,9.76,87.86C12.1,91.91,155.93-.57,157.67,2.46c2.08,3.6-142.94,83.62-140.68,87.54S163.1-.04,165.56,4.22c1.75,3.03-143.15,83.72-141.05,87.36S170.99,2.73,172.85,5.94c2.36,4.08-140.45,82.71-138.44,86.19S183.28.77,185.62,4.82,44.17,87.87,46.21,91.4c2.23,3.87,138.83-84.53,140.72-81.25,2.04,3.53-130.4,77.43-128.6,80.54S188.03,10.77,190.22,14.55c1.66,2.88-126.8,75.65-125.29,78.27S187.13,18.18,188.91,21.24c1.93,3.35-114.99,68.21-113.07,71.54,1.36,2.35,109.29-66.13,110.61-63.86,1.77,3.07-103.42,61.85-101.98,64.35,1.18,2.04,98.79-60.37,100.24-57.87,1.29,2.23-88.69,53.62-87.36,55.93,1.16,2,88.6-54.35,89.98-51.95s-80.45,49.42-79.29,51.42c1.08,1.87,80.28-49.37,81.59-47.11,1.13,1.96-70.15,44.39-69.31,45.84.93,1.61,66.55-40.63,67.5-38.97s-61.17,39.29-60.4,40.63c.87,1.5,64.36-38.77,65.06-37.56.92,1.59-53.11,34.98-52.34,36.31.56.97,46.85-28.71,47.57-27.46s-37.71,26-37.04,27.16c.48.82,37.08-22.83,37.69-21.76.54.94-35.43,24.84-34.85,25.85.32.56,30.82-18.77,31.24-18.04.25.44-17.67,14.91-17.35,15.45.25.43,22-13.24,22.23-12.83"/>
  </g>
</svg>