<?xml version="1.0" encoding="UTF-8"?>
<svg id="Layer_2" data-name="Layer 2" xmlns="http://www.w3.org/2000/svg" viewBox="0 0 32.18 31.65">
  <defs>
    <style>
      .cls-1 {
        fill: #828282;
      }
    </style>
  </defs>
  <g id="Layer_1-2" data-name="Layer 1">
    <path class="cls-1" d="M29.72,2.46v1.56l-11.42,14.88c-.54.7-.84,1.58-.84,2.47v7.81h-2.72v-7.81c0-.89-.3-1.76-.84-2.47L2.46,4.03v-1.56h27.25M30.54,0H1.64C.73,0,0,.72,0,1.61v2.72c0,.35.12.69.33.97l11.6,15.12c.21.28.33.62.33.97v8.66c0,.89.73,1.61,1.64,1.61h4.38c.9,0,1.64-.72,1.64-1.61v-8.67c0-.35.12-.69.33-.97l11.61-15.12c.21-.28.33-.62.33-.97V1.61c0-.89-.73-1.61-1.64-1.61h0Z"/>
  </g>
</svg>