<?xml version="1.0" encoding="UTF-8"?>
<svg id="Layer_2" data-name="Layer 2" xmlns="http://www.w3.org/2000/svg" viewBox="0 0 209.39 101.27">
  <defs>
    <style>
      .cls-1 {
        fill: #fff;
        font-family: ArialNarrow-Bold, Arial;
        font-size: 36.26px;
        font-weight: 700;
      }

      .cls-2 {
        fill: none;
        stroke: #875f59;
        stroke-linecap: round;
        stroke-linejoin: round;
        stroke-width: 3px;
      }
    </style>
  </defs>
  <g id="Layer_1-2" data-name="Layer 1">
    <g>
      <path class="cls-2" d="M4.82,20.52c.11.19,11.99-7.18,12.1-6.99.27.47-15.06,13.97-14.8,14.41.29.5,27.96-16.78,28.23-16.3.39.67-28.1,20.6-27.71,21.29.48.84,40.83-24.63,41.29-23.84.64,1.11-43.16,28.59-42.43,29.87.54.94,46.43-28.01,46.95-27.11.64,1.11-45.87,30.12-45.08,31.48.68,1.18,56.5-34.07,57.13-32.98.7,1.21-53.77,35.16-53.04,36.43.9,1.56,68.47-41.73,69.42-40.08.87,1.5-71.49,43.84-70.34,45.83S82.95,5.99,84,7.82c1.24,2.15-79.19,49.01-78.16,50.8,1.34,2.32,85.52-52.21,86.75-50.08,1.42,2.46-84.46,51.57-82.98,54.13S106.45,3.85,107.71,6.03c1.36,2.35-101.89,61.52-100.63,63.71C8.83,72.77,117.47,3.01,118.77,5.26c1.81,3.14-111.05,65.02-109.15,68.3C10.97,75.92,128.76.84,130.47,3.79c1.43,2.47-120.5,71.6-119.01,74.19C13.07,80.77,138.79-.45,140.92,3.24S4.95,82.96,6.78,86.15C8.89,89.79,149.76-.51,151.54,2.58,153.84,6.57,6.81,86.92,8.72,90.23,10.81,93.85,158.29-1.05,160.42,2.65S9.68,91.33,11.7,94.82C14.26,99.26,171.28-1.74,173.19,1.58c2.29,3.96-157.71,91.62-155.22,95.93C20.54,101.96,179.67-2.13,182.39,2.59c1.96,3.39-160.22,93-157.87,97.07S187.11,1.03,189.17,4.6c2.61,4.52-155.68,91.02-153.46,94.86C37.8,103.08,197.81-.04,200.37,4.39S46.56,94.17,48.77,98c2.42,4.19,149.98-91.33,152.03-87.77,2.19,3.79-140.53,82.97-138.6,86.32S201.05,10.97,203.39,15.03c1.77,3.06-134.98,80.15-133.37,82.93,1.61,2.79,130.34-79.63,132.23-76.35,2.05,3.55-122.06,72.03-120.03,75.56,1.45,2.51,116.53-70.52,117.94-68.09,1.87,3.25-109.71,65.29-108.18,67.92,1.26,2.17,105.22-64.31,106.76-61.64,1.37,2.37-94.16,56.59-92.74,59.04,1.23,2.13,94.22-57.8,95.69-55.25s-85.06,51.93-83.84,54.05c1.15,1.98,85.08-52.33,86.47-49.92,1.19,2.06-73.86,46.44-72.98,47.96.98,1.7,70.51-43.05,71.52-41.29s-64.03,40.86-63.22,42.26c.92,1.59,67.49-40.67,68.23-39.39.95,1.64-55.05,36.03-54.25,37.41.59,1.02,49.09-30.08,49.84-28.78.71,1.22-38.81,26.59-38.12,27.78.49.86,38.47-23.69,39.11-22.58.54.94-35.67,24.97-35.08,25.98.33.57,31.39-19.11,31.82-18.37.25.43-17.11,14.6-16.8,15.13.24.41,21.52-12.95,21.75-12.56"/>
      <text class="cls-1" transform="translate(57.64 63.67) rotate(-3.53) scale(.96 1)"><tspan x="0" y="0">Projets</tspan></text>
    </g>
  </g>
</svg>