<?xml version="1.0" encoding="UTF-8"?>
<svg id="Layer_2" data-name="Layer 2" xmlns="http://www.w3.org/2000/svg" viewBox="0 0 37.07 32.19">
  <defs>
    <style>
      .cls-1 {
        fill: #828282;
      }
    </style>
  </defs>
  <g id="Layer_1-2" data-name="Layer 1">
    <g>
      <path class="cls-1" d="M37.07,4.44c0,.64-.53,1.15-1.15,1.15h-4.03c2.4,2.82,3.85,6.47,3.85,10.47,0,3.36-1.04,6.47-2.81,9.05-.43.63-.89,1.23-1.39,1.79-.35.39-.71.75-1.09,1.1-3.06,2.78-7.21,4.4-11.72,4.17-3.08-.16-5.94-1.22-8.34-2.9-.07-.15-.11-.32-.11-.49,0-.25.08-.5.25-.71.35-.47,1.01-.59,1.51-.27,1.41.9,2.97,1.54,4.64,1.89,4.3.9,8.55-.32,11.69-2.94.13-.11.26-.22.39-.34.24-.21.47-.43.69-.66h0c.22-.23.44-.47.63-.71,1.2-1.38,2.13-3.01,2.69-4.79,1.54-4.9.25-9.88-2.85-13.38v.17s-.27,4.65-.27,4.65c-.02.62-.53,1.09-1.14,1.09-.02,0-.05,0-.07,0-.51-.02-.92-.38-1.04-.84-.02-.1-.04-.21-.04-.31v-.07l.37-6.53v-.17s.02-.4.02-.4v-.02s0-.04,0-.07c0-.07.02-.14.03-.21,0-.02,0-.03.02-.04.02-.06.03-.11.05-.16,0-.02.02-.04.03-.07.03-.04.06-.09.09-.13.08-.12.19-.22.31-.29.17-.12.39-.19.62-.19h7c.18,0,.36.04.51.12.38.19.64.58.64,1.03Z"/>
      <path class="cls-1" d="M10.98,18.95l-1.69,6.32-.04.16-.11.39v.02s-.02.03-.02.06c-.02.07-.05.14-.07.21,0,.02-.02.02-.02.04-.02.05-.05.1-.08.14-.02.02-.02.03-.04.05-.04.04-.07.08-.12.12-.1.09-.22.17-.36.21-.2.08-.42.11-.64.06l-.25-.05-6.6-1.37c-.18-.04-.35-.12-.48-.24-.33-.25-.5-.69-.41-1.13.12-.62.74-1.03,1.36-.9l3.94.82c-1.77-3.25-2.44-7.12-1.63-11.03.59-2.86,1.93-5.39,3.76-7.43.18-.2.36-.4.55-.6.17-.17.35-.35.53-.52.25-.22.49-.44.75-.66.21-.17.42-.34.62-.49.12-.09.24-.17.36-.25s.25-.16.37-.25c.16-.1.3-.21.46-.3,0,0,.02,0,.02-.02C14.73.16,19.19-.63,23.64.54c.74.2,1.46.44,2.15.74.18.21.28.49.28.76,0,.16-.03.34-.12.5-.26.53-.88.79-1.43.58-1.57-.6-3.22-.9-4.93-.9-3.23,0-6.2,1.12-8.56,2.98-.16.12-.3.24-.44.36-1.25,1.04-2.33,2.32-3.14,3.78-2.51,4.48-2.27,9.61.06,13.67l.04-.16,1.21-4.5c.16-.59.75-.95,1.34-.83.02,0,.05,0,.07.02.49.13.82.56.85,1.04,0,.11,0,.21-.02.31l-.02.07Z"/>
    </g>
  </g>
</svg>