<?xml version="1.0" encoding="UTF-8"?>
<svg id="Layer_2" data-name="Layer 2" xmlns="http://www.w3.org/2000/svg" viewBox="0 0 32.85 35.79">
  <defs>
    <style>
      .cls-1 {
        fill: #161616;
      }
    </style>
  </defs>
  <g id="Layer_1-2" data-name="Layer 1">
    <g>
      <path class="cls-1" d="M16.56,20.63h-7.4v-1.79c0-.41-.34-.75-.75-.75s-.75.34-.75.75v1.79H.75c-.41,0-.75.34-.75.75s.34.75.75.75h12c-1.27,2.57-2.83,4.62-4.69,6.17-2.05-1.57-3.31-3.26-3.9-5.2-.12-.4-.54-.62-.94-.5-.4.12-.62.54-.5.94.72,2.37,2.25,4.22,4.09,5.71-1.48.99-3.12,1.71-4.95,2.15-.4.1-.65.5-.55.91.08.34.39.57.73.57.06,0,.12,0,.18-.02,2.17-.53,4.12-1.43,5.86-2.68,1.58,1.07,3.29,1.92,4.87,2.64.1.04.2.07.31.07.29,0,.56-.17.69-.44.17-.38,0-.82-.38-.99-1.64-.74-3.05-1.48-4.24-2.25,2.05-1.79,3.75-4.15,5.09-7.05h2.13c.41,0,.75-.34.75-.75s-.34-.75-.75-.75Z"/>
      <g>
        <path class="cls-1" d="M29.11,29.35c1.89-1.7,2.9-4.37,2.99-7.95.01-.41-.32-.76-.73-.77-.41-.02-.76.32-.77.73-.08,3.15-.92,5.46-2.5,6.87-1.41,1.26-3.48,1.88-6.17,1.83l3.67-2.88c.33-.26.38-.73.13-1.05-.25-.33-.73-.38-1.05-.13l-5.1,4c-.17.13-.27.33-.29.54-.02.21.06.42.21.57l4.26,4.45c.15.15.34.23.54.23.19,0,.37-.07.52-.21.3-.29.31-.76.02-1.06l-2.84-2.96c.06,0,.12,0,.18,0,2.95,0,5.27-.74,6.91-2.22Z"/>
        <path class="cls-1" d="M13.32.23c-.29-.3-.76-.31-1.06-.02-.3.29-.31.76-.02,1.06l2.84,2.96c-3.12-.02-5.53.74-7.15,2.28-1.85,1.76-2.71,4.53-2.57,8.25.02.4.35.72.75.72,0,0,.02,0,.03,0,.41-.02.74-.36.72-.78-.13-3.27.58-5.66,2.1-7.11,1.35-1.28,3.43-1.9,6.19-1.87l-3.66,2.87c-.33.26-.38.73-.13,1.05.15.19.37.29.59.29.16,0,.32-.05.46-.16l5.1-4c.17-.13.27-.33.29-.54.02-.21-.06-.42-.21-.57L13.32.23Z"/>
      </g>
      <path class="cls-1" d="M32.77,13.28l-1.71-4.03-2.35-5.5c-.27-.64-.87-1.03-1.56-1.04h-.01c-.69,0-1.28.38-1.56,1.01l-4.3,9.57c-.2.46,0,.99.46,1.19.12.06.24.08.36.08.35,0,.68-.19.83-.53l1.58-3.53h5.12l1.49,3.49c.19.46.72.67,1.18.47.46-.19.67-.72.47-1.18ZM25.32,8.7l1.81-4.05,1.73,4.05h-3.54Z"/>
    </g>
  </g>
</svg>