<?xml version="1.0" encoding="UTF-8"?>
<svg id="Layer_2" data-name="Layer 2" xmlns="http://www.w3.org/2000/svg" xmlns:xlink="http://www.w3.org/1999/xlink" viewBox="0 0 247 473.8">
  <defs>
    <style>
      .cls-1 {
        fill: #fcd7ac;
        opacity: .66;
      }

      .cls-2 {
        fill: #ffd49c;
      }

      .cls-3 {
        fill: #4c6865;
      }

      .cls-3, .cls-4 {
        opacity: .22;
      }

      .cls-5 {
        opacity: .16;
      }

      .cls-5, .cls-6, .cls-7 {
        fill: #fff;
      }

      .cls-8 {
        fill: #49392d;
      }

      .cls-8, .cls-9 {
        opacity: .38;
      }

      .cls-10 {
        opacity: .11;
      }

      .cls-10, .cls-11 {
        fill: #0c1111;
      }

      .cls-12 {
        fill: #deb988;
      }

      .cls-11 {
        opacity: .19;
      }

      .cls-13 {
        opacity: .08;
      }

      .cls-13, .cls-14 {
        fill: #f3dec2;
      }

      .cls-15 {
        fill: #8e725b;
      }

      .cls-9 {
        fill: #775f4d;
      }

      .cls-16 {
        fill: #8c9998;
        opacity: .58;
      }

      .cls-17 {
        fill: #7a6046;
        opacity: .29;
      }

      .cls-18 {
        fill: #fff5db;
        opacity: .3;
      }

      .cls-4 {
        fill: #afd8d7;
      }

      .cls-14 {
        opacity: .1;
      }

      .cls-6 {
        opacity: .13;
      }

      .cls-19 {
        opacity: .4;
      }

      .cls-19, .cls-20 {
        fill: #9ed1d6;
      }

      .cls-21 {
        fill: #514034;
        opacity: .2;
      }

      .cls-22 {
        fill: #d8a971;
        opacity: .25;
      }

      .cls-23 {
        clip-path: url(#clippath);
      }

      .cls-7 {
        opacity: .26;
      }

      .cls-24 {
        fill: #b58e63;
      }

      .cls-20 {
        opacity: .14;
      }
    </style>
    <clipPath id="clippath">
      <path class="cls-19" d="M244.69,228.73l-63.29,225.23c-.43,1.54-1.35,2.89-2.62,3.85l-2.77,2.11c-1.01,4.14-1.17,5.57-1.81,6.9-8.54,17.7-83.23-3.54-91.97-6.1-7.87-2.05-83.98-22.4-82.2-42.11.14-1.48.74-2.78,2-6.85l-1.3-3.23c-.59-1.48-.69-3.11-.27-4.65l61.52-225.72c6.96-26.32,30.92-45.3,74.55-55.81,1.69-.41,3.03-1.7,3.49-3.38l16.94-61.2-2.28-4.9-3.97-1.1c-1.6-.44-2.75-1.92-2.67-3.58.31-6.58,6.96-11.37,25.45-6.55,5.27,1.38,40.87,11.24,45.72,12.65,18.33,5.38,21.58,12.9,18.46,18.7-.79,1.46-2.52,2.14-4.13,1.7l-3.97-1.1-4.47,3.03-16.94,61.2c-.46,1.67.02,3.47,1.26,4.69,32.02,31.44,42.81,60.04,35.25,86.2Z"/>
    </clipPath>
  </defs>
  <g id="Layer_1-2" data-name="Layer 1">
    <g id="Bouteille">
      <g id="Bouchon">
        <g>
          <path class="cls-15" d="M246.7,26.2s0,.04,0,.06l-7.7,31.41c-.2.84-1.01,1.84-1.69,2.56-.07.07-.14.15-.21.22-.47.48-.83.8-.83.8-1.05.58-2.29.72-3.45.4l-5.75-1.59c-.55-.15-1.14-.1-1.66.15-.04.02-.07.03-.11.05-.81.41-1.4,1.15-1.65,2.02l-10.68,37.5c-.22.78-.47,1.55-.75,2.3-.92,2.53-2.16,4.93-3.73,7.14-.91,1.28-1.84,2.44-2.82,3.47-2.85,3.04-7.2,4.32-11.28,3.25-4.41-1.16-9.68-1.6-13.78-3.39-4.45-.57-10.11-3.16-14.49-4.43-4.04-1.18-7.12-4.51-8.01-8.58-.3-1.39-.5-2.87-.63-4.43-.25-3.21.04-6.42.79-9.54.06-.29.14-.58.22-.87l10.12-37.65c.25-.91.09-1.89-.44-2.68-.02-.02-.03-.05-.04-.07,0,0,0,0,0,0-.32-.44-.78-.76-1.3-.91l-5.75-1.59c-1.16-.33-2.15-1.08-2.75-2.12,0,0-.09-.29-.21-.74-.26-.98-.61-2.71-.29-3.74l9.55-30.9c.23-.57.53-1.07.89-1.53,1.91-2.44,5.39-3.26,8.72-2.48,11.38,2.02,21.78,4.69,32.05,7.83,7.88,1.96,15.69,4.18,23.71,6.94,2.57.88,5.17,1.82,7.8,2.82,3.83,1.22,6.72,4.47,6.19,8.31Z"/>
          <path class="cls-9" d="M237.09,60.45c-.47.48-.83.8-.83.8-1.05.58-2.29.72-3.45.4l-5.75-1.59c-.55-.15-1.14-.1-1.66.15-.04.02-.07.03-.11.05-4.07-1.38-19.5-6.58-29.7-9.4-9.58-2.65-22.34-5.47-27.46-6.57,0,0,0,0,0,0-.32-.44-.78-.76-1.3-.91l-5.75-1.59c-1.16-.33-2.15-1.08-2.75-2.12,0,0-.09-.29-.21-.74,4.75-.01,20.83,3.46,39.68,8.68,18.09,5.01,34.83,11.1,39.26,12.81.02,0,.03.01.05.03Z"/>
          <path class="cls-13" d="M246.7,26.2s0,.04,0,.06l-7.7,31.41c-.2.84-1.01,1.84-1.69,2.56-.34,0-.71-.06-1.12-.13-2.4-.46-5.83-1.95-7.53-2.73-.64-.29-1.04-.49-1.04-.49,4.73-5.86,8.64-24.38,7.34-35.19-.35-2.89-1.07-5.23-2.25-6.62,2.57.88,5.17,1.82,7.8,2.82,3.83,1.22,6.72,4.47,6.19,8.31Z"/>
          <path class="cls-21" d="M212.2,102.09c-.92,2.53-2.16,4.93-3.73,7.14-.91,1.28-1.84,2.44-2.82,3.47-2.85,3.04-7.2,4.32-11.28,3.25-4.41-1.16-9.68-1.6-13.78-3.39-4.45-.57-10.11-3.16-14.49-4.43-4.04-1.18-7.12-4.51-8.01-8.58-.3-1.39-.5-2.87-.63-4.43-.25-3.21.04-6.42.79-9.54.02.01.04.03.05.04,14.97,13.3,34.52,19.06,53.89,16.48Z"/>
          <path class="cls-8" d="M172.49,16.19c.21.52.98.8,1.85,1.05.3.09.84.13.76-.06-.14-.33-2.67-1.63-2.61-.99Z"/>
          <path class="cls-8" d="M162.58,78.48c-.04,1.3.62,1.68,1.4,1.92.27.08.81-.08.82-.54.02-.82-1.96-3.1-2.22-1.38Z"/>
          <path class="cls-8" d="M208.29,66.8c.05,1.07.26,1.5.9,1.35.21-.05.1-.26.08-.64-.04-.68-.83-2.1-.97-.71Z"/>
          <path class="cls-8" d="M203.11,34.35c.13-1.44-.09-2.09-1.07-2.1-.33,0-.2.31-.24.83-.07.92.81,3.08,1.31,1.27Z"/>
          <path class="cls-8" d="M204.74,67.76c.05,1.6.75.54,1.21,1.22.25.37.83-.49.81-1.06-.04-1.02-1.78-2.26-2.02-.16Z"/>
          <path class="cls-8" d="M204.53,36.27c.05,1.07.26,1.5.9,1.35.21-.05.1-.26.08-.64-.04-.68-.83-2.1-.97-.71Z"/>
          <path class="cls-8" d="M200.98,37.24c.05,1.6.75.54,1.21,1.22.25.37.83-.49.81-1.06-.04-1.02-1.78-2.26-2.02-.16Z"/>
          <path class="cls-8" d="M168.37,21.31c.49,2.2,1.96,3.46,2.21,2.96.2-.39.89-.77.7-1.56-.34-1.4-2.89-4.21-2.91-1.4Z"/>
          <path class="cls-8" d="M170.05,66.89c-.05,4.27.07.33,1.56,1.55,1.13.93.14-5.89-1.56-1.55Z"/>
          <path class="cls-8" d="M222.73,32.78c.15.72.91,1.04,1.77,1.29.3.09.85.08.79-.18-.1-.46-2.54-2.03-2.56-1.11Z"/>
          <path class="cls-8" d="M224.29,30.03c.83-1.24,2.01-1.13,3.23-.82.43.11,1.06.63.76,1.07-.54.78-4.82,1.53-3.99-.25Z"/>
          <path class="cls-14" d="M246.7,26.2c-3.89-1.56-7.8-3.07-11.74-4.51-21.73-8.02-44-14.36-66.72-18.92,1.91-2.44,5.39-3.26,8.72-2.48,11.38,2.02,21.78,4.69,32.05,7.83,7.88,1.96,15.69,4.18,23.71,6.94,2.57.88,5.17,1.82,7.8,2.82,3.83,1.22,6.72,4.47,6.19,8.31Z"/>
        </g>
      </g>
      <g>
        <g>
          <path class="cls-19" d="M244.69,228.73l-63.29,225.23c-.43,1.54-1.35,2.89-2.62,3.85l-2.77,2.11c-1.01,4.14-1.17,5.57-1.81,6.9-8.54,17.7-83.23-3.54-91.97-6.1-7.87-2.05-83.98-22.4-82.2-42.11.14-1.48.74-2.78,2-6.85l-1.3-3.23c-.59-1.48-.69-3.11-.27-4.65l61.52-225.72c6.96-26.32,30.92-45.3,74.55-55.81,1.69-.41,3.03-1.7,3.49-3.38l16.94-61.2-2.28-4.9-3.97-1.1c-1.6-.44-2.75-1.92-2.67-3.58.31-6.58,6.96-11.37,25.45-6.55,5.27,1.38,40.87,11.24,45.72,12.65,18.33,5.38,21.58,12.9,18.46,18.7-.79,1.46-2.52,2.14-4.13,1.7l-3.97-1.1-4.47,3.03-16.94,61.2c-.46,1.67.02,3.47,1.26,4.69,32.02,31.44,42.81,60.04,35.25,86.2Z"/>
          <g class="cls-23">
            <path class="cls-20" d="M193.45,48.02l-23.84,86.15c-3.97,14.34-15.18,25.53-29.53,29.48C59.94,185.68,28.48,443.9,28.48,443.9c-8.35-2.19-33.16-5.54-31.38-25.18.14-1.48.74-2.78,2-6.85l-1.3-3.23c-.59-1.48-.69-3.11-.27-4.65l61.52-225.72c7.11-26.86,31.92-46.09,77.28-56.45l17.7-63.93-2.28-4.9-3.97-1.1c-1.6-.44-2.75-1.92-2.67-3.58.31-6.58,6.96-11.37,25.45-6.55,2.62.69,12.76,3.47,22.87,6.27Z"/>
            <path class="cls-4" d="M156.92,58.66c-4.19,20.97-9.31,43.03-14.23,63.9,0,0-.45,1.91-.45,1.91-20.04,4.58-41.67,10.04-56.28,25.3-9.1,9.57-14.58,22.21-18.82,34.67-6.36,18.99-11.32,40.88-16.29,60.41-13.51,54.54-29.62,108.67-51.26,160.58,10.54-40.32,21.42-81.65,31.01-122.26,5.9-24.33,13.23-58.14,19.83-81.9,14.64-53.77,31.82-74.52,88.43-82.88,0,0-2.6,2.39-2.6,2.39,6.49-20.44,13.47-41.96,20.65-62.12h0Z"/>
          </g>
        </g>
        <path class="cls-6" d="M227.41,186.91c-5.4,5.85-11.11-5.87-24.49-12.26-13.38-6.39-16.64-8.61-18.64-14.24-4.09-11.49,9.37-14.77,22.75-8.38,13.38,6.39,28.66,25.93,20.38,34.88Z"/>
        <path class="cls-6" d="M208.17,203.25c-3.26-17.97,23.26-11.42,26.88-4.29,12.12,23.89-15.2,88.33-20.37,101.75-5.71,14.83-19.14,6.72-14.79-7.3,10.75-34.64,15.22-51.82,8.28-90.16Z"/>
        <path class="cls-11" d="M11.33,418.14c21,11.07,43.28,19.55,65.93,26.59,22.65,6.93,45.77,12.67,69.28,15.7,5.64.59,21.77,2.63,25.77-1.1,2.95-3.79-11.14-11.15-13.92-12.75,3.91,1.98,14.8,7.04,15.15,11.66-.21,6.56-22.46,4.11-27.17,3.7-23.71-2.61-46.94-8.33-69.66-15.45-22.63-7.28-44.89-16.24-65.38-28.35h0Z"/>
        <path class="cls-7" d="M164.73,39.95c2.96.66,6.23,1.1,9.1,1.79,16.95,4.04,32.18,8.76,49.66,13.87,3.06.9,6.47,2.65,8.7,4.25,4.83,3.45,4.02,7.58-1.43,5.36-26.36-10.75-46.68-19.95-71.97-19.39-4.8.11-5.93-4.65-3.03-5.62,1.51-.5,6.81-.73,8.97-.25Z"/>
        <path class="cls-5" d="M157.03,50.01c19.37,1.81,65.17,17.17,71.83,21.5.38.25.74-.12.33-.35-20.24-11.57-68.88-23.27-72.23-21.62-.28.14-.42.39.07.48h0Z"/>
        <path class="cls-5" d="M157.03,57.84c9.01-2,63.58,12.86,68.22,18.03.24.27.46.08.21-.19-8.81-9.3-63.75-21.88-68.52-18.11-.28.22-.27.22.09.27h0Z"/>
        <path class="cls-7" d="M221.51,55.71c-.26.95-11.07-1.3-22.61-4.49-11.54-3.19-17.33-5.66-17.07-6.61s7.65,1.47,19.19,4.66c11.54,3.19,20.76,5.49,20.49,6.44Z"/>
        <path class="cls-10" d="M228.07,75.73c-21.59-15.59-46.23-21.37-72.82-21.19,25.61,3.53,49.95,10.19,72.82,21.19Z"/>
      </g>
      <path class="cls-3" d="M171.99,469.58c-2.04,7.37-44.9,3.57-90.46-9.04C35.99,447.93.69,431.44.12,420.67c-.4-7.63,43.25.57,88.8,13.18s85.11,28.36,83.07,35.72Z"/>
      <path class="cls-16" d="M172.55,466.17c.59-1.8,1.37-4.25,1.79-5.76,2.3-8.31-33.82-25.57-80.68-38.54-46.86-12.97-86.71-16.74-89.01-8.43l-1.94,7s.04.02.09.04c-.16,8.56,35.21,25.2,80.72,37.8,43.28,11.98,80.57,16.1,87.79,10.09.32.05.5.07.5.07,0,0,.13-.39.33-1,.15-.24.26-.49.33-.75.05-.17.07-.34.09-.52Z"/>
      <g>
        <path class="cls-12" d="M212.79,169.44s-28.91,21.83-59.81,16.09c-30.9-5.74-53.56-25.56-53.06-28.89,1.27-8.45,26.58-9.43,54.77-4.87,31.01,5.01,58.1,17.67,58.1,17.67Z"/>
        <ellipse class="cls-12" cx="148.88" cy="166.28" rx="13" ry="49.7" transform="translate(-41.95 282.04) rotate(-79.4)"/>
        <path class="cls-12" d="M212.79,169.44c-20.57,36.04-38.84,92.78-55.14,152.92l13.53-155.97,41.62,3.05Z"/>
        <path class="cls-2" d="M155.8,424.36c.05,2.43.12,4.85.2,7.27.16.76.19,1.49.07,2.2-.78,4.87-8.05,7.18-18.83,7.35-7.68.13-17.14-.84-27.33-2.73-24.47-4.56-43.84-11.59-42.5-19.94.05-.29.13-.59.23-.88,23.62-92.77,36.68-180.16,32.34-259.09-.02-.45,0,0-.07-1.89.04.92,1.52,2.03,4.12,3.24,2.77,1.29,6.83,2.71,11.79,4.13,20.41,5.85,56.25,11.9,82.04,10.53-32.01,75.43-44.16,161.28-42.08,249.8Z"/>
        <path class="cls-2" d="M111.87,160.27c-5.79-1.77-5.67-2.54-5.6-3.05.1-.66.27-1.77,13.51-.48,8.22.8,19.08,2.33,30.58,4.3,11.5,1.97,22.26,4.14,30.31,6.12,12.96,3.19,12.79,4.3,12.69,4.96h0c-.1.66-.27,1.77-13.51.48-8.22-.8-19.08-2.33-30.58-4.3-11.5-1.97-22.26-4.14-30.31-6.12-3.03-.74-5.34-1.38-7.1-1.91ZM107.52,157.44c1.89,1.48,16.8,5.52,41.91,9.81,25.11,4.3,40.46,5.43,42.69,4.66-1.89-1.48-16.8-5.52-41.91-9.82-25.11-4.3-40.46-5.43-42.69-4.66Z"/>
        <path class="cls-18" d="M179,189.16h0c6.84-.05,5.68,6.8,5.21,7.98-14.25,34.96-38.38,148.22-33.04,210.85.03.33-.47,9.15-3.24,9.19-1.13.01-5.17-1.1-5.28-6.7-1.69-88.59,13.47-188.1,29.14-218.24,1.36-2.62,3.96-3.13,7.21-3.08Z"/>
        <path class="cls-22" d="M88.15,185.33c-.03-.76-.08-1.53-.13-2.29,0-.28-.02-.54-.03-.82.05,1.04.1,2.07.15,3.11Z"/>
        <path class="cls-22" d="M156,431.63c.16.76.19,1.49.07,2.2-.78,4.87-8.05,7.18-18.83,7.35-7.68.13-17.14-.84-27.33-2.73-24.47-4.56-43.84-11.59-42.5-19.94.05-.29.13-.59.23-.88,23.62-92.77,36.68-180.16,32.34-259.09-.02-.45,0,0-.07-1.89.04.92,1.52,2.03,4.12,3.24,2.77,1.29,6.83,2.71,11.79,4.13,1.07,11.88,1.63,23.81,1.71,35.74.2,33.78-4.17,67.34-10.38,100.49-7.27,38.84-16.62,77.26-25.21,115.83,8.97,3.53,18.1,6.63,27.48,8.85,8.38,1.71,16.89,2.62,25.45,2.4,5.67-.4,11.28-1.29,16.8-2.67,1.4-.35,2.78-.43,4.12-.3.05,2.43.12,4.85.2,7.27Z"/>
        <path class="cls-1" d="M137.24,441.18c-7.68.13-17.14-.84-27.33-2.73-24.47-4.56-43.84-11.59-42.5-19.94.05-.29.13-.59.23-.88,23.62-92.77,36.68-180.16,32.34-259.09-.02-.45,0,0-.07-1.89.04.92,1.52,2.03,4.12,3.24,4.89,17.11,3.2,35.66,1.43,53.25-4.79,47.35-9.78,94.6-19.18,141.31-2.4,11.94-5.05,23.83-7.98,35.65-1.36,5.49-2.89,10.94-4.25,16.44-.44,1.78-.85,3.84-1.01,5.89-.09,1.08-.12,2.16-.02,3.22.05.74.15,1.46.31,2.15.29,1.23,1,2.73,2.25,3.93.75.71,1.56,1.26,2.41,1.74.67.36,1.38.67,2.1.95.36.15.73.28,1.1.42,5.21,1.88,10.77,2.87,16.15,4.14,12.13,2.87,24.26,5.73,36.4,8.6,1.75.42,2.94,1.9,3.48,3.6Z"/>
        <polygon class="cls-24" points="164.08 303.47 92.97 287.54 92.85 289.82 163.36 305.46 164.08 303.47"/>
        <polygon class="cls-24" points="163.15 306.23 92.77 290.59 92.65 292.52 162.48 308.53 163.15 306.23"/>
        <polygon class="cls-24" points="162.4 309.41 93.35 284.27 93.23 286.59 162.11 311.75 162.4 309.41"/>
        <polygon class="cls-17" points="162.88 311.99 93.99 286.87 93.98 287.2 161.91 312.42 162.88 311.99"/>
      </g>
    </g>
  </g>
</svg>