<?xml version="1.0" encoding="UTF-8"?>
<svg id="Calque_1" data-name="Calque 1" xmlns="http://www.w3.org/2000/svg" xmlns:xlink="http://www.w3.org/1999/xlink" viewBox="0 0 365.32 376.87">
  <defs>
    <style>
      .cls-1, .cls-2, .cls-3, .cls-4, .cls-5, .cls-6, .cls-7, .cls-8, .cls-9, .cls-10, .cls-11, .cls-12, .cls-13, .cls-14, .cls-15, .cls-16, .cls-17, .cls-18, .cls-19, .cls-20, .cls-21, .cls-22, .cls-23, .cls-24, .cls-25, .cls-26, .cls-27 {
        stroke-miterlimit: 10;
      }

      .cls-1, .cls-2, .cls-3, .cls-4, .cls-28, .cls-7, .cls-29, .cls-9, .cls-10, .cls-30, .cls-11, .cls-12, .cls-31, .cls-14, .cls-15, .cls-16, .cls-17, .cls-18, .cls-19, .cls-21, .cls-22, .cls-23, .cls-24, .cls-25, .cls-26, .cls-32, .cls-27 {
        stroke: #000;
      }

      .cls-1, .cls-28, .cls-7, .cls-31 {
        stroke-width: 2.5px;
      }

      .cls-1, .cls-6, .cls-11, .cls-15, .cls-33, .cls-20 {
        fill: #ca8c50;
      }

      .cls-34 {
        clip-path: url(#clippath-6);
      }

      .cls-35 {
        clip-path: url(#clippath-7);
      }

      .cls-2, .cls-36, .cls-23, .cls-25 {
        fill: #8ea6c6;
      }

      .cls-2, .cls-29, .cls-37, .cls-30, .cls-12, .cls-13, .cls-18, .cls-19, .cls-21 {
        stroke-width: 3px;
      }

      .cls-38 {
        fill: #6a7b91;
      }

      .cls-39 {
        fill: #f8b781;
      }

      .cls-40 {
        clip-path: url(#clippath-15);
      }

      .cls-41, .cls-4, .cls-12, .cls-14, .cls-16, .cls-18, .cls-22 {
        fill: #4d854f;
      }

      .cls-42 {
        clip-path: url(#clippath-4);
      }

      .cls-43 {
        opacity: .61;
      }

      .cls-3 {
        stroke-width: 4.13px;
      }

      .cls-3, .cls-4, .cls-5, .cls-28, .cls-29, .cls-37, .cls-30, .cls-31, .cls-16, .cls-18, .cls-23, .cls-26, .cls-32 {
        stroke-linecap: round;
      }

      .cls-3, .cls-5, .cls-7, .cls-8, .cls-9, .cls-10, .cls-37, .cls-30, .cls-31, .cls-13, .cls-17, .cls-21, .cls-26, .cls-32, .cls-27 {
        fill: none;
      }

      .cls-4, .cls-14, .cls-27 {
        stroke-width: 2.32px;
      }

      .cls-44 {
        fill: #a36d40;
      }

      .cls-45 {
        fill: #6a7d91;
      }

      .cls-46 {
        fill: #748ba3;
      }

      .cls-47 {
        clip-path: url(#clippath-9);
      }

      .cls-48 {
        clip-path: url(#clippath-10);
      }

      .cls-49, .cls-24 {
        fill: #fff;
      }

      .cls-5 {
        stroke: #a36d40;
        stroke-width: 4.26px;
      }

      .cls-28, .cls-29, .cls-37, .cls-30, .cls-31, .cls-32 {
        stroke-linejoin: round;
      }

      .cls-28, .cls-50 {
        fill: #67ac6b;
      }

      .cls-6 {
        opacity: .28;
      }

      .cls-6, .cls-8, .cls-13, .cls-20 {
        stroke: #1d1d1b;
      }

      .cls-6, .cls-10, .cls-11, .cls-20, .cls-25 {
        stroke-width: 2.88px;
      }

      .cls-51 {
        clip-path: url(#clippath-11);
      }

      .cls-52 {
        fill: #325433;
      }

      .cls-53 {
        fill: #34512d;
      }

      .cls-54 {
        clip-path: url(#clippath-1);
      }

      .cls-29, .cls-55 {
        fill: #cb8c4f;
      }

      .cls-8 {
        stroke-width: 3.34px;
      }

      .cls-56 {
        clip-path: url(#clippath-5);
      }

      .cls-9, .cls-15 {
        stroke-width: 2.62px;
      }

      .cls-57 {
        clip-path: url(#clippath-8);
      }

      .cls-58 {
        clip-path: url(#clippath-3);
      }

      .cls-37 {
        opacity: .1;
        stroke: #fff;
      }

      .cls-59 {
        opacity: .65;
      }

      .cls-60 {
        clip-path: url(#clippath-12);
      }

      .cls-61 {
        clip-path: url(#clippath-14);
      }

      .cls-62 {
        fill: #961914;
      }

      .cls-63 {
        fill: #89c37f;
      }

      .cls-16, .cls-17, .cls-22 {
        stroke-width: 2.25px;
      }

      .cls-19 {
        fill: rgba(115, 198, 240, .24);
      }

      .cls-64 {
        clip-path: url(#clippath-2);
      }

      .cls-23 {
        stroke-width: 2.45px;
      }

      .cls-24, .cls-32 {
        stroke-width: 2.13px;
      }

      .cls-65 {
        clip-path: url(#clippath-13);
      }

      .cls-26 {
        stroke-width: 4.76px;
      }

      .cls-66 {
        clip-path: url(#clippath);
      }
    </style>
    <clipPath id="clippath">
      <path class="cls-22" d="M182.27,203.1c12.13,11.13,1.34,15.02-30.65,22.66-.97.23-1.81-.69-1.51-1.63,8.92-27.75,28.06-40.57,32.15-21.03Z"/>
    </clipPath>
    <clipPath id="clippath-1">
      <path class="cls-14" d="M266.92,205.42c-12.52,11.5-1.38,15.51,31.64,23.4,1,.24,1.87-.71,1.55-1.69-9.21-28.66-28.98-41.88-33.2-21.71Z"/>
    </clipPath>
    <clipPath id="clippath-2">
      <path class="cls-29" d="M189.08,217.82c-15.63,11.66-25.73,25.99-19.56,48.24,5.65,6.97,11.65-2.23,17.8-18.29,4.73,32.06,9.88,63.5,28.1,75.88,9.56,1.05,10.76-10.97,9.46-26.91h14.22c6.24,31.38,13.38,26.29,21.02,1.69,5.11-15.15,8.22-30.94,8.55-47.59,17.22.18,30.98-3.66,21.88-33.98-.91-3.05-3.46-5.46-6.62-5.81-5.88-.65-9.52,5.61-10.75,19.37l-10.84-12.75-73.27.17Z"/>
    </clipPath>
    <clipPath id="clippath-3">
      <path class="cls-2" d="M197.25,220.05l2.49,20.47c.18,1.44-.66,2.82-2.02,3.33l-7.82,2.94c-1.48.56-2.31,2.12-1.96,3.65,1.86,18.39,5.71,35.17,11.54,50.36.33,1.43,1.6,2.45,3.07,2.45h19.3c1.78,0,3.21-1.48,3.15-3.26h0c-.06-1.78,1.36-3.26,3.15-3.26h8.43c1.48,0,2.76,1.03,3.08,2.47l.35,1.58c.32,1.44,1.6,2.47,3.08,2.47h13.18c1.37,0,2.58-.88,3-2.18,4.56-14.11,8.58-28.21,9.1-42.27l.39-10.58c.06-1.51-.96-2.84-2.43-3.18l-4.81-1.13c-1.35-.32-2.33-1.48-2.42-2.86l-1.34-20.38c-.11-1.68-1.52-2.98-3.21-2.94l-5.06.11c-1.71.04-3.08,1.44-3.08,3.15v17.37c0,1.7-1.35,3.09-3.04,3.15l-28.52.98c-1.67.06-3.1-1.21-3.25-2.88l-1.76-20.21c-.14-1.63-1.5-2.88-3.14-2.88h-6.29c-1.89,0-3.35,1.65-3.13,3.53Z"/>
    </clipPath>
    <clipPath id="clippath-4">
      <path class="cls-12" d="M225.11,126.6c-20.87,6.85-18.36-8.24-6.38-50.45.36-1.28,1.98-1.66,2.88-.69,26.48,28.49,28.9,59.13,3.5,51.14Z"/>
    </clipPath>
    <clipPath id="clippath-5">
      <path class="cls-12" d="M191.73,143.14c-13.24,17.53-19.78,3.7-34.01-37.81-.43-1.25.68-2.49,1.98-2.21,38,8.31,57.46,32.1,32.03,40.02Z"/>
    </clipPath>
    <clipPath id="clippath-6">
      <path class="cls-12" d="M262.69,145.33c11.12,18.94,19.22,5.96,38.15-33.62.57-1.2-.39-2.55-1.71-2.42-38.7,3.86-60.78,25.24-36.44,36.04Z"/>
    </clipPath>
    <clipPath id="clippath-7">
      <path class="cls-12" d="M278.34,181.07c-6.85,20.87,8.24,18.36,50.45,6.38,1.28-.36,1.66-1.98.69-2.88-28.49-26.48-59.13-28.9-51.14-3.5Z"/>
    </clipPath>
    <clipPath id="clippath-8">
      <path class="cls-12" d="M174.37,175.56c6.85,20.87-8.24,18.36-50.45,6.38-1.28-.36-1.66-1.98-.69-2.88,28.49-26.48,59.13-28.9,51.14-3.5Z"/>
    </clipPath>
    <clipPath id="clippath-9">
      <ellipse class="cls-15" cx="225.75" cy="179.96" rx="51" ry="52.09"/>
    </clipPath>
    <clipPath id="clippath-10">
      <path class="cls-11" d="M261.09,202.56c0,17.26-11.54,29.49-29.8,29.49s-31.25-11.9-31.25-29.16,12.99-33.35,31.25-33.35,29.8,15.75,29.8,33.01Z"/>
    </clipPath>
    <clipPath id="clippath-11">
      <rect class="cls-25" x="215.79" y="261.18" width="27.21" height="20.97" rx="5.33" ry="5.33"/>
    </clipPath>
    <clipPath id="clippath-12">
      <path class="cls-2" d="M97.95,291.38c-.16.3-.24.99-.42,1.28-1.12,1.83,1.15,4.39,2.27,4.63,2.52.54,10.95,3.64,11.27,4.46,3.54,8.92,2.04,16.68,3.22,25.09.37,2.61,1.82,3.02,3.9,3.73.03.01.1,0,.13,0,3.04-.04,4.95-1.38,6.04-4.36.46-1.26.84-3.42,1.36-4.72,1.14-2.86,2.96-4.7,6.07-5.17,1.35-.21,3.28-.48,4.65-.47,3.71.01,4.76,2.67,4.63,6.02,0-.02,0,0,0,0-.13,3.35,1.69,5.69,5.13,6,.09,0,.19.08.29.04,2.71-1.15,3.39-.68,4.65-4.51,2.89-8.77,6.07-20.61,7.63-30.08.69-4.21,2.02-6.9,4.26-9.86s5.57-6.74,7.41-9.01c2.52-3.1,3.59-5.89,2.06-8.96-.34-.69-.74-1.17-1.28-1.53-2.78-1.86-5.09-.91-7.45,2.04-2.36,2.94-5.72,7.92-8.46,11.11-.41.47-.72.85-1.15,1.23-11.3,11.35-22.18,15.15-37.98,13.06-4.97-.49-9.4-2.77-14.51-2.74-1.73,0-2.97,1.24-3.75,2.72Z"/>
    </clipPath>
    <clipPath id="clippath-13">
      <path class="cls-1" d="M162.7,237.15c8.98,19.48-7.47,49.21-26.5,55.2s-45.45-3.08-52.7-23.53c-7.25-20.45,7.88-40.66,27.13-48.36s43.08-2.79,52.06,16.69Z"/>
    </clipPath>
    <clipPath id="clippath-14">
      <path class="cls-28" d="M105.28,219.14c-1.06-1.66-3.69-5.28-5.07-7.3-10.51,9.46-18.25,2.82-28.78,16.66-2.44-17.56,9.74-36.89,28.07-24.1,10.11-16.87,16.64-18.72,33.89-9.9-15.05,4.36-6.22,14.08-28.82,16.47,2.09,2.73,4.19,5.46,6.29,8.17-1.42.91-2.9,1.73-4.28,2.69-.76-1.3-.23-1.04-1.29-2.7Z"/>
    </clipPath>
    <clipPath id="clippath-15">
      <path class="cls-1" d="M153.96,262.07c6.54,11.15-6.73,27.11-17.73,30.35s-27.08,1.74-30.79-10.5c-3.72-12.24,9.67-20.9,19.56-24.17,9.88-3.28,22.43-6.83,28.97,4.32Z"/>
    </clipPath>
  </defs>
  <g>
    <path class="cls-41" d="M182.27,203.1c12.13,11.13,1.34,15.02-30.65,22.66-.97.23-1.81-.69-1.51-1.63,8.92-27.75,28.06-40.57,32.15-21.03Z"/>
    <g class="cls-66">
      <g class="cls-59">
        <path class="cls-53" d="M174.2,193.89c-2.08,4.17-2.25,8.99-.24,13.22,1.77,3.73,5.21,6.48,9.12,7.68,1.78.54,3.65-1.28,3.08-3.08-1.14-3.56-2.29-7.13-3.43-10.69-.99-3.07-2.15-7.06-6.22-6.32-.8.15-1.57.96-1.75,1.75-1.47,6.68.3,13.57,4.74,18.76,1.43,1.67,4.31.3,4.27-1.77-.09-4.26-2.31-8.12-5.93-10.37-1.2-.74-2.69-.2-3.42.9-6.02,9.02-16.7,13.44-26.37,17.39-1.15.47-1.99,1.42-1.79,2.74.17,1.11,1.21,2.32,2.46,2.17,3.7-.45,7.4-.89,11.1-1.34s7.18-.61,10.62-1.48c2.98-.75,5.89-2.37,7.32-5.2s1.33-6.06-.77-8.54c-.86-1.02-2.66-.91-3.54,0-2.65,2.75-5.3,5.5-7.94,8.24l3.93,3.03c1.88-3.11,5.31-4.81,8.92-4.62l-2.41-1.84c.12.37.17.2-.15.49-.82.73-.93,2.11-.39,3.03.59,1.01,1.72,1.35,2.82,1.15,1.03-.19,2.06-.38,3.1-.57,1.33-.24,2.08-1.86,1.75-3.08-.38-1.4-1.74-1.99-3.08-1.75-1.03.19-2.06.38-3.1.57l2.43,4.18c1.48-1.33,2.04-3.46,1.43-5.35-.36-1.1-1.27-1.77-2.41-1.84-5.33-.29-10.48,2.55-13.23,7.1-1.46,2.42,1.94,5.09,3.93,3.03,2.65-2.75,5.3-5.5,7.94-8.24h-3.54c.77.91.12,2.66-.76,3.59-1.53,1.62-4.13,2-6.23,2.29-5.9.81-11.84,1.43-17.76,2.15l.66,4.91c10.99-4.48,22.52-9.45,29.36-19.68l-3.42.9c2.11,1.31,3.4,3.57,3.45,6.05l4.27-1.77c-3.23-3.77-4.51-9.06-3.45-13.9l-1.75,1.75c-.13.02-.84-.18-.94-.09-.05.05.13.23.14.3.06.45.34,1.01.49,1.46l1.27,3.95c.85,2.63,1.69,5.27,2.54,7.9l3.08-3.08c-5.66-1.73-8.55-8.21-5.88-13.55,1.43-2.87-2.88-5.41-4.32-2.52h0Z"/>
      </g>
    </g>
    <path class="cls-17" d="M182.27,203.1c12.13,11.13,1.34,15.02-30.65,22.66-.97.23-1.81-.69-1.51-1.63,8.92-27.75,28.06-40.57,32.15-21.03Z"/>
  </g>
  <g>
    <g>
      <path class="cls-41" d="M266.92,205.42c-12.52,11.5-1.38,15.51,31.64,23.4,1,.24,1.87-.71,1.55-1.69-9.21-28.66-28.98-41.88-33.2-21.71Z"/>
      <g class="cls-54">
        <g class="cls-59">
          <path class="cls-53" d="M261.27,211.58c2.23,6.27,7.9,11.27,14.57,12.21.7.1,1.29.12,1.93-.25.52-.3,1.01-.9,1.15-1.49.27-1.18-.36-2.88-1.75-3.08-.68-.1-1.35-.23-2.01-.41-.36-.1-.72-.21-1.07-.34-.15-.05-.29-.11-.44-.16-.5-.2-.05.04,0,0-.12.12-1.64-.84-1.82-.95-.32-.19-.63-.4-.94-.61-.13-.09-.25-.18-.38-.27-.15-.11-.1-.07.13.11-.07-.06-.15-.12-.22-.18-.53-.43-1.04-.9-1.51-1.4-.24-.25-.47-.5-.69-.77-.12-.14-.25-.28-.35-.44.18.26.17.22,0-.02-.4-.56-.76-1.14-1.09-1.74-.16-.3-.31-.61-.45-.92-.27-.57.18.5-.04-.09-.07-.18-.13-.35-.2-.53-.44-1.23-1.73-2.18-3.08-1.75-1.21.39-2.22,1.76-1.75,3.08h0Z"/>
        </g>
      </g>
      <path class="cls-27" d="M266.92,205.42c-12.52,11.5-1.38,15.51,31.64,23.4,1,.24,1.87-.71,1.55-1.69-9.21-28.66-28.98-41.88-33.2-21.71Z"/>
    </g>
    <path class="cls-4" d="M281.96,213.28c-4.2-5.55-10.08-8-15.04-7.86"/>
  </g>
  <g>
    <path class="cls-55" d="M189.08,217.82c-15.63,11.66-25.73,25.99-19.56,48.24,5.65,6.97,11.65-2.23,17.8-18.29,4.73,32.06,9.88,63.5,28.1,75.88,9.56,1.05,10.76-10.97,9.46-26.91h14.22c6.24,31.38,13.38,26.29,21.02,1.69,5.11-15.15,8.22-30.94,8.55-47.59,17.22.18,30.98-3.66,21.88-33.98-.91-3.05-3.46-5.46-6.62-5.81-5.88-.65-9.52,5.61-10.75,19.37l-10.84-12.75-73.27.17Z"/>
    <g class="cls-64">
      <path class="cls-44" d="M188.25,217.93c-11.86,9.38-19.03,24.08-19.88,39.1-.24,4.32.1,8.65.94,12.89.26,1.33,1.84,2.08,3.08,1.75,1.38-.38,2.01-1.75,1.75-3.08-2.66-13.5,1.08-28.03,9.46-38.89,2.37-3.07,5.16-5.83,8.2-8.23,1.06-.84.88-2.66,0-3.54-1.05-1.05-2.47-.84-3.54,0h0Z"/>
      <path class="cls-44" d="M188.29,223.51c20.09,3.49,40.58,3.86,60.79,1.09,5.68-.78,11.32-1.81,16.91-3.08,3.14-.71,1.81-5.54-1.33-4.82-19.2,4.38-39.03,5.74-58.66,4.1-5.49-.46-10.95-1.17-16.38-2.11-1.33-.23-2.69.36-3.08,1.75-.33,1.2.41,2.84,1.75,3.08h0Z"/>
      <path class="cls-44" d="M189.95,223.29c16.32,1.74,32.79,1.88,49.14.38,4.69-.43,9.37-1,14.04-1.69,2.76-.4,2.14-5.17-.66-4.91-19.51,1.84-39.24.96-58.49-2.71-1.32-.25-2.7.37-3.08,1.75-.34,1.22.41,2.82,1.75,3.08,19.7,3.75,39.86,4.77,59.82,2.89l-.66-4.91c-20.46,2.99-41.29,3.32-61.84,1.12-1.34-.14-2.5,1.25-2.5,2.5,0,1.47,1.15,2.36,2.5,2.5h0Z"/>
      <path class="cls-44" d="M199.64,302.54c3.84,10.91,11.64,20.2,21.83,25.71,2.83,1.53,5.36-2.78,2.52-4.32-9.02-4.88-16.12-13.03-19.53-22.72-.45-1.27-1.71-2.12-3.08-1.75-1.23.34-2.2,1.8-1.75,3.08h0Z"/>
      <path class="cls-44" d="M255.51,222.68c3.72.52,6.41,3.06,8.73,5.84,2.57,3.1,4.76,6.52,7.98,9.01,1.69,1.31,4.16.56,4.27-1.77.38-8.24,3.34-16.11,8.3-22.67.81-1.08.17-2.8-.9-3.42-1.28-.75-2.6-.18-3.42.9-5.48,7.26-8.56,16.12-8.98,25.2l4.27-1.77c-6.54-5.06-9.76-14.86-18.91-16.14-1.34-.19-2.68.33-3.08,1.75-.32,1.17.4,2.89,1.75,3.08h0Z"/>
    </g>
    <path class="cls-30" d="M189.08,217.82c-15.63,11.66-25.73,25.99-19.56,48.24,5.65,6.97,11.65-2.23,17.8-18.29,4.73,32.06,9.88,63.5,28.1,75.88,9.56,1.05,10.76-10.97,9.46-26.91h14.22c6.24,31.38,13.38,26.29,21.02,1.69,5.11-15.15,8.22-30.94,8.55-47.59,17.22.18,30.98-3.66,21.88-33.98-.91-3.05-3.46-5.46-6.62-5.81-5.88-.65-9.52,5.61-10.75,19.37l-10.84-12.75-73.27.17Z"/>
  </g>
  <polygon points="184.53 221.44 192.21 276.79 266.92 270.86 269.69 226.3 261.92 214.47 190.2 216.31 184.53 221.44"/>
  <g>
    <path class="cls-36" d="M197.25,220.05l2.49,20.47c.18,1.44-.66,2.82-2.02,3.33l-7.82,2.94c-1.48.56-2.31,2.12-1.96,3.65,1.86,18.39,5.71,35.17,11.54,50.36.33,1.43,1.6,2.45,3.07,2.45h19.3c1.78,0,3.21-1.48,3.15-3.26h0c-.06-1.78,1.36-3.26,3.15-3.26h8.43c1.48,0,2.76,1.03,3.08,2.47l.35,1.58c.32,1.44,1.6,2.47,3.08,2.47h13.18c1.37,0,2.58-.88,3-2.18,4.56-14.11,8.58-28.21,9.1-42.27l.39-10.58c.06-1.51-.96-2.84-2.43-3.18l-4.81-1.13c-1.35-.32-2.33-1.48-2.42-2.86l-1.34-20.38c-.11-1.68-1.52-2.98-3.21-2.94l-5.06.11c-1.71.04-3.08,1.44-3.08,3.15v17.37c0,1.7-1.35,3.09-3.04,3.15l-28.52.98c-1.67.06-3.1-1.21-3.25-2.88l-1.76-20.21c-.14-1.63-1.5-2.88-3.14-2.88h-6.29c-1.89,0-3.35,1.65-3.13,3.53Z"/>
    <g class="cls-58">
      <path class="cls-45" d="M187.12,244.65c.87,16.68,3.77,33.39,10.56,48.74,1.75,3.96,3.78,7.79,6.08,11.46,1.71,2.72,6.04.21,4.32-2.52-8.23-13.1-12.6-28.21-14.67-43.45-.64-4.72-1.04-9.47-1.29-14.22-.17-3.2-5.17-3.22-5,0h0Z"/>
      <path class="cls-45" d="M191.94,282.81c1.65,6.5,3.31,13,4.96,19.5.79,3.12,5.62,1.8,4.82-1.33-1.65-6.5-3.31-13-4.96-19.5-.79-3.12-5.62-1.8-4.82,1.33h0Z"/>
      <path class="cls-45" d="M197.25,229.26c3.22,1.61,6.03,3.89,9.23,5.54,3.44,1.78,7.21,2.77,11.07,1.96,1.32-.28,2.09-1.83,1.75-3.08-.38-1.37-1.75-2.03-3.08-1.75-2.68.57-5.58-.52-8.06-1.91-2.85-1.61-5.45-3.62-8.38-5.09-1.21-.6-2.71-.32-3.42.9-.65,1.11-.32,2.81.9,3.42h0Z"/>
      <path class="cls-45" d="M258.63,221.22c-6.95,3.24-13.9,6.49-20.85,9.73-1.22.57-1.53,2.33-.9,3.42.73,1.25,2.19,1.47,3.42.9,6.95-3.24,13.9-6.49,20.85-9.73,1.22-.57,1.53-2.33.9-3.42-.73-1.25-2.19-1.47-3.42-.9h0Z"/>
    </g>
    <path class="cls-21" d="M197.25,220.05l2.49,20.47c.18,1.44-.66,2.82-2.02,3.33l-7.82,2.94c-1.48.56-2.31,2.12-1.96,3.65,1.86,18.39,5.71,35.17,11.54,50.36.33,1.43,1.6,2.45,3.07,2.45h19.3c1.78,0,3.21-1.48,3.15-3.26h0c-.06-1.78,1.36-3.26,3.15-3.26h8.43c1.48,0,2.76,1.03,3.08,2.47l.35,1.58c.32,1.44,1.6,2.47,3.08,2.47h13.18c1.37,0,2.58-.88,3-2.18,4.56-14.11,8.58-28.21,9.1-42.27l.39-10.58c.06-1.51-.96-2.84-2.43-3.18l-4.81-1.13c-1.35-.32-2.33-1.48-2.42-2.86l-1.34-20.38c-.11-1.68-1.52-2.98-3.21-2.94l-5.06.11c-1.71.04-3.08,1.44-3.08,3.15v17.37c0,1.7-1.35,3.09-3.04,3.15l-28.52.98c-1.67.06-3.1-1.21-3.25-2.88l-1.76-20.21c-.14-1.63-1.5-2.88-3.14-2.88h-6.29c-1.89,0-3.35,1.65-3.13,3.53Z"/>
  </g>
  <g>
    <path class="cls-41" d="M225.11,126.6c-20.87,6.85-18.36-8.24-6.38-50.45.36-1.28,1.98-1.66,2.88-.69,26.48,28.49,28.9,59.13,3.5,51.14Z"/>
    <g class="cls-42">
      <path class="cls-63" d="M221.38,80.38c9.36,11.47,15.81,25.15,19.51,39.44.67,2.57,4.65,1.48,3.98-1.1-3.88-15.02-10.75-29.22-20.57-41.26-.71-.87-2.19-.73-2.92,0-.86.86-.71,2.05,0,2.92h0Z"/>
      <g class="cls-59">
        <path class="cls-53" d="M208.92,106.62c-.89,7.93,1.08,16.12,5.39,22.83l3.42-3.42c-2.2-.99-3.85-2.68-4.54-4.98l-4.18,2.43c2.32,1.9,4.64,3.8,6.96,5.71,1.04.86,2.51,1.02,3.54,0,.88-.88,1.05-2.68,0-3.54-2.32-1.9-4.64-3.8-6.96-5.71-.87-.71-2-.99-3.03-.39-.94.55-1.47,1.77-1.15,2.82,1.04,3.47,3.51,6.48,6.84,7.97,1.03.46,2.18.45,3.03-.39.76-.76.99-2.1.39-3.03-3.89-6.05-5.51-13.16-4.71-20.3.15-1.34-1.26-2.5-2.5-2.5-1.48,0-2.35,1.15-2.5,2.5h0Z"/>
      </g>
    </g>
    <path class="cls-21" d="M225.11,126.6c-20.87,6.85-18.36-8.24-6.38-50.45.36-1.28,1.98-1.66,2.88-.69,26.48,28.49,28.9,59.13,3.5,51.14Z"/>
  </g>
  <path class="cls-18" d="M225.75,104.68c3.6,8.24,2.65,16.42-.64,21.92"/>
  <g>
    <path class="cls-41" d="M191.73,143.14c-13.24,17.53-19.78,3.7-34.01-37.81-.43-1.25.68-2.49,1.98-2.21,38,8.31,57.46,32.1,32.03,40.02Z"/>
    <g class="cls-56">
      <path class="cls-63" d="M200.47,122.12c-11.09-10.23-25.23-17-40.19-19.02-1.34-.18-2.68.32-3.08,1.75-.32,1.16.4,2.89,1.75,3.08,14.13,1.9,27.49,8.06,37.98,17.74,2.36,2.18,5.91-1.35,3.54-3.54h0Z"/>
      <g class="cls-59">
        <path class="cls-53" d="M163.07,125.82c1.95,11.38,10.15,21.02,20.8,25.26,1.26.5,2.75-.55,3.08-1.75.39-1.42-.49-2.57-1.75-3.08-9.09-3.61-15.67-12.21-17.31-21.76-.23-1.33-1.87-2.08-3.08-1.75-1.41.39-1.97,1.74-1.75,3.08h0Z"/>
      </g>
    </g>
    <path class="cls-21" d="M191.73,143.14c-13.24,17.53-19.78,3.7-34.01-37.81-.43-1.25.68-2.49,1.98-2.21,38,8.31,57.46,32.1,32.03,40.02Z"/>
  </g>
  <path class="cls-18" d="M179.76,124.77c7.65,4.71,11.54,11.98,11.97,18.37"/>
  <g>
    <path class="cls-41" d="M262.69,145.33c11.12,18.94,19.22,5.96,38.15-33.62.57-1.2-.39-2.55-1.71-2.42-38.7,3.86-60.78,25.24-36.44,36.04Z"/>
    <g class="cls-34">
      <path class="cls-63" d="M259.64,126.87c15.04-1.85,29.6-6.2,43.17-12.96,2.12-1.06,1.21-4.97-1.26-4.66-15.66,1.97-30.83,6.41-45.05,13.26-1.22.59-1.54,2.32-.9,3.42.73,1.24,2.2,1.49,3.42.9,13.36-6.44,27.81-10.73,42.53-12.58l-1.26-4.66c-12.72,6.34-26.54,10.54-40.65,12.27-1.34.17-2.5,1.03-2.5,2.5,0,1.22,1.15,2.67,2.5,2.5h0Z"/>
    </g>
    <path class="cls-21" d="M262.69,145.33c11.12,18.94,19.22,5.96,38.15-33.62.57-1.2-.39-2.55-1.71-2.42-38.7,3.86-60.78,25.24-36.44,36.04Z"/>
  </g>
  <path class="cls-18" d="M276.7,128.47c-8.15,3.8-12.85,10.57-14.01,16.86"/>
  <g>
    <path class="cls-41" d="M278.34,181.07c-6.85,20.87,8.24,18.36,50.45,6.38,1.28-.36,1.66-1.98.69-2.88-28.49-26.48-59.13-28.9-51.14-3.5Z"/>
    <g class="cls-35">
      <path class="cls-63" d="M277.37,172.09c12.88,2.1,26.05,1.5,38.66-1.91,2.63-.71,2.21-5.22-.66-4.91-11.22,1.21-22.53,1.22-33.75.02l.66,4.91c7.06-2.89,14.6-3.92,22.17-3.03,1.34.16,2.5-1.26,2.5-2.5,0-1.48-1.15-2.34-2.5-2.5-7.94-.93-16.1.18-23.5,3.2-2.63,1.08-2.23,4.6.66,4.91,11.22,1.2,22.53,1.19,33.75-.02l-.66-4.91c-11.7,3.16-24.03,3.86-36,1.91-1.33-.22-2.69.35-3.08,1.75-.33,1.19.41,2.86,1.75,3.08h0Z"/>
      <g class="cls-59">
        <path class="cls-53" d="M275.67,189.3c1.37,3.69,3.99,6.86,7.61,8.53,4.12,1.91,8.68,1.75,12.77-.13,1.85-.85,1.5-4.28-.6-4.57-5.58-.77-10.79-3.62-14.12-8.22l-3.93,3.03c6.45,7.85,18.09,10.94,27.59,7.33,1.26-.48,2.13-1.69,1.75-3.08-.33-1.21-1.81-2.23-3.08-1.75-8.01,3.04-17.28.57-22.72-6.04-1.78-2.17-5.59.72-3.93,3.03,4.06,5.61,10.19,9.57,17.11,10.52l-.6-4.57c-5,2.29-11.13-.27-13.03-5.41-.47-1.27-1.69-2.13-3.08-1.75-1.22.33-2.22,1.8-1.75,3.08h0Z"/>
      </g>
    </g>
    <path class="cls-21" d="M278.34,181.07c-6.85,20.87,8.24,18.36,50.45,6.38,1.28-.36,1.66-1.98.69-2.88-28.49-26.48-59.13-28.9-51.14-3.5Z"/>
  </g>
  <path class="cls-18" d="M300.25,180.43c-8.24-3.6-16.42-2.65-21.92.64"/>
  <g>
    <path class="cls-41" d="M174.37,175.56c6.85,20.87-8.24,18.36-50.45,6.38-1.28-.36-1.66-1.98-.69-2.88,28.49-26.48,59.13-28.9,51.14-3.5Z"/>
    <g class="cls-57">
      <g class="cls-59">
        <path class="cls-53" d="M130.01,185.24c14.64,2.34,29.55.41,43.11-5.56l-3.42-.9c.87,1.37.58,2.95-.39,4.38-1.13,1.66-3.09,2.43-5.03,2.66-5.75.68-11.31-2.09-17.08-1.77l2.16,3.76c-.29.41-.26.12.19.12.27,0,.52.1.78.21,1.02.44,1.89,1.18,2.89,1.67,2.34,1.15,4.92,1.53,7.5,1.16,4.82-.69,8.69-4.28,10.1-8.88.32-1.05-.21-2.28-1.15-2.82-1.03-.6-2.15-.31-3.03.39-2.85,2.29-6.77,2.87-10.22,1.84-3.09-.92-4.41,3.9-1.33,4.82,5.28,1.58,10.84.3,15.09-3.12l-4.18-2.43c-1.13,3.69-4.93,6.08-8.76,5.2-2.17-.49-3.76-2.13-5.88-2.77-2.41-.73-4.86.04-6.32,2.09-1.08,1.52.36,3.86,2.16,3.76,6.89-.39,13.65,3.4,20.51,1.1,2.83-.95,5.29-2.86,6.55-5.62s1.36-5.73-.24-8.27c-.78-1.24-2.14-1.46-3.42-.9-12.22,5.38-26.08,7.17-39.26,5.06-1.33-.21-2.69.34-3.08,1.75-.33,1.19.41,2.86,1.75,3.08h0Z"/>
      </g>
    </g>
    <path class="cls-21" d="M174.37,175.56c6.85,20.87-8.24,18.36-50.45,6.38-1.28-.36-1.66-1.98-.69-2.88,28.49-26.48,59.13-28.9,51.14-3.5Z"/>
  </g>
  <path class="cls-16" d="M167.7,210.72c4.07-5.37,9.77-7.75,14.56-7.61"/>
  <g>
    <ellipse class="cls-33" cx="225.75" cy="179.96" rx="51" ry="52.09"/>
    <g class="cls-47">
      <path class="cls-44" d="M188.38,131c-11.84,11.02-18.62,26.39-20.5,42.3-1,8.47-.37,17.2,1.64,25.48,1.89,7.82,5.15,15.64,10.03,22.08,5.71,7.53,13.57,13.87,23.11,15.53,1.78.31,3.44.28,5.05-.66,1.36-.8,2.65-2.35,3.01-3.91.73-3.18-.97-7.43-4.57-8.06-1.63-.28-3.23-.71-4.78-1.3-.18-.07-.37-.17-.56-.22-.03,0,1.28.58.64.27-.36-.18-.73-.34-1.09-.52-.79-.39-1.55-.82-2.3-1.28s-1.47-.99-2.21-1.49c-.59-.4.52.41.5.4-.15-.14-.33-.26-.48-.39-.38-.31-.74-.62-1.11-.95-1.3-1.16-2.5-2.41-3.62-3.73-.27-.32-.52-.64-.79-.96-.46-.55.39.52.39.5-.1-.18-.25-.34-.37-.5-.54-.74-1.05-1.49-1.55-2.25-.96-1.49-1.83-3.04-2.63-4.62-.42-.83-.81-1.68-1.19-2.53-.51-1.12.44,1.12-.01-.03-.19-.47-.37-.94-.55-1.41-.65-1.73-1.22-3.49-1.72-5.27s-.92-3.62-1.27-5.46c-.17-.89-.3-1.78-.45-2.66-.13-.75.08.63.08.63-.02-.22-.06-.45-.08-.67-.06-.52-.12-1.05-.17-1.57-.37-3.82-.41-7.68-.13-11.51.07-.9.15-1.8.25-2.7.03-.22.08-.45.08-.67,0,0-.2,1.37-.08.62.08-.52.15-1.04.24-1.56.3-1.8.68-3.59,1.13-5.36s.97-3.47,1.56-5.18c.27-.78.56-1.56.86-2.33.09-.23.63-1.52.21-.55s.21-.47.33-.73c1.56-3.46,3.43-6.78,5.61-9.89.31-.44.62-.87.94-1.3.12-.16.24-.32.36-.48.5-.68-.83,1.03-.29.38.59-.72,1.17-1.44,1.78-2.14,1.25-1.43,2.58-2.79,3.97-4.09,2.51-2.34,2.54-6.93,0-9.26-2.69-2.47-6.58-2.5-9.26,0h0Z"/>
      <path class="cls-44" d="M203.95,181.41c-6.85,5.53-10.52,14.11-11.44,22.69-.98,9.13,2.15,18.3,7.85,25.37.99,1.22,3.13,1.92,4.63,1.92,1.61,0,3.53-.71,4.63-1.92s2-2.89,1.92-4.63c-.08-1.84-.77-3.21-1.92-4.63-.81-1,.88,1.24-.05-.09-.27-.38-.52-.77-.77-1.16-.43-.68-.82-1.39-1.18-2.11-.18-.36-.35-.73-.52-1.1-.57-1.24.45,1.26.04.06-.29-.85-.59-1.68-.83-2.54s-.44-1.74-.6-2.62c-.04-.2-.07-.41-.1-.61-.08-.51-.05-.27.09.71.04-.38-.1-.85-.13-1.24-.15-1.81-.09-3.59.06-5.4.12-1.44-.29,1.57-.02.15.08-.39.14-.79.22-1.18.18-.84.39-1.68.64-2.51.24-.77.73-1.63.86-2.42-.39.9-.48,1.12-.27.66.08-.18.16-.36.25-.53.17-.35.34-.7.52-1.05.39-.74.82-1.47,1.27-2.17.24-.38.51-.74.76-1.11.69-1-.94,1.12-.09.12,1.06-1.24,2.18-2.38,3.45-3.41s1.92-3.13,1.92-4.63c0-1.61-.71-3.53-1.92-4.63s-2.89-2-4.63-1.92c-1.84.08-3.21.77-4.63,1.92h0Z"/>
    </g>
    <ellipse class="cls-9" cx="225.75" cy="179.96" rx="51" ry="52.09"/>
  </g>
  <circle cx="248.44" cy="168.58" r="13.13"/>
  <path class="cls-49" d="M245.5,163.44c-.88,2.35-1.61,4.24-3.57,3.51s-2.84-3.23-1.96-5.58,3.18-3.65,5.14-2.92c1.96.73,1.27,2.64.39,4.99Z"/>
  <circle cx="205.63" cy="171.44" r="13.13"/>
  <path class="cls-49" d="M202.7,166.3c-.88,2.35-1.61,4.24-3.57,3.51s-2.84-3.23-1.96-5.58,3.18-3.65,5.14-2.92c1.96.73,1.27,2.64.39,4.99Z"/>
  <path class="cls-26" d="M192.21,156.71c2.96-7.45,7.67-11.27,15.66-8.22"/>
  <path class="cls-26" d="M242.88,147.31c6.95-.88,12.75.65,16.34,6.76"/>
  <path class="cls-19" d="M185.31,161.35c15.06-10.5,25.12-9.19,32.44-1.4,5.04,5.36,3.77,14.08-2.42,18.05-14.6,9.38-26.65,11.46-33.43-4.69-1.8-4.29-.4-9.3,3.41-11.96Z"/>
  <path class="cls-19" d="M266.2,161.35c-15.06-10.5-25.12-9.19-32.44-1.4-5.04,5.36-3.77,14.08,2.42,18.05,14.6,9.38,26.65,11.46,33.43-4.69,1.8-4.29.4-9.3-3.41-11.96Z"/>
  <g>
    <path class="cls-33" d="M261.09,202.56c0,17.26-11.54,29.49-29.8,29.49s-31.25-11.9-31.25-29.16,12.99-33.35,31.25-33.35,29.8,15.75,29.8,33.01Z"/>
    <g class="cls-48">
      <path class="cls-39" d="M233.74,181.9c1.35.08,2.73-.23,4.05-.41l-1.91.26c.72-.09,1.42-.14,2.14-.05l-1.91-.26c.63.1,1.24.28,1.83.52l-1.72-.73c.94.41,1.79.96,2.6,1.59l-1.46-1.13c1.51,1.19,2.83,2.57,4.14,3.97,1.23,1.32,3.31,2.11,5.09,2.11s3.88-.78,5.09-2.11,2.2-3.17,2.11-5.09-.76-3.65-2.11-5.09c-2.03-2.18-4.18-4.27-6.7-5.88-.45-.29-.92-.54-1.4-.76-.98-.44-2.02-.94-3.08-1.19s-2.15-.4-3.23-.42c-1.26-.02-2.54.26-3.77.43l1.91-.26c-.56.07-1.1.12-1.66.09-1.78-.1-3.86.88-5.09,2.11s-2.19,3.3-2.11,5.09.7,3.79,2.11,5.09,3.11,2,5.09,2.11h0Z"/>
      <ellipse class="cls-20" cx="152.62" cy="125" rx="4.81" ry="6.65"/>
      <ellipse class="cls-6" cx="151.77" cy="143.18" rx="3.63" ry="7.37"/>
    </g>
    <path class="cls-10" d="M261.09,202.56c0,17.26-11.54,29.49-29.8,29.49s-31.25-11.9-31.25-29.16,12.99-33.35,31.25-33.35,29.8,15.75,29.8,33.01Z"/>
  </g>
  <path class="cls-13" d="M217.75,159.94c5.34-2.88,10.67-2.88,16.01,0"/>
  <line class="cls-13" x1="176.42" y1="163.3" x2="180.42" y2="166.32"/>
  <line class="cls-8" x1="268.84" y1="164.11" x2="273.31" y2="161.11"/>
  <polyline class="cls-37" points="207.87 162.95 212.15 170.06 212.15 161.01 215.79 167.58"/>
  <polyline class="cls-37" points="252.5 162.95 256.78 170.06 256.78 161.01 260.42 167.58"/>
  <g>
    <rect class="cls-36" x="215.79" y="261.18" width="27.21" height="20.97" rx="5.33" ry="5.33"/>
    <g class="cls-51">
      <path class="cls-46" d="M217.47,262.62c-2.95,6.3-2.43,14.09,1.84,19.7.82,1.07,2.15,1.64,3.42.9,1.06-.62,1.72-2.34.9-3.42-.43-.56-.82-1.14-1.17-1.75-.17-.3-.34-.61-.49-.93-.08-.16-.15-.32-.22-.48-.04-.08-.15-.37-.06-.13-.26-.65-.47-1.32-.65-2-.09-.34-.16-.68-.23-1.03-.03-.17-.06-.35-.09-.52l-.04-.26c.03.19.03.19,0,.01-.07-.7-.11-1.4-.1-2.1,0-.35.02-.7.05-1.05.01-.17.03-.35.05-.52.05-.44-.05.32.01-.12.11-.69.26-1.38.46-2.05.23-.77.4-1.23.64-1.73.57-1.22.34-2.7-.9-3.42-1.08-.63-2.85-.33-3.42.9h0Z"/>
    </g>
    <rect class="cls-10" x="215.79" y="261.18" width="27.21" height="20.97" rx="5.33" ry="5.33"/>
  </g>
  <line class="cls-23" x1="216.09" y1="267.35" x2="243" y2="267.35"/>
  <g>
    <g>
      <path class="cls-36" d="M97.95,291.38c-.16.3-.24.99-.42,1.28-1.12,1.83,1.15,4.39,2.27,4.63,2.52.54,10.95,3.64,11.27,4.46,3.54,8.92,2.04,16.68,3.22,25.09.37,2.61,1.82,3.02,3.9,3.73.03.01.1,0,.13,0,3.04-.04,4.95-1.38,6.04-4.36.46-1.26.84-3.42,1.36-4.72,1.14-2.86,2.96-4.7,6.07-5.17,1.35-.21,3.28-.48,4.65-.47,3.71.01,4.76,2.67,4.63,6.02,0-.02,0,0,0,0-.13,3.35,1.69,5.69,5.13,6,.09,0,.19.08.29.04,2.71-1.15,3.39-.68,4.65-4.51,2.89-8.77,6.07-20.61,7.63-30.08.69-4.21,2.02-6.9,4.26-9.86s5.57-6.74,7.41-9.01c2.52-3.1,3.59-5.89,2.06-8.96-.34-.69-.74-1.17-1.28-1.53-2.78-1.86-5.09-.91-7.45,2.04-2.36,2.94-5.72,7.92-8.46,11.11-.41.47-.72.85-1.15,1.23-11.3,11.35-22.18,15.15-37.98,13.06-4.97-.49-9.4-2.77-14.51-2.74-1.73,0-2.97,1.24-3.75,2.72Z"/>
      <g class="cls-60">
        <path class="cls-38" d="M115.75,296.28c7.89,2.82,16.39,4.2,24.36.91,4.09-1.68,7.83-4.02,10.6-7.53s4.62-7.33,5.54-11.59c.55-2.55-.76-5.53-3.49-6.15-2.52-.57-5.56.76-6.15,3.49-.18.86-.41,1.72-.68,2.55-.12.37-.26.72-.39,1.09-.34.99.4-.8-.09.23-.34.7-.68,1.4-1.07,2.07-.23.39-.47.77-.72,1.15-.08.12-.82,1.15-.4.59s-.5.58-.59.68c-.26.28-.52.56-.79.83s-.56.51-.84.77c-.82.75.68-.41-.18.15-.79.52-1.59,1.03-2.42,1.48-.45.25-.92.46-1.38.7-.95.49.7-.23-.37.17-.77.28-1.54.55-2.33.76-.38.1-.77.19-1.16.27-.14.03-1.65.27-.88.17s-.73.06-.88.07c-.38.02-.77.04-1.16.04-.77,0-1.55-.02-2.32-.08-.38-.03-.79-.04-1.17-.12,1.3.28-.16-.04-.44-.09-.87-.16-1.73-.35-2.59-.57-1.81-.47-3.59-1.05-5.36-1.68-2.47-.88-5.58.99-6.15,3.49-.64,2.81.85,5.21,3.49,6.15h0Z"/>
      </g>
      <path class="cls-21" d="M97.95,291.38c-.16.3-.24.99-.42,1.28-1.12,1.83,1.15,4.39,2.27,4.63,2.52.54,10.95,3.64,11.27,4.46,3.54,8.92,2.04,16.68,3.22,25.09.37,2.61,1.82,3.02,3.9,3.73.03.01.1,0,.13,0,3.04-.04,4.95-1.38,6.04-4.36.46-1.26.84-3.42,1.36-4.72,1.14-2.86,2.96-4.7,6.07-5.17,1.35-.21,3.28-.48,4.65-.47,3.71.01,4.76,2.67,4.63,6.02,0-.02,0,0,0,0-.13,3.35,1.69,5.69,5.13,6,.09,0,.19.08.29.04,2.71-1.15,3.39-.68,4.65-4.51,2.89-8.77,6.07-20.61,7.63-30.08.69-4.21,2.02-6.9,4.26-9.86s5.57-6.74,7.41-9.01c2.52-3.1,3.59-5.89,2.06-8.96-.34-.69-.74-1.17-1.28-1.53-2.78-1.86-5.09-.91-7.45,2.04-2.36,2.94-5.72,7.92-8.46,11.11-.41.47-.72.85-1.15,1.23-11.3,11.35-22.18,15.15-37.98,13.06-4.97-.49-9.4-2.77-14.51-2.74-1.73,0-2.97,1.24-3.75,2.72Z"/>
    </g>
    <g>
      <path class="cls-33" d="M162.7,237.15c8.98,19.48-7.47,49.21-26.5,55.2s-45.45-3.08-52.7-23.53c-7.25-20.45,7.88-40.66,27.13-48.36s43.08-2.79,52.06,16.69Z"/>
      <g class="cls-65">
        <path class="cls-44" d="M81.12,232.07c-2.83,5.6-5.25,11.54-6.19,17.78-.97,6.5-.65,13.01,1.13,19.36,1.47,5.27,3.93,10.32,7.17,14.73,1.82,2.48,3.72,4.92,6.06,6.94s4.76,3.68,7.38,5.14c6.37,3.54,13.22,5.46,20.51,5.71,3.27.11,6.4-2.96,6.25-6.25-.16-3.48-2.75-6.13-6.25-6.25-.63-.02-1.26-.05-1.89-.1-.47-.04-2.49-.39-.67-.03-1.34-.26-2.69-.45-4.02-.78-1.18-.29-2.34-.65-3.48-1.06-.33-.12-.66-.25-.99-.38-.86-.32,1.4.68.15.05-.62-.31-1.24-.6-1.85-.92-2.12-1.12-4.05-2.44-6.06-3.73,1.52.97,0-.02-.38-.36-.44-.39-.87-.79-1.29-1.2-.91-.91-1.73-1.9-2.54-2.9-.53-.64.72.97.23.3-.2-.27-.4-.54-.6-.81-.31-.43-.61-.87-.91-1.31-.73-1.08-1.41-2.2-2.03-3.35-.53-.97-.99-1.96-1.45-2.95-.38-.8.58,1.49.1.25-.09-.24-.19-.48-.28-.72-.23-.61-.44-1.22-.64-1.84-.36-1.13-.68-2.27-.94-3.42-.12-.52-.23-1.05-.33-1.57s-.04-1.6-.33-2.02l.12.84c-.03-.21-.05-.41-.07-.62-.04-.37-.08-.74-.1-1.11-.05-.6-.08-1.2-.09-1.8-.03-1.4.02-2.81.15-4.21.03-.32,0-.81.12-1.09l-.1.79c.04-.29.09-.58.14-.87.12-.72.27-1.44.43-2.15.32-1.43.72-2.84,1.18-4.24.23-.7.47-1.4.73-2.09.1-.28.21-.55.32-.83.11-.28.22-.55.33-.83l-.29.67c.58-1.53,1.36-3.01,2.09-4.46,1.47-2.92.87-6.91-2.24-8.55-2.84-1.5-6.98-.87-8.55,2.24h0Z"/>
        <path class="cls-44" d="M107.14,262.45c-1.85,2.57-3.41,5.38-4.32,8.43-1.03,3.46-1,7.12-.24,10.63,1.29,5.98,5.42,10.84,10.07,14.58,1.34,1.08,2.64,1.83,4.42,1.83,1.53,0,3.36-.68,4.42-1.83,2.09-2.27,2.72-6.65,0-8.84-1.78-1.43-3.44-2.96-4.92-4.71-.83-.97.59.87.19.24-.13-.21-.28-.4-.42-.61-.3-.46-.59-.93-.85-1.42-.14-.27-.27-.56-.41-.83-.34-.65.53,1.5.13.28-.18-.55-.36-1.09-.5-1.65-.06-.25-.12-.51-.17-.77-.03-.14-.05-.27-.07-.41-.08-.49-.05-.29.08.6.12-.5-.07-1.31-.06-1.84,0-.26.04-.53.05-.79.02-.79-.28,1.43-.04.32.12-.56.24-1.11.42-1.66.08-.24.16-.48.24-.72.34-.94.17-.15-.12.25.33-.46.52-1.07.79-1.56.63-1.12,1.34-2.19,2.09-3.24,1.91-2.66.55-7.08-2.24-8.55-3.23-1.71-6.51-.6-8.55,2.24h0Z"/>
      </g>
      <path class="cls-7" d="M162.7,237.15c8.98,19.48-7.47,49.21-26.5,55.2s-45.45-3.08-52.7-23.53c-7.25-20.45,7.88-40.66,27.13-48.36s43.08-2.79,52.06,16.69Z"/>
    </g>
    <path class="cls-5" d="M107.24,269.84c10.36-12.16,20.69-16.89,36.65-15.48"/>
    <g>
      <path class="cls-50" d="M105.28,219.14c-1.06-1.66-3.69-5.28-5.07-7.3-10.51,9.46-18.25,2.82-28.78,16.66-2.44-17.56,9.74-36.89,28.07-24.1,10.11-16.87,16.64-18.72,33.89-9.9-15.05,4.36-6.22,14.08-28.82,16.47,2.09,2.73,4.19,5.46,6.29,8.17-1.42.91-2.9,1.73-4.28,2.69-.76-1.3-.23-1.04-1.29-2.7Z"/>
      <g class="cls-61">
        <path class="cls-63" d="M84.47,205.95l.19-.08-1.49.63c1.2-.5,2.43-.87,3.72-1.06l-1.66.22c1.1-.14,2.2-.14,3.31,0l-1.66-.22c1.17.16,2.3.47,3.4.88.83.26,1.66.3,2.49.11.83-.04,1.61-.28,2.32-.74,1.3-.76,2.53-2.25,2.87-3.74.36-1.6.29-3.4-.63-4.82l-.98-1.26c-.78-.77-1.7-1.31-2.76-1.61-2.23-.83-4.71-1.28-7.09-1.2-1.42.05-2.85.24-4.23.58s-2.77.95-4.11,1.53c-.73.39-1.31.93-1.75,1.61-.55.6-.93,1.31-1.12,2.13-.41,1.5-.23,3.49.63,4.82s2.14,2.51,3.74,2.87l1.66.22c1.13,0,2.18-.29,3.15-.85h0Z"/>
        <path class="cls-63" d="M112.34,195.47c2.11-.89,4.29-1.55,6.56-1.89l-1.66.22c1.75-.23,3.49-.25,5.24-.04l-1.66-.22c.92.12,1.83.3,2.73.54.79.22,1.58.65,2.36.8-.93-.4-1.09-.47-.49-.2.23.1.45.21.67.32.34.17.67.34,1,.53.92.51,1.8,1.08,2.67,1.67,2.7,1.87,7.06.59,8.55-2.24,1.68-3.19.63-6.56-2.24-8.55-4.14-2.87-8.78-4.62-13.77-5.17-4.49-.5-9.16.43-13.29,2.17-1.57.66-2.84,1.33-3.74,2.87-.78,1.34-1.12,3.31-.63,4.82s1.43,2.97,2.87,3.74,3.31,1.27,4.82.63h0Z"/>
        <g class="cls-43">
          <path class="cls-52" d="M80.01,231.26l.19-.25-.98,1.26c.98-1.27,2.08-2.42,3.35-3.4l-1.26.98c1.04-.78,2.16-1.41,3.35-1.92l-1.49.63c2.25-.9,4.63-1.12,6.97-1.67,2.51-.59,5.07-1.55,7.15-3.09,1.35-1,2.41-2.05,2.87-3.74.41-1.5.23-3.49-.63-4.82s-2.14-2.51-3.74-2.87-3.49-.35-4.82.63c-.78.58-1.6,1.05-2.48,1.45l1.49-.63c-1.63.69-3.35,1.08-5.09,1.4-2.31.42-4.39.97-6.56,1.91-3.82,1.66-6.67,4.54-9.13,7.81-.91,1.21-1.01,3.43-.63,4.82s1.52,3.02,2.87,3.74c1.45.77,3.21,1.15,4.82.63s2.7-1.5,3.74-2.87h0Z"/>
        </g>
      </g>
      <path class="cls-31" d="M105.28,219.14c-1.06-1.66-3.69-5.28-5.07-7.3-10.51,9.46-18.25,2.82-28.78,16.66-2.44-17.56,9.74-36.89,28.07-24.1,10.11-16.87,16.64-18.72,33.89-9.9-15.05,4.36-6.22,14.08-28.82,16.47,2.09,2.73,4.19,5.46,6.29,8.17-1.42.91-2.9,1.73-4.28,2.69-.76-1.3-.23-1.04-1.29-2.7Z"/>
    </g>
    <path class="cls-24" d="M151.46,239.29c-14.8-23.77-36.1-12.91-24.85,10.64.46.97,1.31,1.39,1.9,1.67,5.44,2.55,9.47,2.56,12.91-2.33,1.69-2.41,3.2-4.13,5.7-5.42.84-.43,2.08-.89,2.76-1.21,1.29-.61,2.29-2.22,1.59-3.35Z"/>
    <g>
      <path class="cls-33" d="M153.96,262.07c6.54,11.15-6.73,27.11-17.73,30.35s-27.08,1.74-30.79-10.5c-3.72-12.24,9.67-20.9,19.56-24.17,9.88-3.28,22.43-6.83,28.97,4.32Z"/>
      <g class="cls-40">
        <path class="cls-39" d="M129.53,265.63c1.42-.45,2.65-1.21,4.01-1.78l-1.49.63c.8-.32,1.62-.53,2.47-.65l-1.66.22c1.6-.2,3.2-.06,4.79.15l-1.66-.22c.33.05.66.09.99.14.83.26,1.66.3,2.49.11.83-.04,1.61-.28,2.32-.74,1.3-.76,2.53-2.25,2.87-3.74.36-1.6.29-3.4-.63-4.82-.82-1.27-2.17-2.64-3.74-2.87-2.31-.34-4.72-.79-7.06-.56-1.38.14-2.81.3-4.13.77s-2.56,1.18-3.87,1.74l1.49-.63c-.17.07-.34.13-.52.19-1.53.48-2.91,1.47-3.74,2.87s-1.12,3.31-.63,4.82,1.43,2.97,2.87,3.74,3.2,1.14,4.82.63h0Z"/>
      </g>
      <path class="cls-7" d="M153.96,262.07c6.54,11.15-6.73,27.11-17.73,30.35s-27.08,1.74-30.79-10.5c-3.72-12.24,9.67-20.9,19.56-24.17,9.88-3.28,22.43-6.83,28.97,4.32Z"/>
    </g>
    <path class="cls-3" d="M81.15,238.42c3.8-5.89,7.69-7.67,14.27-4.77"/>
    <path class="cls-3" d="M130.01,222.68c2.25-5.5,5.04-8.98,11.15-9.79"/>
    <path d="M144.87,238.15c1.82,4.93-.49,10.47-5.2,13.09-4.71,2.62-9.53.42-11.51-4.62-1.99-5.03-.16-11.04,4.71-13.47,4.87-2.44,10.19.07,12.01,5Z"/>
    <path class="cls-49" d="M133.24,239.78c.06,1.24.45,3.57-1.32,3.65-1.77.09-2.81-1.79-2.86-3.4s.72-3.58,2.48-3.71,1.63,2.22,1.7,3.46Z"/>
    <path class="cls-32" d="M72.35,227.02c1.83-11.48,9.88-17.88,21.14-18.96"/>
    <path class="cls-32" d="M132.32,193.92c-10.31.4-22.32.4-27.07,11.09"/>
    <path class="cls-24" d="M95.02,261.78c-5.06-27.27,18.3-34.55,26.39-9.77.33,1.02-.21,1.99-.49,2.58-2.63,5.48-5.81,8.67-11.8,7.4-2.95-.63-5.15-.83-7.87.03-.91.29-2.09.87-2.82,1.14-1.37.5-3.16-.09-3.4-1.38Z"/>
    <path d="M99.1,256.13c1.93,5.01,7.45,7.45,12.65,6.11,5.2-1.34,8.1-6.37,6.12-11.52s-7.8-8.06-12.96-6.36-7.74,6.77-5.81,11.78Z"/>
    <path class="cls-49" d="M109.19,249.32c.85.98,2.14,2.8,3.54,1.66s.92-3.16-.19-4.4c-1.1-1.25-3.06-2.07-4.45-.92-1.39,1.15.24,2.68,1.1,3.66Z"/>
    <path class="cls-62" d="M100.66,267.47c.18.53-.16.99-.68,1.13s-1.11-.08-1.29-.61c-.18-.53.16-.99.68-1.13s1.11.08,1.29.61Z"/>
    <path class="cls-62" d="M96.25,271.18c.18.53-.17,1-.69,1.13-.52.14-1.11-.08-1.29-.61-.18-.53.17-1,.69-1.13.52-.14,1.11.08,1.29.61Z"/>
    <path class="cls-62" d="M101.3,271.26c.17.53-.19.99-.7,1.12-.51.13-1.1-.07-1.27-.6-.17-.53.19-.99.7-1.12.51-.13,1.1.07,1.27.6Z"/>
    <path class="cls-62" d="M146.3,249.52c.27.49.81.6,1.26.28.45-.32.6-.93.33-1.42-.26-.49-.81-.62-1.26-.29-.45.32-.6.95-.33,1.43Z"/>
    <path class="cls-62" d="M151.72,248.5c.28.48.83.51,1.25.16.41-.34.6-.95.32-1.43s-.83-.49-1.25-.15c-.42.34-.6.93-.32,1.42Z"/>
    <path class="cls-62" d="M148.72,252.64c.28.48.83.52,1.26.2s.61-.93.33-1.41-.83-.52-1.26-.2c-.43.33-.61.93-.33,1.41Z"/>
  </g>
  <path class="cls-18" d="M152.92,178.96c8.24-3.6,16.42-2.65,21.92.64"/>
</svg>