<?xml version="1.0" encoding="UTF-8"?>
<svg id="Layer_2" data-name="Layer 2" xmlns="http://www.w3.org/2000/svg" viewBox="0 0 965 154.12">
  <defs>
    <style>
      .cls-1 {
        fill: #39b739;
      }

      .cls-2 {
        fill: #fff;
      }

      .cls-3 {
        font-size: 131.88px;
      }

      .cls-3, .cls-4 {
        fill: #1e1e1e;
        font-family: Quicksand-Regular, Quicksand;
        font-variation-settings: 'wght' 400;
      }

      .cls-5 {
        fill: #515151;
      }

      .cls-4 {
        font-size: 131.88px;
      }
    </style>
  </defs>
  <g id="Layer_1-2" data-name="Layer 1">
    <rect class="cls-2" width="965" height="152"/>
    <rect class="cls-5" x="830.17" y="34.42" width="8.24" height="90.33" rx="3.98" ry="3.98" transform="translate(1668.58 159.17) rotate(-180)"/>
    <rect class="cls-5" x="814.38" y="43.16" width="8.24" height="73.27" rx="3.98" ry="3.98" transform="translate(1637 159.58) rotate(-180)"/>
    <rect class="cls-5" x="799.27" y="36.5" width="8.24" height="82.43" rx="3.98" ry="3.98" transform="translate(1606.78 155.42) rotate(180)"/>
    <rect class="cls-5" x="782.79" y="46.49" width="8.24" height="66.61" rx="3.98" ry="3.98" transform="translate(1573.82 159.58) rotate(-180)"/>
    <rect class="cls-5" x="767" y="35.66" width="8.24" height="90.33" rx="3.98" ry="3.98" transform="translate(1542.24 161.66) rotate(180)"/>
    <rect class="cls-5" x="892.65" y="34" width="8.24" height="90.33" rx="3.98" ry="3.98" transform="translate(1793.55 158.33) rotate(-180)"/>
    <rect class="cls-5" x="876.86" y="42.74" width="8.24" height="73.27" rx="3.98" ry="3.98" transform="translate(1761.96 158.75) rotate(-180)"/>
    <rect class="cls-5" x="907.76" y="54.81" width="8.24" height="49.12" rx="3.98" ry="3.98" transform="translate(1823.76 158.75) rotate(-180)"/>
    <rect class="cls-5" x="861.76" y="36.08" width="8.24" height="82.43" rx="3.98" ry="3.98" transform="translate(1731.75 154.59) rotate(-180)"/>
    <rect class="cls-5" x="845.28" y="46.07" width="8.24" height="66.61" rx="3.98" ry="3.98" transform="translate(1698.79 158.75) rotate(-180)"/>
    <rect class="cls-5" x="138.59" y="38.25" width="8.24" height="90.33" rx="3.98" ry="3.98"/>
    <rect class="cls-5" x="154.38" y="46.57" width="8.24" height="73.27" rx="3.98" ry="3.98"/>
    <rect class="cls-5" x="169.49" y="44.08" width="8.24" height="82.43" rx="3.98" ry="3.98"/>
    <rect class="cls-5" x="185.97" y="49.9" width="8.24" height="66.61" rx="3.98" ry="3.98"/>
    <rect class="cls-5" x="201.76" y="37" width="8.24" height="90.33" rx="3.98" ry="3.98"/>
    <rect class="cls-5" x="76.11" y="38.66" width="8.24" height="90.33" rx="3.98" ry="3.98"/>
    <rect class="cls-5" x="91.9" y="46.99" width="8.24" height="73.27" rx="3.98" ry="3.98"/>
    <rect class="cls-5" x="61" y="59.06" width="8.24" height="49.12" rx="3.98" ry="3.98"/>
    <rect class="cls-5" x="107" y="44.49" width="8.24" height="82.43" rx="3.98" ry="3.98"/>
    <rect class="cls-5" x="123.48" y="50.32" width="8.24" height="66.61" rx="3.98" ry="3.98"/>
    <text class="cls-4" transform="translate(487.02 124.97) rotate(-.08) scale(.9 1)"><tspan x="0" y="0">K</tspan></text>
    <text class="cls-3" transform="translate(553.92 124.97) rotate(-.08) scale(.9 1)"><tspan x="0" y="0">U</tspan></text>
    <text class="cls-4" transform="translate(271.72 124.97) rotate(-.08) scale(.9 1)"><tspan x="0" y="0">L</tspan></text>
    <text class="cls-4" transform="translate(637.23 124.97) rotate(-.08) scale(.9 1)"><tspan x="0" y="0">P</tspan></text>
    <g>
      <path class="cls-1" d="M486.07,59.98c-1.85-5.44-5.71-9.83-10.83-12.34l-38.15-18.71c-2.96-1.47-6.16-2.2-9.4-2.2-2.34,0-4.71.4-6.99,1.19-5.44,1.85-9.83,5.71-12.34,10.83l-1.04,2.11-3.11,6.33-14.32,29.2c-2.52,5.12-2.88,10.95-1.04,16.39,1.68,4.9,4.97,8.93,9.34,11.51l3.09-6.35.13.06c-2.75-1.71-4.8-4.33-5.9-7.5-1.24-3.66-1.02-7.57.68-11.02l14.32-29.18,3.09-6.31,1.06-2.13c1.7-3.45,4.63-6.03,8.31-7.29,1.53-.53,3.11-.79,4.69-.79h.02c2.2,0,4.31.49,6.31,1.47l38.13,18.71c3.45,1.7,6.03,4.63,7.29,8.31,1.24,3.66,1,7.57-.68,11.02l-18.46,37.62c-1.7,3.45-4.63,6.05-8.31,7.29-1.54.53-3.13.79-4.71.79-2.17,0-4.31-.49-6.31-1.47l-27.07-13.28-3.15,6.29,27.13,13.32c2.96,1.45,6.12,2.19,9.4,2.19,2.37,0,4.71-.4,6.99-1.17,5.44-1.87,9.83-5.71,12.34-10.85l18.46-37.64c2.52-5.12,2.88-10.95,1.02-16.39Z"/>
      <path class="cls-1" d="M410.72,102.69l1.68-3.37,12.72-25.66c4.99-10.08,1.32-22.21-8.16-27.92l-3.11,6.35c5.97,3.96,8.23,11.87,4.96,18.44l-12.72,25.68-6.54,13.04c-2.68,4.39-7.4,6.88-12.32,6.88-2.15,0-4.33-.49-6.39-1.49l-38.06-18.88c-3.45-1.7-6.03-4.65-7.27-8.31-1.22-3.67-.98-7.57.73-11.02l18.61-37.57c3.52-7.14,12.21-10.06,19.35-6.54l26.62,13.19,3.09-6.33-26.58-13.17c-3.01-1.49-6.24-2.24-9.5-2.24-2.32,0-4.65.4-6.91,1.15-5.44,1.85-9.83,5.67-12.38,10.81l-18.61,37.57c-2.54,5.12-2.92,10.95-1.09,16.39,1.85,5.44,5.67,9.83,10.81,12.38l38.06,18.86c2.98,1.47,6.14,2.22,9.44,2.24h.08c7.8,0,14.85-4.11,18.65-10.81l1.69-3.38.05.02v-.02l3.11-6.29h0Z"/>
    </g>
  </g>
</svg>