<?xml version="1.0" encoding="UTF-8"?>
<svg id="Layer_2" data-name="Layer 2" xmlns="http://www.w3.org/2000/svg" viewBox="0 0 1407.84 1081.84">
  <defs>
    <style>
      .cls-1 {
        fill: #efe9e4;
        stroke: #fff;
        stroke-miterlimit: 10;
        stroke-width: .84px;
      }

      .cls-2 {
        fill: #010101;
      }

      .cls-3 {
        fill: #4a782e;
      }

      .cls-4 {
        fill: #fefefe;
      }
    </style>
  </defs>
  <g id="Calque_1" data-name="Calque 1">
    <rect class="cls-1" x=".42" y=".42" width="1407" height="1081"/>
    <g>
      <path class="cls-4" d="M416.83,337.55c-32.43,2.97-47.39,68.34-52.41,94.02-17.56,89.94-17.47,185.43,78.09,227.94,93.57,41.62,168.19-13.07,170.07-111.71,12.74,21.21,27.22,41.41,37.14,64.18,5.1,11.7,14.95,45.23,21.52,52.73,8.96,10.24,39.17,13.66,51.02,7.98,14.34-6.87,30.79-64.93,40.61-87.78,2.14-4.98,20.19-42.99,21.52-45.1,7.37-11.71,6.83-1.4,6.25,12.49-.95,22.57-17.57,114.08,14.23,119,10.83,1.68,25.19-2.94,32.28-11.45,23.7-28.47,2.82-115.84,11.8-138.78,8.46-21.6,40.89,11.87,47.9,22.2,30.82,45.44,3.1,129.31,35.06,133.57,8.29,1.11,20.48-2.48,27.07-7.63,30.36-23.73,17.57-122.29,24.64-136.35,7.08-14.08,21.8,31.54,23.6,35.39,14.25,30.44,28.31,56.12,55.19,77.37,12.64,9.99,59.22,42.78,52.41,3.12-5.1-29.72-40.94-65.58-52.76-94.37-14.14-34.45-14-82.94-32.28-96.1-36.02-25.94-74.14,51.69-115.23,20.12-9.33-7.17-21.54-30.58-42.34-47.18-24.76-19.76-48.49-29.23-76.36-8.33-26.35,19.77-33.95,59.59-50.33,87.08-6.87,8.43-37.51,61.21-44.08,62.8-12.87,3.12-27.57-20.63-32.97-30.18-19.54-34.51-17.37-60.71-27.77-77.71-24.25-39.67-72.33-30.22-82.61-4.16-5.97,15.15,3.89,43.73,2.08,75.63-2.63,46.51-22.24,91.52-77.4,79.45-61.88-13.54-72.83-101.5-63.52-153,6.69-37.01,34.52-80.32,32.63-99.92-1.53-15.85-20.24-26.68-35.06-25.33ZM282.86,373.63c-17.13,1.67-20.6,10.35-17.01,26.02,3.07,13.4,18.86,47.23,29.5,55.86,20.61,16.71,31.69-15.72,30.89-19.78-1.53-7.72-33.33-37.62-43.04-42.33,20.1,3.58,39.05,21.6,49.63,38.51h1.39c37.43-37-22-61.14-51.37-58.29ZM243.64,562.37c20.62-23.31,62.84-38.17,94.06-37.47-.62-16.25-6.72-42.44-26.38-44.41-39.51-3.95-123.79,80.64-90.24,105.47,20.75,15.36,170.82,42.57,115.23-47.88-32.74-.52-63.51,10.88-92.67,24.29ZM1168.27,511.02c-1.75,15.86-46.34,53.77-69.42,57.94,31.01,80.19,93.3-19.55,95.1-59.67,1.18-26.27-14.1-26.98-35.75-26.02-42.9,1.91-122.02,24.63-61.09,74.24,27.35-9.43,50.31-26.96,71.15-46.49Z"/>
      <g>
        <path class="cls-2" d="M416.83,337.55c14.81-1.36,33.52,9.48,35.06,25.33,1.89,19.6-25.93,62.91-32.63,99.92-9.31,51.5,1.64,139.46,63.52,153,55.16,12.07,74.77-32.94,77.4-79.45,1.81-31.9-8.06-60.48-2.08-75.63,10.27-26.05,58.35-35.5,82.61,4.16,10.4,17.01,8.23,43.21,27.77,77.71,5.41,9.55,20.1,33.3,32.97,30.18,6.57-1.59,37.21-54.36,44.08-62.8,16.38-27.49,23.97-67.32,50.33-87.08,27.87-20.9,51.6-11.43,76.36,8.33,20.8,16.6,33.01,40.01,42.34,47.18,41.09,31.57,79.21-46.07,115.23-20.12,18.28,13.16,18.13,61.65,32.28,96.1,11.82,28.79,47.65,64.65,52.76,94.37,6.81,39.66-39.77,6.87-52.41-3.12-26.88-21.25-40.94-46.93-55.19-77.37-1.8-3.85-16.52-49.46-23.6-35.39-7.07,14.06,5.72,112.62-24.64,136.35-6.59,5.15-18.79,8.74-27.07,7.63-31.95-4.26-4.24-88.13-35.06-133.57-7.01-10.34-39.43-43.8-47.9-22.2-8.99,22.93,11.9,110.3-11.8,138.78-7.09,8.51-21.45,13.12-32.28,11.45-31.8-4.92-15.18-96.43-14.23-119,.58-13.89,1.12-24.2-6.25-12.49-1.33,2.11-19.38,40.12-21.52,45.1-9.82,22.84-26.27,80.9-40.61,87.78-11.85,5.68-42.07,2.26-51.02-7.98-6.57-7.51-16.42-41.03-21.52-52.73-9.92-22.78-24.4-42.98-37.14-64.18-1.88,98.65-76.5,153.34-170.07,111.71-95.56-42.51-95.66-138-78.09-227.94,5.02-25.68,19.98-91.05,52.41-94.02Z"/>
        <path class="cls-3" d="M1168.27,511.02h0c-20.84,19.53-43.8,37.06-71.15,46.49-60.93-49.62,18.19-72.33,61.09-74.24,21.64-.96,36.93-.25,35.75,26.02-1.8,40.12-64.1,139.87-95.1,59.67,23.08-4.17,67.67-42.08,69.42-57.94Z"/>
        <g>
          <path class="cls-3" d="M282.86,373.63c29.37-2.86,88.79,21.29,51.37,58.29h-1.39c-10.59-16.91-29.54-34.93-49.63-38.51,9.71,4.71,41.51,34.6,43.04,42.33.8,4.06-10.28,36.48-30.89,19.78-10.64-8.62-26.43-42.46-29.5-55.86-3.59-15.67-.12-24.35,17.01-26.02Z"/>
          <path class="cls-3" d="M243.64,562.37h0c29.16-13.41,59.93-24.8,92.67-24.29,55.59,90.45-94.48,63.24-115.23,47.88-33.55-24.83,50.73-109.42,90.24-105.47,19.66,1.97,25.76,28.16,26.38,44.41-31.22-.7-73.44,14.16-94.06,37.47Z"/>
        </g>
      </g>
    </g>
  </g>
</svg>